<svg width="764" height="764" viewBox="0 0 764 764" fill="none" xmlns="http://www.w3.org/2000/svg">
<g clip-path="url(#clip0_180_14500)">
<path d="M593.743 148.575L590.163 128.547L593.059 145.324L593.743 148.575Z" stroke="white" stroke-opacity="0.15"/>
<path d="M574.165 132.256L590.163 128.547L570.906 132.783L574.165 132.256Z" stroke="white" stroke-opacity="0.15"/>
<path d="M593.059 145.324L590.163 128.547L591.699 142.18L593.059 145.324Z" stroke="white" stroke-opacity="0.15"/>
<path d="M577.569 132.401L590.163 128.547L574.165 132.256L577.569 132.401Z" stroke="white" stroke-opacity="0.15"/>
<path d="M591.699 142.18L590.163 128.547L589.716 139.273L591.699 142.18Z" stroke="white" stroke-opacity="0.15"/>
<path d="M580.976 133.226L590.163 128.547L577.569 132.401L580.976 133.226Z" stroke="white" stroke-opacity="0.15"/>
<path d="M589.716 139.273L590.163 128.547L587.187 136.737L589.716 139.273Z" stroke="white" stroke-opacity="0.15"/>
<path d="M584.234 134.693L590.163 128.547L580.976 133.226L584.234 134.693Z" stroke="white" stroke-opacity="0.15"/>
<path d="M587.187 136.737L590.163 128.547L584.234 134.693L587.187 136.737Z" stroke="white" stroke-opacity="0.15"/>
<path d="M349.836 490.263L344.766 496.883L377.825 517.835L374.753 506.02L349.836 490.263Z" stroke="white" stroke-opacity="0.15"/>
<path d="M325.296 473.825L312.09 475.093L344.766 496.883L349.835 490.263L325.296 473.825Z" stroke="white" stroke-opacity="0.15"/>
<path d="M374.753 506.02L377.825 517.835L411.326 537.974L399.824 520.949L374.753 506.02Z" stroke="white" stroke-opacity="0.15"/>
<path d="M597.669 170.548L593.742 148.575L593.059 145.324L596.268 163.924L597.669 170.548Z" stroke="white" stroke-opacity="0.15"/>
<path d="M556.371 136.378L574.165 132.256L570.907 132.783L549.694 137.447L556.371 136.378Z" stroke="white" stroke-opacity="0.15"/>
<path d="M301.367 456.841L279.761 452.41L312.09 475.093L325.296 473.825L301.367 456.841Z" stroke="white" stroke-opacity="0.15"/>
<path d="M596.268 163.924L593.059 145.325L591.699 142.181L593.414 157.411L596.268 163.924Z" stroke="white" stroke-opacity="0.15"/>
<path d="M563.462 136.718L577.569 132.401L574.165 132.256L556.372 136.378L563.462 136.718Z" stroke="white" stroke-opacity="0.15"/>
<path d="M593.414 157.411L591.699 142.18L589.716 139.273L589.208 151.326L593.414 157.411Z" stroke="white" stroke-opacity="0.15"/>
<path d="M570.635 138.49L580.976 133.226L577.569 132.401L563.461 136.718L570.635 138.49Z" stroke="white" stroke-opacity="0.15"/>
<path d="M589.208 151.325L589.716 139.273L587.187 136.737L583.833 145.974L589.208 151.325Z" stroke="white" stroke-opacity="0.15"/>
<path d="M577.538 141.623L584.234 134.693L580.976 133.227L570.635 138.491L577.538 141.623Z" stroke="white" stroke-opacity="0.15"/>
<path d="M583.834 145.974L587.188 136.737L584.235 134.693L577.538 141.623L583.834 145.974Z" stroke="white" stroke-opacity="0.15"/>
<path d="M399.824 520.949L411.326 537.974L445.316 557.269L424.799 534.865L399.824 520.949Z" stroke="white" stroke-opacity="0.15"/>
<path d="M278.336 439.472L247.811 428.776L279.761 452.41L301.367 456.841L278.336 439.472Z" stroke="white" stroke-opacity="0.15"/>
<path d="M601.994 194.767L597.669 170.548L596.267 163.924L599.843 184.651L601.994 194.767Z" stroke="white" stroke-opacity="0.15"/>
<path d="M424.799 534.865L445.316 557.269L479.788 575.59L449.377 547.517L424.799 534.865Z" stroke="white" stroke-opacity="0.15"/>
<path d="M536.469 140.989L556.372 136.378L549.694 137.448L526.209 142.608L536.469 140.989Z" stroke="white" stroke-opacity="0.15"/>
<path d="M599.843 184.651L596.268 163.924L593.414 157.411L595.343 174.543L599.843 184.651Z" stroke="white" stroke-opacity="0.15"/>
<path d="M547.551 141.588L563.461 136.718L556.371 136.378L536.469 140.989L547.551 141.588Z" stroke="white" stroke-opacity="0.15"/>
<path d="M256.585 421.9L216.368 404.129L247.811 428.776L278.336 439.472L256.585 421.9Z" stroke="white" stroke-opacity="0.15"/>
<path d="M595.343 174.544L593.414 157.411L589.208 151.326L588.635 164.975L595.343 174.544Z" stroke="white" stroke-opacity="0.15"/>
<path d="M558.908 144.461L570.635 138.49L563.461 136.718L547.551 141.588L558.908 144.461Z" stroke="white" stroke-opacity="0.15"/>
<path d="M588.635 164.974L589.208 151.325L583.833 145.974L580.021 156.471L588.635 164.974Z" stroke="white" stroke-opacity="0.15"/>
<path d="M569.929 149.507L577.538 141.623L570.635 138.49L558.908 144.461L569.929 149.507Z" stroke="white" stroke-opacity="0.15"/>
<path d="M580.021 156.471L583.833 145.974L577.538 141.623L569.929 149.507L580.021 156.471Z" stroke="white" stroke-opacity="0.15"/>
<path d="M449.377 547.517L479.788 575.59L514.63 592.7L473.138 558.579L449.377 547.517Z" stroke="white" stroke-opacity="0.15"/>
<path d="M606.788 221.598L601.993 194.767L599.843 184.651L603.854 207.896L606.788 221.598Z" stroke="white" stroke-opacity="0.15"/>
<path d="M514.053 146.18L536.469 140.989L526.209 142.608L500.072 148.358L514.053 146.18Z" stroke="white" stroke-opacity="0.15"/>
<path d="M236.641 404.401L185.755 378.486L216.369 404.13L256.585 421.9L236.641 404.401Z" stroke="white" stroke-opacity="0.15"/>
<path d="M356.436 481.645L349.836 490.262L374.753 506.02L370.765 490.683L356.436 481.645Z" stroke="white" stroke-opacity="0.15"/>
<path d="M342.39 472.179L325.296 473.825L349.836 490.263L356.437 481.645L342.39 472.179Z" stroke="white" stroke-opacity="0.15"/>
<path d="M370.765 490.683L374.754 506.02L399.824 520.949L385.048 499.083L370.765 490.683Z" stroke="white" stroke-opacity="0.15"/>
<path d="M603.854 207.896L599.843 184.651L595.343 174.543L597.528 193.957L603.854 207.896Z" stroke="white" stroke-opacity="0.15"/>
<path d="M328.944 462.499L301.367 456.841L325.296 473.825L342.39 472.179L328.944 462.499Z" stroke="white" stroke-opacity="0.15"/>
<path d="M529.467 147.124L547.551 141.589L536.469 140.989L514.054 146.18L529.467 147.124Z" stroke="white" stroke-opacity="0.15"/>
<path d="M385.048 499.083L399.824 520.949L424.799 534.865L398.953 506.635L385.048 499.083Z" stroke="white" stroke-opacity="0.15"/>
<path d="M597.528 193.957L595.343 174.544L588.635 164.975L587.982 180.556L597.528 193.957Z" stroke="white" stroke-opacity="0.15"/>
<path d="M545.488 151.295L558.908 144.461L547.551 141.588L529.467 147.124L545.488 151.295Z" stroke="white" stroke-opacity="0.15"/>
<path d="M316.449 452.826L278.336 439.472L301.367 456.841L328.944 462.499L316.449 452.826Z" stroke="white" stroke-opacity="0.15"/>
<path d="M587.982 180.556L588.635 164.975L580.021 156.471L575.647 168.5L587.982 180.556Z" stroke="white" stroke-opacity="0.15"/>
<path d="M561.2 158.549L569.929 149.507L558.908 144.461L545.488 151.295L561.2 158.549Z" stroke="white" stroke-opacity="0.15"/>
<path d="M575.647 168.5L580.021 156.471L569.929 149.507L561.2 158.549L575.647 168.5Z" stroke="white" stroke-opacity="0.15"/>
<path d="M473.137 558.58L514.63 592.7L549.545 608.159L495.488 567.599L473.137 558.58Z" stroke="white" stroke-opacity="0.15"/>
<path d="M398.953 506.635L424.799 534.865L449.377 547.517L412.113 513.118L398.953 506.635Z" stroke="white" stroke-opacity="0.15"/>
<path d="M305.264 443.41L256.585 421.9L278.337 439.472L316.449 452.827L305.264 443.41Z" stroke="white" stroke-opacity="0.15"/>
<path d="M612.128 251.486L606.788 221.598L603.854 207.896L608.384 234.155L612.128 251.486Z" stroke="white" stroke-opacity="0.15"/>
<path d="M219.214 387.363L156.559 351.956L185.755 378.485L236.641 404.4L219.214 387.363Z" stroke="white" stroke-opacity="0.15"/>
<path d="M488.624 152.071L514.054 146.18L500.073 148.358L470.804 154.79L488.624 152.071Z" stroke="white" stroke-opacity="0.15"/>
<path d="M412.113 513.118L449.377 547.517L473.138 558.579L424.131 518.282L412.113 513.118Z" stroke="white" stroke-opacity="0.15"/>
<path d="M295.79 434.525L236.641 404.4L256.585 421.9L305.264 443.41L295.79 434.525Z" stroke="white" stroke-opacity="0.15"/>
<path d="M608.385 234.154L603.854 207.896L597.528 193.957L600.027 216.139L608.385 234.154Z" stroke="white" stroke-opacity="0.15"/>
<path d="M508.729 153.469L529.467 147.124L514.054 146.18L488.624 152.071L508.729 153.469Z" stroke="white" stroke-opacity="0.15"/>
<path d="M424.131 518.282L473.137 558.579L495.488 567.598L434.567 521.884L424.131 518.282Z" stroke="white" stroke-opacity="0.15"/>
<path d="M600.026 216.139L597.528 193.957L587.982 180.556L587.229 198.51L600.026 216.139Z" stroke="white" stroke-opacity="0.15"/>
<path d="M495.488 567.599L549.545 608.159L583.895 621.266L515.616 573.989L495.488 567.599Z" stroke="white" stroke-opacity="0.15"/>
<path d="M529.994 159.183L545.488 151.295L529.467 147.124L508.728 153.469L529.994 159.183Z" stroke="white" stroke-opacity="0.15"/>
<path d="M587.229 198.51L587.982 180.556L575.647 168.5L570.586 182.436L587.229 198.51Z" stroke="white" stroke-opacity="0.15"/>
<path d="M288.456 426.499L219.214 387.363L236.641 404.4L295.79 434.525L288.456 426.499Z" stroke="white" stroke-opacity="0.15"/>
<path d="M551.081 169.027L561.2 158.549L545.488 151.295L529.994 159.183L551.081 169.027Z" stroke="white" stroke-opacity="0.15"/>
<path d="M570.585 182.436L575.647 168.5L561.2 158.549L551.081 169.028L570.585 182.436Z" stroke="white" stroke-opacity="0.15"/>
<path d="M618.11 284.984L612.128 251.486L608.385 234.155L613.542 264.046L618.11 284.984Z" stroke="white" stroke-opacity="0.15"/>
<path d="M205.26 371.354L129.815 324.887L156.559 351.956L219.214 387.363L205.26 371.354Z" stroke="white" stroke-opacity="0.15"/>
<path d="M434.567 521.885L495.488 567.599L515.616 573.99L442.925 523.661L434.567 521.885Z" stroke="white" stroke-opacity="0.15"/>
<path d="M459.523 158.809L488.624 152.07L470.803 154.79L437.806 162.044L459.523 158.809Z" stroke="white" stroke-opacity="0.15"/>
<path d="M283.723 419.677L205.26 371.354L219.214 387.363L288.456 426.499L283.723 419.677Z" stroke="white" stroke-opacity="0.15"/>
<path d="M613.542 264.046L608.385 234.155L600.026 216.14L602.907 241.726L613.542 264.046Z" stroke="white" stroke-opacity="0.15"/>
<path d="M365.379 469.971L434.567 521.884L442.925 523.661L365.379 469.971Z" stroke="white" stroke-opacity="0.15"/>
<path d="M365.379 469.971L424.131 518.282L434.567 521.884L365.379 469.971Z" stroke="white" stroke-opacity="0.15"/>
<path d="M365.379 469.971L412.113 513.118L424.131 518.282L365.379 469.971Z" stroke="white" stroke-opacity="0.15"/>
<path d="M365.379 469.971L398.953 506.635L412.113 513.118L365.379 469.971Z" stroke="white" stroke-opacity="0.15"/>
<path d="M365.379 469.971L385.048 499.083L398.953 506.635L365.379 469.971Z" stroke="white" stroke-opacity="0.15"/>
<path d="M365.379 469.971L370.765 490.683L385.048 499.083L365.379 469.971Z" stroke="white" stroke-opacity="0.15"/>
<path d="M365.379 469.971L356.436 481.645L370.765 490.683L365.379 469.971Z" stroke="white" stroke-opacity="0.15"/>
<path d="M365.379 469.971L342.39 472.179L356.436 481.645L365.379 469.971Z" stroke="white" stroke-opacity="0.15"/>
<path d="M365.379 469.971L328.944 462.499L342.39 472.179L365.379 469.971Z" stroke="white" stroke-opacity="0.15"/>
<path d="M365.379 469.971L316.449 452.827L328.944 462.499L365.379 469.971Z" stroke="white" stroke-opacity="0.15"/>
<path d="M365.379 469.971L305.264 443.41L316.449 452.826L365.379 469.971Z" stroke="white" stroke-opacity="0.15"/>
<path d="M365.379 469.971L295.79 434.525L305.264 443.41L365.379 469.971Z" stroke="white" stroke-opacity="0.15"/>
<path d="M365.379 469.971L288.456 426.499L295.79 434.525L365.379 469.971Z" stroke="white" stroke-opacity="0.15"/>
<path d="M365.379 469.971L283.723 419.677L288.456 426.499L365.379 469.971Z" stroke="white" stroke-opacity="0.15"/>
<path d="M484.708 160.822L508.729 153.468L488.624 152.07L459.523 158.809L484.708 160.822Z" stroke="white" stroke-opacity="0.15"/>
<path d="M365.379 469.971L442.925 523.661L448.689 523.359L365.379 469.971Z" stroke="white" stroke-opacity="0.15"/>
<path d="M442.925 523.661L515.616 573.99L532.405 577.004L448.689 523.359L442.925 523.661Z" stroke="white" stroke-opacity="0.15"/>
<path d="M515.616 573.989L583.894 621.266L616.525 630.911L532.405 577.003L515.616 573.989Z" stroke="white" stroke-opacity="0.15"/>
<path d="M602.907 241.726L600.026 216.14L587.229 198.51L586.351 219.425L602.907 241.726Z" stroke="white" stroke-opacity="0.15"/>
<path d="M365.379 469.971L282.042 414.458L283.723 419.677L365.379 469.971Z" stroke="white" stroke-opacity="0.15"/>
<path d="M511.895 168.397L529.994 159.183L508.728 153.469L484.708 160.822L511.895 168.397Z" stroke="white" stroke-opacity="0.15"/>
<path d="M586.351 219.425L587.229 198.51L570.586 182.436L564.653 198.758L586.351 219.425Z" stroke="white" stroke-opacity="0.15"/>
<path d="M539.216 181.312L551.081 169.027L529.994 159.183L511.895 168.397L539.216 181.312Z" stroke="white" stroke-opacity="0.15"/>
<path d="M564.653 198.758L570.585 182.436L551.081 169.027L539.216 181.312L564.653 198.758Z" stroke="white" stroke-opacity="0.15"/>
<path d="M624.864 322.782L618.111 284.983L613.542 264.046L619.467 298.384L624.864 322.782Z" stroke="white" stroke-opacity="0.15"/>
<path d="M282.042 414.459L196.027 357.163L205.26 371.354L283.723 419.677L282.042 414.459Z" stroke="white" stroke-opacity="0.15"/>
<path d="M365.379 469.971L448.69 523.359L451.337 520.758L365.379 469.971Z" stroke="white" stroke-opacity="0.15"/>
<path d="M425.895 166.602L459.523 158.809L437.806 162.045L400.317 170.288L425.895 166.602Z" stroke="white" stroke-opacity="0.15"/>
<path d="M196.027 357.163L107.204 297.995L129.815 324.887L205.26 371.354L196.027 357.163Z" stroke="white" stroke-opacity="0.15"/>
<path d="M365.379 469.971L283.833 411.242L282.042 414.459L365.379 469.971Z" stroke="white" stroke-opacity="0.15"/>
<path d="M619.466 298.384L613.541 264.046L602.907 241.726L606.268 271.571L619.466 298.384Z" stroke="white" stroke-opacity="0.15"/>
<path d="M365.379 469.971L451.337 520.758L450.393 515.727L365.379 469.971Z" stroke="white" stroke-opacity="0.15"/>
<path d="M448.69 523.359L532.405 577.003L544.388 575.739L451.337 520.758L448.69 523.359Z" stroke="white" stroke-opacity="0.15"/>
<path d="M456.562 169.433L484.708 160.822L459.523 158.809L425.895 166.602L456.562 169.433Z" stroke="white" stroke-opacity="0.15"/>
<path d="M365.379 469.971L289.399 410.409L283.833 411.242L365.379 469.971Z" stroke="white" stroke-opacity="0.15"/>
<path d="M606.268 271.572L602.906 241.726L586.351 219.425L585.315 244.102L606.268 271.572Z" stroke="white" stroke-opacity="0.15"/>
<path d="M283.833 411.242L193.047 345.859L196.027 357.162L282.042 414.458L283.833 411.242Z" stroke="white" stroke-opacity="0.15"/>
<path d="M490.48 179.3L511.895 168.397L484.708 160.822L456.562 169.433L490.48 179.3Z" stroke="white" stroke-opacity="0.15"/>
<path d="M632.546 365.777L624.864 322.783L619.466 298.384L626.342 338.235L632.546 365.777Z" stroke="white" stroke-opacity="0.15"/>
<path d="M365.379 469.971L450.393 515.727L445.496 508.236L365.379 469.971Z" stroke="white" stroke-opacity="0.15"/>
<path d="M585.315 244.102L586.351 219.424L564.653 198.758L557.613 218.145L585.315 244.102Z" stroke="white" stroke-opacity="0.15"/>
<path d="M525.116 195.92L539.216 181.312L511.895 168.397L490.48 179.299L525.116 195.92Z" stroke="white" stroke-opacity="0.15"/>
<path d="M557.613 218.145L564.653 198.758L539.216 181.312L525.116 195.92L557.613 218.145Z" stroke="white" stroke-opacity="0.15"/>
<path d="M365.379 469.971L298.873 412.27L289.399 410.409L365.379 469.971Z" stroke="white" stroke-opacity="0.15"/>
<path d="M532.405 577.004L616.525 630.911L645.45 635.453L544.388 575.739L532.405 577.004Z" stroke="white" stroke-opacity="0.15"/>
<path d="M386.599 175.701L425.896 166.602L400.317 170.288L357.353 179.735L386.599 175.701Z" stroke="white" stroke-opacity="0.15"/>
<path d="M365.379 469.971L445.496 508.236L436.5 498.441L365.379 469.971Z" stroke="white" stroke-opacity="0.15"/>
<path d="M365.379 469.971L312.113 416.991L298.873 412.27L365.379 469.971Z" stroke="white" stroke-opacity="0.15"/>
<path d="M451.337 520.758L544.388 575.739L549.763 569.207L450.393 515.727L451.337 520.758Z" stroke="white" stroke-opacity="0.15"/>
<path d="M626.342 338.234L619.466 298.384L606.268 271.571L610.237 306.83L626.342 338.234Z" stroke="white" stroke-opacity="0.15"/>
<path d="M365.379 469.971L436.5 498.441L423.554 486.714L365.379 469.971Z" stroke="white" stroke-opacity="0.15"/>
<path d="M193.047 345.859L91.3703 272.633L107.204 297.994L196.027 357.162L193.047 345.859Z" stroke="white" stroke-opacity="0.15"/>
<path d="M365.379 469.971L328.646 424.54L312.113 416.991L365.379 469.971Z" stroke="white" stroke-opacity="0.15"/>
<path d="M423.126 179.666L456.562 169.432L425.896 166.602L386.599 175.701L423.126 179.666Z" stroke="white" stroke-opacity="0.15"/>
<path d="M365.379 469.971L423.554 486.714L407.174 473.642L365.379 469.971Z" stroke="white" stroke-opacity="0.15"/>
<path d="M289.399 410.409L198.059 338.807L193.048 345.859L283.834 411.242L289.399 410.409Z" stroke="white" stroke-opacity="0.15"/>
<path d="M365.379 469.971L347.635 434.628L328.646 424.54L365.379 469.971Z" stroke="white" stroke-opacity="0.15"/>
<path d="M641.359 415.116L632.546 365.777L626.342 338.234L634.418 385.048L641.359 415.116Z" stroke="white" stroke-opacity="0.15"/>
<path d="M365.379 469.971L407.174 473.642L388.242 460.008L365.379 469.971Z" stroke="white" stroke-opacity="0.15"/>
<path d="M610.237 306.83L606.268 271.572L585.316 244.102L584.078 273.657L610.237 306.83Z" stroke="white" stroke-opacity="0.15"/>
<path d="M365.379 469.971L367.946 446.707L347.635 434.628L365.379 469.971Z" stroke="white" stroke-opacity="0.15"/>
<path d="M365.379 469.971L388.242 460.008L367.946 446.707L365.379 469.971Z" stroke="white" stroke-opacity="0.15"/>
<path d="M464.738 192.406L490.48 179.299L456.563 169.432L423.126 179.666L464.738 192.406Z" stroke="white" stroke-opacity="0.15"/>
<path d="M584.078 273.657L585.315 244.102L557.613 218.145L549.109 241.543L584.078 273.657Z" stroke="white" stroke-opacity="0.15"/>
<path d="M340.068 186.481L386.599 175.701L357.353 179.735L307.621 190.668L340.068 186.481Z" stroke="white" stroke-opacity="0.15"/>
<path d="M508.068 213.572L525.116 195.92L490.48 179.299L464.737 192.406L508.068 213.572Z" stroke="white" stroke-opacity="0.15"/>
<path d="M549.109 241.543L557.613 218.145L525.116 195.92L508.067 213.573L549.109 241.543Z" stroke="white" stroke-opacity="0.15"/>
<path d="M450.393 515.727L549.763 569.207L546.504 556.479L445.496 508.236L450.393 515.727Z" stroke="white" stroke-opacity="0.15"/>
<path d="M544.388 575.739L645.45 635.453L667.472 632.557L549.763 569.207L544.388 575.739Z" stroke="white" stroke-opacity="0.15"/>
<path d="M634.418 385.048L626.342 338.234L610.237 306.83L615.001 349.125L634.418 385.048Z" stroke="white" stroke-opacity="0.15"/>
<path d="M298.873 412.27L212.759 337.554L198.059 338.807L289.399 410.409L298.873 412.27Z" stroke="white" stroke-opacity="0.15"/>
<path d="M382.752 192.024L423.126 179.666L386.599 175.701L340.068 186.481L382.752 192.024Z" stroke="white" stroke-opacity="0.15"/>
<path d="M651.577 472.309L641.359 415.116L634.418 385.048L644.04 440.82L651.577 472.309Z" stroke="white" stroke-opacity="0.15"/>
<path d="M198.059 338.807L86.1827 251.104L91.3703 272.634L193.047 345.859L198.059 338.807Z" stroke="white" stroke-opacity="0.15"/>
<path d="M615.001 349.125L610.237 306.83L584.078 273.657L582.565 309.687L615.001 349.125Z" stroke="white" stroke-opacity="0.15"/>
<path d="M445.496 508.236L546.504 556.479L532.707 536.955L436.5 498.441L445.496 508.236Z" stroke="white" stroke-opacity="0.15"/>
<path d="M433.218 208.454L464.737 192.406L423.126 179.666L382.752 192.024L433.218 208.454Z" stroke="white" stroke-opacity="0.15"/>
<path d="M284.093 199.446L340.068 186.481L307.621 190.668L249.381 203.472L284.093 199.446Z" stroke="white" stroke-opacity="0.15"/>
<path d="M582.565 309.687L584.078 273.657L549.11 241.542L538.647 270.345L582.565 309.687Z" stroke="white" stroke-opacity="0.15"/>
<path d="M312.113 416.991L238.345 343.617L212.759 337.554L298.873 412.27L312.113 416.991Z" stroke="white" stroke-opacity="0.15"/>
<path d="M487.054 235.335L508.067 213.572L464.737 192.406L433.218 208.454L487.054 235.335Z" stroke="white" stroke-opacity="0.15"/>
<path d="M538.647 270.345L549.11 241.542L508.068 213.572L487.054 235.335L538.647 270.345Z" stroke="white" stroke-opacity="0.15"/>
<path d="M644.041 440.82L634.418 385.048L615.001 349.125L620.819 400.79L644.041 440.82Z" stroke="white" stroke-opacity="0.15"/>
<path d="M436.5 498.441L532.707 536.955L507.135 510.768L423.554 486.714L436.5 498.441Z" stroke="white" stroke-opacity="0.15"/>
<path d="M549.763 569.207L667.472 632.558L677.817 619.195L546.504 556.479L549.763 569.207Z" stroke="white" stroke-opacity="0.15"/>
<path d="M328.646 424.54L274.876 358.045L238.345 343.617L312.113 416.991L328.646 424.54Z" stroke="white" stroke-opacity="0.15"/>
<path d="M333.031 207.239L382.752 192.024L340.068 186.481L284.093 199.446L333.031 207.239Z" stroke="white" stroke-opacity="0.15"/>
<path d="M663.561 539.399L651.577 472.309L644.04 440.82L655.699 508.396L663.561 539.399Z" stroke="white" stroke-opacity="0.15"/>
<path d="M423.554 486.714L507.135 510.769L470.001 479.158L407.173 473.642L423.554 486.714Z" stroke="white" stroke-opacity="0.15"/>
<path d="M620.819 400.791L615.001 349.125L582.565 309.688L580.682 354.588L620.819 400.791Z" stroke="white" stroke-opacity="0.15"/>
<path d="M212.759 337.554L96.8676 237.004L86.1831 251.104L198.059 338.807L212.759 337.554Z" stroke="white" stroke-opacity="0.15"/>
<path d="M347.635 434.628L320.643 380.862L274.876 358.045L328.646 424.54L347.635 434.628Z" stroke="white" stroke-opacity="0.15"/>
<path d="M215.486 215.341L284.093 199.446L249.381 203.473L180.254 218.669L215.486 215.341Z" stroke="white" stroke-opacity="0.15"/>
<path d="M393.723 228.558L433.218 208.454L382.752 192.024L333.031 207.239L393.723 228.558Z" stroke="white" stroke-opacity="0.15"/>
<path d="M407.174 473.642L470.001 479.158L423.516 444.637L388.242 460.008L407.174 473.642Z" stroke="white" stroke-opacity="0.15"/>
<path d="M367.946 446.707L371.923 410.665L320.643 380.862L347.635 434.628L367.946 446.707Z" stroke="white" stroke-opacity="0.15"/>
<path d="M388.242 460.008L423.516 444.637L371.923 410.666L367.946 446.707L388.242 460.008Z" stroke="white" stroke-opacity="0.15"/>
<path d="M580.682 354.588L582.565 309.687L538.647 270.345L525.449 306.666L580.682 354.588Z" stroke="white" stroke-opacity="0.15"/>
<path d="M460.505 262.831L487.054 235.335L433.218 208.454L393.723 228.558L460.505 262.831Z" stroke="white" stroke-opacity="0.15"/>
<path d="M525.448 306.666L538.646 270.345L487.054 235.335L460.505 262.831L525.448 306.666Z" stroke="white" stroke-opacity="0.15"/>
<path d="M655.699 508.396L644.041 440.82L620.819 400.791L628.084 465.337L655.699 508.396Z" stroke="white" stroke-opacity="0.15"/>
<path d="M677.817 619.196L663.561 539.4L655.699 508.396L670.116 591.967L677.817 619.196Z" stroke="white" stroke-opacity="0.15"/>
<path d="M546.504 556.479L677.817 619.195L670.116 591.966L532.707 536.955L546.504 556.479Z" stroke="white" stroke-opacity="0.15"/>
<path d="M270.295 226.438L333.031 207.239L284.093 199.446L215.486 215.341L270.295 226.438Z" stroke="white" stroke-opacity="0.15"/>
<path d="M129.418 235.278L215.486 215.341L180.254 218.669L96.8677 237.005L129.418 235.278Z" stroke="white" stroke-opacity="0.15"/>
<path d="M238.345 343.617L129.417 235.278L96.8672 237.004L212.758 337.555L238.345 343.617Z" stroke="white" stroke-opacity="0.15"/>
<path d="M628.084 465.337L620.819 400.791L580.682 354.588L578.268 412.098L628.084 465.337Z" stroke="white" stroke-opacity="0.15"/>
<path d="M342.795 254.488L393.724 228.558L333.031 207.239L270.296 226.438L342.795 254.488Z" stroke="white" stroke-opacity="0.15"/>
<path d="M578.268 412.098L580.682 354.588L525.449 306.666L508.289 353.897L578.268 412.098Z" stroke="white" stroke-opacity="0.15"/>
<path d="M425.896 298.674L460.505 262.831L393.724 228.558L342.795 254.488L425.896 298.674Z" stroke="white" stroke-opacity="0.15"/>
<path d="M508.289 353.897L525.449 306.666L460.505 262.832L425.896 298.675L508.289 353.897Z" stroke="white" stroke-opacity="0.15"/>
<path d="M670.116 591.967L655.699 508.396L628.084 465.337L637.42 548.266L670.116 591.967Z" stroke="white" stroke-opacity="0.15"/>
<path d="M532.707 536.955L670.116 591.966L637.42 548.266L507.135 510.769L532.707 536.955Z" stroke="white" stroke-opacity="0.15"/>
<path d="M188.662 251.421L270.295 226.438L215.486 215.341L129.418 235.278L188.662 251.421Z" stroke="white" stroke-opacity="0.15"/>
<path d="M274.875 358.045L188.662 251.421L129.418 235.278L238.345 343.617L274.875 358.045Z" stroke="white" stroke-opacity="0.15"/>
<path d="M637.42 548.265L628.084 465.337L578.268 412.098L575.07 488.387L637.42 548.265Z" stroke="white" stroke-opacity="0.15"/>
<path d="M507.135 510.768L637.42 548.265L575.07 488.387L470.001 479.158L507.135 510.768Z" stroke="white" stroke-opacity="0.15"/>
<path d="M274.624 289.197L342.795 254.488L270.296 226.438L188.662 251.421L274.624 289.197Z" stroke="white" stroke-opacity="0.15"/>
<path d="M320.643 380.862L274.624 289.197L188.662 251.421L274.876 358.045L320.643 380.862Z" stroke="white" stroke-opacity="0.15"/>
<path d="M575.07 488.387L578.268 412.098L508.289 353.896L485.063 417.813L575.07 488.387Z" stroke="white" stroke-opacity="0.15"/>
<path d="M470.001 479.158L575.07 488.387L485.063 417.812L423.516 444.637L470.001 479.158Z" stroke="white" stroke-opacity="0.15"/>
<path d="M378.91 347.341L425.896 298.674L342.795 254.488L274.624 289.197L378.91 347.341Z" stroke="white" stroke-opacity="0.15"/>
<path d="M371.923 410.665L378.91 347.341L274.624 289.197L320.643 380.861L371.923 410.665Z" stroke="white" stroke-opacity="0.15"/>
<path d="M485.063 417.812L508.289 353.896L425.895 298.674L378.909 347.341L485.063 417.812Z" stroke="white" stroke-opacity="0.15"/>
<path d="M423.516 444.637L485.063 417.813L378.909 347.341L371.923 410.665L423.516 444.637Z" stroke="white" stroke-opacity="0.15"/>
<path d="M129.418 235.278L238.345 343.617L303.392 408.316L309.454 414.344L312.113 416.991L365.379 469.971L450.393 515.727L454.316 517.839L549.763 569.207L667.472 632.558" stroke="white" stroke-opacity="0.15" stroke-linecap="round" stroke-linejoin="round"/>
<path d="M96.8674 237.004L212.759 337.554L238.345 343.617L274.876 358.045L320.643 380.862L371.923 410.665L423.516 444.637L470.001 479.158L575.07 488.387" stroke="white" stroke-opacity="0.15" stroke-linecap="round" stroke-linejoin="round"/>
<path d="M86.1831 251.104L198.059 338.807L289.399 410.409L365.379 469.971L451.337 520.758L544.388 575.739L645.45 635.453" stroke="white" stroke-opacity="0.15" stroke-linecap="round" stroke-linejoin="round"/>
<path d="M188.662 251.421L274.876 358.045L314.218 406.696L322.465 416.899L326.767 422.217L328.646 424.539L365.379 469.971L445.496 508.236L458.01 514.214L546.504 556.478L556.364 561.189L677.817 619.195" stroke="white" stroke-opacity="0.15" stroke-linecap="round" stroke-linejoin="round"/>
<path d="M91.3704 272.633L193.047 345.859L283.833 411.242L365.379 469.971L448.689 523.359L532.405 577.003L616.525 630.911" stroke="white" stroke-opacity="0.15" stroke-linecap="round" stroke-linejoin="round"/>
<path d="M107.204 297.995L188.555 352.185L196.027 357.163L282.042 414.459L365.379 469.971L423.554 486.714L433.249 489.507L507.135 510.769L637.42 548.266" stroke="white" stroke-opacity="0.15" stroke-linecap="round" stroke-linejoin="round"/>
<path d="M129.815 324.887L198.705 367.316L205.26 371.354L280.308 417.576L283.723 419.677L365.379 469.971L385.048 499.083L398.953 506.635L412.113 513.118L424.131 518.282L434.567 521.885L442.925 523.661L515.616 573.989L521.613 578.142L583.895 621.266" stroke="white" stroke-opacity="0.15" stroke-linecap="round" stroke-linejoin="round"/>
<path d="M637.42 548.265L575.07 488.387L485.064 417.812L378.91 347.341L274.624 289.197" stroke="white" stroke-opacity="0.15" stroke-linecap="round" stroke-linejoin="round"/>
<path d="M670.116 591.967L655.699 508.396L644.04 440.821L634.418 385.049L626.342 338.234L619.466 298.384L613.542 264.046L608.385 234.155L603.854 207.896L599.843 184.651L595.343 174.544L588.635 164.975L580.021 156.471L569.929 149.507L558.908 144.461L547.551 141.589L536.469 140.989L514.053 146.18L488.624 152.071L459.523 158.809L425.895 166.602L386.599 175.701L340.068 186.481L284.093 199.446L249.381 203.473L205.027 213.225L180.254 218.668" stroke="white" stroke-opacity="0.15" stroke-linecap="round" stroke-linejoin="round"/>
<path d="M575.07 488.387L578.268 412.098L508.289 353.896L425.895 298.674L342.795 254.488L274.623 289.197" stroke="white" stroke-opacity="0.15" stroke-linecap="round" stroke-linejoin="round"/>
<path d="M156.559 351.956L201.325 377.255L213.622 384.204L219.214 387.363L278.482 420.861L288.456 426.499L365.379 469.971L434.567 521.884L437.325 523.955L443.418 528.527L495.488 567.598L500.355 571.25L549.545 608.159" stroke="white" stroke-opacity="0.15" stroke-linecap="round" stroke-linejoin="round"/>
<path d="M129.418 235.278L188.662 251.421L274.623 289.197L320.643 380.862L346.714 432.791L347.635 434.628L365.379 469.971L442.925 523.661L448.689 523.359L451.337 520.758L450.393 515.727L445.496 508.236L436.5 498.441L423.554 486.714L407.174 473.642L365.379 469.971L328.944 462.499L316.449 452.827L305.264 443.41L295.79 434.525L288.456 426.499L283.723 419.677L282.042 414.459L283.833 411.242L289.399 410.409L298.873 412.27L312.113 416.991L328.646 424.54L347.635 434.628L367.946 446.707L388.242 460.008L423.516 444.637L485.063 417.813L508.289 353.896L525.448 306.666L538.647 270.345L549.11 241.542L557.613 218.145L564.653 198.758L570.586 182.436L575.647 168.5L580.021 156.471L583.833 145.974L587.187 136.737L590.163 128.547" stroke="white" stroke-opacity="0.15" stroke-linecap="round" stroke-linejoin="round"/>
<path d="M185.755 378.486L232.004 402.04L236.641 404.401L276.381 424.643L293.07 433.142L295.79 434.525L365.379 469.971L412.113 513.118L413.874 514.741L417.744 518.313L449.377 547.517L452.212 550.134L479.788 575.59" stroke="white" stroke-opacity="0.15" stroke-linecap="round" stroke-linejoin="round"/>
<path d="M670.116 591.966L637.42 548.265L628.084 465.337L620.819 400.791L615.001 349.125L610.237 306.83L606.268 271.571L602.907 241.726L600.026 216.139L597.528 193.957L595.343 174.543L593.414 157.411L589.208 151.325L583.833 145.974L577.538 141.623L570.635 138.49L563.461 136.718L547.551 141.588L529.467 147.123L508.728 153.468L484.708 160.822L456.562 169.432L423.126 179.666L382.752 192.024L333.031 207.239L284.093 199.446L215.486 215.341L129.418 235.278L96.8674 237.004" stroke="white" stroke-opacity="0.15" stroke-linecap="round" stroke-linejoin="round"/>
<path d="M216.369 404.129L252.857 420.254L256.586 421.9L297.956 440.179L305.264 443.41L365.379 469.971L424.131 518.282L426.404 520.15L473.138 558.58L476.946 561.712L514.63 592.7" stroke="white" stroke-opacity="0.15" stroke-linecap="round" stroke-linejoin="round"/>
<path d="M247.811 428.776L278.337 439.472L314.63 452.189L316.449 452.827L365.379 469.971L398.953 506.635L400.195 507.991L424.799 534.865L445.316 557.269" stroke="white" stroke-opacity="0.15" stroke-linecap="round" stroke-linejoin="round"/>
<path d="M641.359 415.116L634.418 385.048L615.001 349.125L582.565 309.687L538.647 270.345L487.054 235.335L433.219 208.454L382.753 192.024L340.068 186.481L307.621 190.668" stroke="white" stroke-opacity="0.15" stroke-linecap="round" stroke-linejoin="round"/>
<path d="M632.546 365.777L626.342 338.235L610.237 306.83L584.078 273.657L549.109 241.543L508.067 213.573L464.737 192.406L423.126 179.666L386.599 175.701L357.353 179.735" stroke="white" stroke-opacity="0.15" stroke-linecap="round" stroke-linejoin="round"/>
<path d="M624.864 322.782L619.467 298.384L606.269 271.571L585.316 244.102L557.613 218.145L525.116 195.92L490.48 179.299L456.563 169.432L425.896 166.602L400.317 170.288" stroke="white" stroke-opacity="0.15" stroke-linecap="round" stroke-linejoin="round"/>
<path d="M279.762 452.41L301.367 456.841L328.944 462.499L342.39 472.179L356.437 481.645L370.765 490.683L385.048 499.083L385.767 500.145L399.824 520.949L411.326 537.974" stroke="white" stroke-opacity="0.15" stroke-linecap="round" stroke-linejoin="round"/>
<path d="M618.11 284.984L613.542 264.046L602.907 241.726L586.351 219.425L564.653 198.759L539.216 181.313L511.895 168.397L484.708 160.822L459.523 158.809L437.806 162.045" stroke="white" stroke-opacity="0.15" stroke-linecap="round" stroke-linejoin="round"/>
<path d="M590.163 128.547L575.219 131.836L573.806 132.241L556.371 136.378L549.694 137.447L539.785 139.625L534.158 140.863L526.209 142.608" stroke="white" stroke-opacity="0.15" stroke-linecap="round" stroke-linejoin="round"/>
<path d="M612.128 251.486L608.384 234.154L600.026 216.139L587.229 198.51L570.585 182.435L551.081 169.027L529.994 159.183L508.728 153.468L488.624 152.07L470.803 154.79" stroke="white" stroke-opacity="0.15" stroke-linecap="round" stroke-linejoin="round"/>
<path d="M590.163 128.547L573.806 132.241L570.906 132.783" stroke="white" stroke-opacity="0.15" stroke-linecap="round" stroke-linejoin="round"/>
<path d="M590.163 128.547L577.569 132.401L574.165 132.256L570.906 132.783L558.533 135.503L554.885 136.305L549.694 137.447" stroke="white" stroke-opacity="0.15" stroke-linecap="round" stroke-linejoin="round"/>
<path d="M590.163 128.547L580.976 133.226L577.569 132.401L563.461 136.718L556.371 136.378L536.469 140.989L526.209 142.608L510.864 145.985L500.072 148.357" stroke="white" stroke-opacity="0.15" stroke-linecap="round" stroke-linejoin="round"/>
<path d="M344.766 496.883L349.835 490.263L356.436 481.645L365.379 469.971" stroke="white" stroke-opacity="0.15" stroke-linecap="round" stroke-linejoin="round"/>
<path d="M597.669 170.548L596.268 163.924L593.414 157.411L591.699 142.18L590.163 128.547" stroke="white" stroke-opacity="0.15" stroke-linecap="round" stroke-linejoin="round"/>
<path d="M677.817 619.195L673.172 593.189L663.561 539.399L655.699 508.396L628.084 465.337L578.268 412.098L580.682 354.588L582.565 309.687L584.078 273.657L585.316 244.102L586.351 219.425L587.229 198.51L587.982 180.556L588.635 164.974L589.208 151.326L589.716 139.273L587.187 136.737L584.235 134.693L580.976 133.226L570.635 138.49L558.908 144.461L545.488 151.295L529.994 159.183L511.895 168.397L490.48 179.299L464.737 192.406L433.218 208.454L393.723 228.558L342.795 254.488L270.295 226.438L215.486 215.341L180.254 218.668L124.944 230.831L96.8675 237.004L86.1829 251.104L91.3705 272.633L107.204 297.994L129.815 324.887L156.559 351.956L185.755 378.486L216.369 404.129L247.811 428.776L279.761 452.41L312.09 475.093L344.766 496.883L377.825 517.835L411.326 537.975L445.316 557.269L479.788 575.59L514.63 592.7L549.545 608.159L583.895 621.266L616.525 630.911L645.45 635.453L667.472 632.558L677.817 619.195ZM677.817 619.195L670.116 591.966L542.516 540.882L532.707 536.955L440.014 499.847L436.5 498.441L365.379 469.971L298.873 412.27L295.653 409.474L212.759 337.554L198.059 338.807L193.047 345.859L196.027 357.162L205.26 371.354L219.214 387.363L236.641 404.401L256.585 421.9L278.337 439.472L301.367 456.842L325.296 473.825L342.39 472.179L365.379 469.971L388.242 460.008L407.174 473.642L470.001 479.158L507.135 510.768L532.707 536.955L546.504 556.479L549.763 569.207L544.388 575.739L532.405 577.003L515.616 573.989L495.488 567.599L473.137 558.58L449.377 547.517L424.799 534.865L399.824 520.949L374.753 506.02L370.765 490.683L365.379 469.971L367.946 446.707L371.923 410.665L378.91 347.341L425.896 298.674L460.505 262.831L487.054 235.335L508.068 213.572L525.116 195.92L539.216 181.313L551.081 169.027L561.2 158.549L569.929 149.507L577.538 141.623L584.235 134.693L590.163 128.547" stroke="white" stroke-opacity="0.15" stroke-linecap="round" stroke-linejoin="round"/>
<path d="M663.561 539.399L658.919 513.419L651.577 472.309L644.04 440.82L620.819 400.791L580.682 354.588L525.448 306.666L460.505 262.831L393.723 228.558L333.031 207.239L270.295 226.438L188.662 251.421" stroke="white" stroke-opacity="0.15" stroke-linecap="round" stroke-linejoin="round"/>
<path d="M651.577 472.309L646.802 445.58L641.359 415.116L636.763 389.384L632.546 365.777L628.31 342.074L624.864 322.783L621.097 301.696L618.11 284.984L614.867 266.831L612.128 251.486L609.435 236.42L606.788 221.598L603.854 207.896L597.528 193.957L587.982 180.556L575.647 168.5L561.2 158.549L545.488 151.295L529.467 147.124L514.053 146.18L500.072 148.358L484.49 151.78L470.803 154.79L454.385 158.4L437.806 162.045L419.696 166.025L400.317 170.288L357.353 179.735L331.637 185.389L307.621 190.668L274.574 197.934L249.381 203.473" stroke="white" stroke-opacity="0.15" stroke-linecap="round" stroke-linejoin="round"/>
<path d="M606.788 221.598L604.656 209.665L601.993 194.767L599.843 184.651L596.451 164.34L593.742 148.575L593.059 145.324L591.699 142.18L589.716 139.273L590.163 128.547" stroke="white" stroke-opacity="0.15" stroke-linecap="round" stroke-linejoin="round"/>
<path d="M601.994 194.767L600.416 185.939L597.669 170.548L596.451 164.34L595.721 160.746L593.147 145.531L592.917 143.964L590.163 128.547" stroke="white" stroke-opacity="0.15" stroke-linecap="round" stroke-linejoin="round"/>
<path d="M593.743 148.575L593.147 145.531L592.791 143.781L590.163 128.547" stroke="white" stroke-opacity="0.15" stroke-linecap="round" stroke-linejoin="round"/>
</g>
<defs>
<clipPath id="clip0_180_14500">
<rect width="764" height="764" fill="white" transform="matrix(-1 0 0 1 764 0)"/>
</clipPath>
</defs>
</svg>
