<svg width="764" height="764" viewBox="0 0 764 764" fill="none" xmlns="http://www.w3.org/2000/svg">
<g clip-path="url(#clip0_180_14505)">
<path d="M361.433 333.326L330.522 355.589L301.566 376.438L300.046 410.115" stroke="white" stroke-opacity="0.15" stroke-linecap="round" stroke-linejoin="round"/>
<path d="M329.994 389.652L362.636 409.08L393.303 427.34L422.179 444.53L449.408 460.738L475.131 476.052L499.469 490.538L522.53 504.267L544.411 517.297L565.203 529.674L584.983 541.447L615.75 529.009" stroke="white" stroke-opacity="0.15" stroke-linecap="round" stroke-linejoin="round"/>
<path d="M360.864 301.291L331.01 323.814L302.983 344.961L276.625 364.848L274.387 396.012L271.999 429.28" stroke="white" stroke-opacity="0.15" stroke-linecap="round" stroke-linejoin="round"/>
<path d="M300.046 410.115L332.55 428.31L363.156 445.443L392.02 461.601L419.287 476.87L445.091 491.313L469.543 505L492.746 517.992L514.795 530.334L535.774 542.081L565.203 529.674L596.222 516.598" stroke="white" stroke-opacity="0.15" stroke-linecap="round" stroke-linejoin="round"/>
<path d="M360.337 271.407L331.469 294.113L304.313 315.471L278.726 335.599L254.569 354.599L251.788 383.589L248.827 414.42L245.676 447.265" stroke="white" stroke-opacity="0.15" stroke-linecap="round" stroke-linejoin="round"/>
<path d="M271.999 429.28L304.32 446.356L334.812 462.465L363.614 477.683L390.874 492.085L416.709 505.734L441.229 518.687L464.527 530.995L486.695 542.708L507.816 553.866L535.774 542.081L555.757 553.266L584.983 541.447" stroke="white" stroke-opacity="0.15" stroke-linecap="round" stroke-linejoin="round"/>
<path d="M359.84 243.464L331.897 266.285L305.561 287.787L280.701 308.091L257.189 327.29L234.922 345.473L213.805 362.717L193.75 379.093L189.586 405.715L185.189 433.837L180.537 463.599L175.601 495.145" stroke="white" stroke-opacity="0.15" stroke-linecap="round" stroke-linejoin="round"/>
<path d="M245.675 447.265L277.779 463.324L308.113 478.493L336.821 492.853L364.027 506.463L389.85 519.379L414.393 531.652L437.749 543.334L459.996 554.461L486.694 542.707L514.794 530.334L544.411 517.297L575.666 503.533" stroke="white" stroke-opacity="0.15" stroke-linecap="round" stroke-linejoin="round"/>
<path d="M359.378 217.282L332.302 240.152L306.738 261.75L305.562 287.787L304.313 315.471L302.983 344.961L301.566 376.438L274.387 396.012L248.827 414.42L224.746 431.759L202.021 448.128L197.609 480.109" stroke="white" stroke-opacity="0.15" stroke-linecap="round" stroke-linejoin="round"/>
<path d="M220.922 464.18L252.777 479.303L282.92 493.62L311.498 507.189L338.62 520.07L364.397 532.309L388.929 543.96L412.304 555.058L434.597 565.647L459.997 554.462L481.217 565.077L507.815 553.866L527.958 564.508L555.756 553.266" stroke="white" stroke-opacity="0.15" stroke-linecap="round" stroke-linejoin="round"/>
<path d="M358.942 192.696L332.68 215.574L307.842 237.214L284.319 257.709L262.002 277.152L259.664 301.516L237.944 319.864L217.316 337.291L197.696 353.862L179.017 369.642L161.208 384.685L156.521 409.496L139.212 423.63L133.956 449.473" stroke="white" stroke-opacity="0.15" stroke-linecap="round" stroke-linejoin="round"/>
<path d="M197.608 480.109L229.185 494.384L259.114 507.915L287.531 520.758L314.539 532.966L340.24 544.583L364.733 555.653L388.093 566.212L412.304 555.058L437.749 543.334L464.527 530.995L492.745 517.992L522.53 504.267L554.007 489.766" stroke="white" stroke-opacity="0.15" stroke-linecap="round" stroke-linejoin="round"/>
<path d="M358.53 169.566L333.039 192.41L308.889 214.054L285.977 234.582L284.319 257.709L282.561 282.172L259.664 301.516L257.189 327.29L254.568 354.599L231.729 372.568L210.1 389.579L189.586 405.714L170.108 421.033L151.589 435.602L146.39 463.11L128.424 476.667L122.595 505.325" stroke="white" stroke-opacity="0.15" stroke-linecap="round" stroke-linejoin="round"/>
<path d="M394.763 388.548L393.028 354.466L361.433 333.326" stroke="white" stroke-opacity="0.15" stroke-linecap="round" stroke-linejoin="round"/>
<path d="M175.601 495.145L206.883 508.637L236.584 521.445L264.814 533.62L291.68 545.206L317.285 556.246L341.71 566.781L364.733 555.653L388.929 543.96L414.393 531.652L441.229 518.687L469.543 505L499.469 490.538L531.144 475.231" stroke="white" stroke-opacity="0.15" stroke-linecap="round" stroke-linejoin="round"/>
<path d="M425.437 408.045L422.721 374.329L420.181 342.818L417.801 313.305L415.57 285.606L413.469 259.558L411.49 235.014L409.622 211.853L407.857 189.957L406.188 169.226L382.569 148.716L357.781 127.183" stroke="white" stroke-opacity="0.15" stroke-linecap="round" stroke-linejoin="round"/>
<path d="M454.263 426.366L450.676 393.032L447.318 361.823L444.17 332.531L441.206 304.997L438.417 279.055L435.785 254.58L433.299 231.446L430.942 209.546L428.711 188.788L406.188 169.226L404.603 149.572L381.576 129.143" stroke="white" stroke-opacity="0.15" stroke-linecap="round" stroke-linejoin="round"/>
<path d="M154.802 509.359L185.778 522.129L215.223 534.269L243.25 545.825L269.959 556.838L295.443 567.346L319.776 577.378L341.711 566.781L365.035 576.839L388.093 566.212L410.406 576.301L434.598 565.647L455.887 575.758L481.217 565.077L501.482 575.212L527.958 564.508" stroke="white" stroke-opacity="0.15" stroke-linecap="round" stroke-linejoin="round"/>
<path d="M481.393 443.613L477.042 410.677L472.962 379.777L469.13 350.73L465.517 323.378L462.109 297.571L458.889 273.187L455.844 250.107L452.953 228.23L430.942 209.546L407.858 189.957L383.62 169.387L358.144 147.765" stroke="white" stroke-opacity="0.15" stroke-linecap="round" stroke-linejoin="round"/>
<path d="M357.781 127.183L333.696 149.87L333.375 170.544L333.039 192.41L332.68 215.574L332.302 240.152L331.897 266.285L331.469 294.113L331.011 323.814L330.522 355.589L329.995 389.651L300.046 410.115L271.999 429.28L245.676 447.265L220.922 464.18" stroke="white" stroke-opacity="0.15" stroke-linecap="round" stroke-linejoin="round"/>
<path d="M135.113 522.813L165.769 534.919L194.946 546.443L215.222 534.269L236.584 521.445L259.114 507.915L282.92 493.621L308.113 478.493L334.811 462.465L363.156 445.443L393.303 427.34L425.437 408.045" stroke="white" stroke-opacity="0.15" stroke-linecap="round" stroke-linejoin="round"/>
<path d="M506.975 459.871L501.956 427.343L497.234 396.772L492.791 367.984L488.597 340.832L484.636 315.177L480.888 290.901L477.336 267.897L473.966 246.065L470.765 225.315L450.214 207.464L447.608 187.73L426.591 169.085" stroke="white" stroke-opacity="0.15" stroke-linecap="round" stroke-linejoin="round"/>
<path d="M531.144 475.231L525.525 443.112L520.238 412.877L515.253 384.361L510.539 357.426L506.085 331.939L501.86 307.793L497.857 284.876L494.048 263.106L473.966 246.065L452.952 228.23L450.214 207.464L428.711 188.788L426.591 169.085L404.603 149.572" stroke="white" stroke-opacity="0.15" stroke-linecap="round" stroke-linejoin="round"/>
<path d="M357.434 107.72L333.998 130.289L333.696 149.87L310.811 171.423L289.04 191.928L268.305 211.456L248.533 230.082L246.084 250.821L226.797 268.558L223.799 290.309L220.639 313.187L217.316 337.291L213.805 362.717L210.1 389.579L206.177 418.004L202.021 448.128L180.537 463.599L160.196 478.249L140.908 492.138L122.595 505.325L116.445 535.568" stroke="white" stroke-opacity="0.15" stroke-linecap="round" stroke-linejoin="round"/>
<path d="M116.445 535.568L146.772 547.062L165.769 534.919L185.778 522.129L206.884 508.637L229.185 494.385L252.777 479.303L277.779 463.324L304.32 446.356L332.55 428.31L362.637 409.08L394.763 388.548" stroke="white" stroke-opacity="0.15" stroke-linecap="round" stroke-linejoin="round"/>
<path d="M554.007 489.766L547.864 458.06L542.073 428.165L536.603 399.927L531.427 373.222L526.526 347.918L521.877 323.909L501.86 307.793L480.888 290.901L458.889 273.187L435.785 254.58L411.49 235.014L385.912 214.413L358.942 192.696" stroke="white" stroke-opacity="0.15" stroke-linecap="round" stroke-linejoin="round"/>
<path d="M575.666 503.533L569.061 472.24L562.823 442.692L556.925 414.745L551.336 388.272L531.427 373.222L510.539 357.426L488.597 340.832L465.516 323.378L441.206 304.996L415.57 285.606L388.486 265.127L359.84 243.464" stroke="white" stroke-opacity="0.15" stroke-linecap="round" stroke-linejoin="round"/>
<path d="M596.222 516.598L589.204 485.721L582.569 456.517L562.823 442.692L542.073 428.165L520.238 412.877L497.234 396.772L472.962 379.777L447.318 361.823L420.181 342.818L391.412 322.679L360.864 301.291" stroke="white" stroke-opacity="0.15" stroke-linecap="round" stroke-linejoin="round"/>
<path d="M615.75 529.009L608.369 498.541L589.204 485.721L569.061 472.24L547.864 458.06L525.525 443.112L501.956 427.343L477.041 410.677L450.676 393.032L422.721 374.329L393.028 354.465L391.412 322.679L389.903 292.963L388.486 265.127L387.161 238.995L385.912 214.413L384.735 191.252L383.62 169.386L382.569 148.716L381.576 129.143L357.433 107.72" stroke="white" stroke-opacity="0.15" stroke-linecap="round" stroke-linejoin="round"/>
<path d="M333.998 130.289L311.696 151.761L310.81 171.423L309.874 192.158L308.889 214.054L307.842 237.214L306.738 261.75L282.561 282.172L280.701 308.091L278.726 335.599L276.625 364.848L251.787 383.589L228.34 401.28L206.177 418.004L185.189 433.837L165.287 448.854L146.39 463.11L140.908 492.138L135.113 522.813" stroke="white" stroke-opacity="0.15" stroke-linecap="round" stroke-linejoin="round"/>
<path d="M146.772 547.062L175.674 558.018L194.946 546.443L222.755 557.43L243.25 545.825L264.814 533.62L287.531 520.758L311.498 507.189L336.821 492.853L363.614 477.683L392.02 461.601L422.179 444.53L454.263 426.365" stroke="white" stroke-opacity="0.15" stroke-linecap="round" stroke-linejoin="round"/>
<path d="M608.369 498.541L601.386 469.692L582.569 456.517L576.289 428.864L556.925 414.745L536.603 399.927L515.253 384.361L492.791 367.984L469.13 350.73L444.17 332.531L417.801 313.305L389.903 292.963L360.337 271.407" stroke="white" stroke-opacity="0.15" stroke-linecap="round" stroke-linejoin="round"/>
<path d="M175.674 558.018L203.255 568.469L229.597 578.455L249.289 567.908L274.631 577.916L295.443 567.346L317.285 556.245L340.24 544.583L364.397 532.309L389.85 519.379L416.708 505.734L445.091 491.313L475.132 476.052L506.975 459.871" stroke="white" stroke-opacity="0.15" stroke-linecap="round" stroke-linejoin="round"/>
<path d="M311.697 151.761L290.458 172.213L270.2 191.718L250.859 210.341L232.378 228.138L229.655 247.861L226.797 268.557L208.389 285.492L205 307.151L201.44 329.914L197.697 353.862L193.75 379.093L174.677 394.667L170.109 421.033L165.288 448.854L160.196 478.249L154.802 509.359" stroke="white" stroke-opacity="0.15" stroke-linecap="round" stroke-linejoin="round"/>
<path d="M601.386 469.692L594.759 442.333L576.289 428.864L570.326 402.636L551.337 388.273L546.034 363.16L526.526 347.918L506.085 331.939L484.636 315.177L462.109 297.57L438.417 279.055L413.469 259.558L387.161 238.995L359.378 217.282" stroke="white" stroke-opacity="0.15" stroke-linecap="round" stroke-linejoin="round"/>
<path d="M229.597 578.455L254.782 588.001L274.631 577.916L298.861 587.489L319.776 577.378L343.044 586.974L365.035 576.839L387.336 586.458L410.405 576.301L431.733 585.938L455.886 575.758L476.239 585.423L501.482 575.212" stroke="white" stroke-opacity="0.15" stroke-linecap="round" stroke-linejoin="round"/>
<path d="M594.759 442.333L588.467 416.353L570.326 402.636L564.669 377.725L546.035 363.16L541 339.308L521.877 323.909L517.457 301.104L497.857 284.876L477.336 267.897L455.844 250.107L433.299 231.446L409.622 211.853L384.735 191.252L358.53 169.566" stroke="white" stroke-opacity="0.15" stroke-linecap="round" stroke-linejoin="round"/>
<path d="M254.782 588.001L278.89 597.139L298.861 587.489L322.049 596.646L343.044 586.974L365.31 596.153L387.336 586.458L408.675 595.66L431.732 585.938L452.143 595.164L476.239 585.423" stroke="white" stroke-opacity="0.15" stroke-linecap="round" stroke-linejoin="round"/>
<path d="M588.467 416.353L582.485 391.649L564.669 377.726L559.286 354.034L541 339.308L536.21 316.621L517.457 301.104L513.255 279.406L494.048 263.106L490.427 242.391L470.765 225.315L467.717 205.573L447.609 187.73" stroke="white" stroke-opacity="0.15" stroke-linecap="round" stroke-linejoin="round"/>
<path d="M278.89 597.138L301.986 605.89L322.049 596.646L344.266 605.42L365.31 596.153L386.641 604.947L408.675 595.66L429.116 604.473L452.143 595.164" stroke="white" stroke-opacity="0.15" stroke-linecap="round" stroke-linejoin="round"/>
<path d="M232.378 228.138L214.695 245.164L197.761 261.468L194.358 281.106L190.793 301.669L187.057 323.229L183.138 345.859L179.016 369.642L174.677 394.667L156.52 409.497L151.589 435.602L133.956 449.473L128.424 476.667" stroke="white" stroke-opacity="0.15" stroke-linecap="round" stroke-linejoin="round"/>
<path d="M582.485 391.649L576.793 368.133L559.286 354.034L554.16 331.48L536.209 316.621L531.648 295.019L513.255 279.406L509.252 258.744L490.427 242.39L486.973 222.664L467.717 205.573" stroke="white" stroke-opacity="0.15" stroke-linecap="round" stroke-linejoin="round"/>
<path d="M301.986 605.89L324.131 614.287L344.266 605.42L365.566 613.832L386.641 604.947L407.093 613.381L429.116 604.473" stroke="white" stroke-opacity="0.15" stroke-linecap="round" stroke-linejoin="round"/>
<path d="M576.793 368.133L571.361 345.718L554.159 331.481L549.274 309.978L531.648 295.019L527.301 274.421L523.149 254.764L505.435 239.044L486.973 222.664" stroke="white" stroke-opacity="0.15" stroke-linecap="round" stroke-linejoin="round"/>
<path d="M324.13 614.287L345.385 622.343L365.566 613.832L386.003 621.908L407.093 613.381" stroke="white" stroke-opacity="0.15" stroke-linecap="round" stroke-linejoin="round"/>
<path d="M197.761 261.468L181.534 277.095L165.964 292.089L161.998 311.586L157.854 331.966" stroke="white" stroke-opacity="0.15" stroke-linecap="round" stroke-linejoin="round"/>
<path d="M203.255 568.469L222.756 557.43L249.289 567.908L269.959 556.838L291.68 545.206L314.539 532.966L338.62 520.07L364.027 506.463L390.874 492.085L419.287 476.87L449.408 460.738L481.393 443.613" stroke="white" stroke-opacity="0.15" stroke-linecap="round" stroke-linejoin="round"/>
<path d="M561.234 303.896L544.614 289.457L540.159 269.853" stroke="white" stroke-opacity="0.15" stroke-linecap="round" stroke-linejoin="round"/>
<path d="M571.361 345.718L566.185 324.33L549.274 309.978L544.614 289.457L527.301 274.421L509.252 258.744L505.436 239.044" stroke="white" stroke-opacity="0.15" stroke-linecap="round" stroke-linejoin="round"/>
<path d="M345.385 622.343L365.796 630.078L386.003 621.907" stroke="white" stroke-opacity="0.15" stroke-linecap="round" stroke-linejoin="round"/>
<path d="M358.144 147.765L358.53 169.566L358.942 192.696L359.378 217.282L359.84 243.464L360.337 271.407L360.864 301.291L361.433 333.326L362.044 367.752L394.763 388.548L425.437 408.045L454.263 426.366L481.392 443.613L506.975 459.871L531.144 475.231L554.007 489.766L575.666 503.533L596.222 516.598L615.75 529.009" stroke="white" stroke-opacity="0.15" stroke-linecap="round" stroke-linejoin="round"/>
<path d="M566.185 324.329L561.234 303.896L556.505 284.357L540.159 269.852L523.149 254.763" stroke="white" stroke-opacity="0.15" stroke-linecap="round" stroke-linejoin="round"/>
<path d="M214.695 245.164L211.616 264.852L194.358 281.106L177.836 296.669L173.966 317.148L157.854 331.966L153.518 353.289" stroke="white" stroke-opacity="0.15" stroke-linecap="round" stroke-linejoin="round"/>
<path d="M181.534 277.095L177.836 296.669L161.998 311.586" stroke="white" stroke-opacity="0.15" stroke-linecap="round" stroke-linejoin="round"/>
<path d="M250.859 210.341L248.533 230.083L229.655 247.861L211.617 264.852L208.389 285.492L190.794 301.669L173.967 317.148L169.914 338.593L153.518 353.289L148.976 375.625" stroke="white" stroke-opacity="0.15" stroke-linecap="round" stroke-linejoin="round"/>
<path d="M270.2 191.718L268.305 211.456L266.311 232.218L264.214 254.087L243.513 272.637L223.798 290.309L205 307.151L187.057 323.229L169.913 338.593L165.665 361.082L148.976 375.625L144.212 399.045" stroke="white" stroke-opacity="0.15" stroke-linecap="round" stroke-linejoin="round"/>
<path d="M290.458 172.213L289.04 191.928L287.551 212.686L285.977 234.583L264.214 254.087L262.002 277.153L240.801 295.622L220.639 313.187L201.44 329.914L183.138 345.859L165.666 361.082L161.208 384.686L144.213 399.045L139.212 423.63" stroke="white" stroke-opacity="0.15" stroke-linecap="round" stroke-linejoin="round"/>
<path d="M357.433 107.72L357.781 127.183L358.144 147.765L333.375 170.544L309.874 192.157L287.55 212.686L266.311 232.218L246.084 250.821L243.513 272.637L240.801 295.622L237.944 319.864L234.922 345.473L231.729 372.568L228.34 401.28L224.746 431.759L220.922 464.18L197.609 480.109L175.601 495.145L154.802 509.359L135.113 522.813L116.445 535.568" stroke="white" stroke-opacity="0.15" stroke-linecap="round" stroke-linejoin="round"/>
<path d="M116.445 535.568L146.772 547.062L175.674 558.018L203.251 568.469L229.593 578.455L254.782 588.001L278.891 597.139L301.986 605.894L324.131 614.287L345.385 622.343L365.799 630.082L386.007 621.911L407.094 613.385L429.116 604.481L452.143 595.171L476.239 585.426L501.486 575.219L527.962 564.512L555.76 553.27L584.987 541.451L615.753 529.013L596.226 516.602L575.674 503.537L554.011 489.77L531.148 475.239L506.983 459.878L481.396 443.617L454.267 426.373L425.445 408.052L394.766 388.555L362.048 367.759L329.998 389.659L300.049 410.123L271.999 429.288L245.676 447.272L220.926 464.183L197.609 480.117L175.605 495.152L154.805 509.363C154.802 509.359 135.113 522.813 116.445 535.568Z" stroke="white" stroke-opacity="0.15" stroke-linecap="round" stroke-linejoin="round"/>
<path d="M556.505 284.357L540.16 269.852L523.149 254.763L505.436 239.044L486.974 222.664L467.717 205.573L447.609 187.73L426.591 169.085L404.603 149.572L381.576 129.143L357.434 107.72L333.998 130.289L311.697 151.761L290.458 172.213L270.2 191.718L250.86 210.341L232.378 228.138L214.696 245.164L197.762 261.468L181.534 277.095L165.964 292.089" stroke="white" stroke-opacity="0.15" stroke-linecap="round" stroke-linejoin="round"/>
<path d="M116.445 535.568L122.595 505.325L128.425 476.667L133.956 449.473L139.212 423.63L144.213 399.045L148.976 375.624L153.518 353.289L157.854 331.966L161.999 311.586L165.964 292.089L181.534 277.095L197.761 261.468L214.696 245.164L232.378 228.138L250.859 210.341L270.2 191.718L290.458 172.213L311.701 151.761L334.002 130.289L357.437 107.72L357.781 127.183L358.144 147.765L358.53 169.566L358.939 192.696L359.374 217.282L359.84 243.464L360.337 271.407L360.868 301.291L361.433 333.326L362.044 367.751L329.995 389.652L300.046 410.115L271.996 429.28L245.672 447.265L220.922 464.176L197.605 480.109L175.602 495.145L154.802 509.355C154.802 509.359 135.113 522.813 116.445 535.568Z" stroke="white" stroke-opacity="0.15" stroke-linecap="round" stroke-linejoin="round"/>
<path d="M556.505 284.357L561.234 303.896L566.185 324.329L571.361 345.718L576.793 368.133L582.485 391.649L588.467 416.353L594.759 442.333L601.386 469.692L608.369 498.54L615.75 529.009L584.983 541.447L555.756 553.266L527.958 564.508L501.482 575.212L476.239 585.423L452.143 595.164L429.116 604.473L407.093 613.381L386.003 621.907L365.795 630.078" stroke="white" stroke-opacity="0.15" stroke-linecap="round" stroke-linejoin="round"/>
<path d="M116.445 535.568L122.595 505.325L128.425 476.667L133.956 449.473L139.212 423.63L144.213 399.045L148.976 375.624L153.518 353.289L157.854 331.966L161.999 311.586L165.964 292.089" stroke="white" stroke-opacity="0.15" stroke-linecap="round" stroke-linejoin="round"/>
<path d="M362.044 367.751L361.433 333.326L360.868 301.291L360.337 271.407L359.84 243.464L359.374 217.282L358.939 192.696L358.53 169.566L358.144 147.765L357.781 127.183L357.437 107.72L381.58 129.143L404.607 149.576L426.595 169.085L447.612 187.734L467.721 205.577L486.981 222.668L505.443 239.048L523.157 254.763L540.167 269.856L556.513 284.361L561.242 303.9L566.189 324.333L571.369 345.722L576.797 368.137L582.493 391.657L588.475 416.361L594.766 442.341L601.39 469.7L608.377 498.548L615.753 529.017L596.226 516.605L575.674 503.541L554.011 489.774L531.148 475.242L506.983 459.882L481.396 443.62L454.267 426.377L425.445 408.056C425.437 408.045 394.763 388.548 362.044 367.751Z" stroke="white" stroke-opacity="0.15" stroke-linecap="round" stroke-linejoin="round"/>
</g>
<defs>
<clipPath id="clip0_180_14505">
<rect width="764" height="764" fill="white" transform="matrix(-1 0 0 1 764 0)"/>
</clipPath>
</defs>
</svg>
