<svg width="764" height="764" viewBox="0 0 764 764" fill="none" xmlns="http://www.w3.org/2000/svg">
<g clip-path="url(#clip0_180_14499)">
<path d="M415.933 620.391L452.193 615.368L458.782 608.694L463.721 595.782L466.781 577.229L467.816 553.9L466.781 526.893L463.721 497.467L458.782 467.003L452.193 436.912L444.266 408.618L435.366 383.432L425.907 362.537L416.342 346.909L407.109 337.275L398.644 334.093" stroke="white" stroke-opacity="0.15" stroke-linecap="round" stroke-linejoin="round"/>
<path d="M613.48 327.886L588.135 311.361L559.687 299.389L529.467 292.532L498.892 291.107L469.382 295.179L443.842 304.038L442.658 304.45L442.329 304.565L427.645 313.53L419.913 318.252L418.989 318.817L417.495 322.408L415.051 325.815L411.712 328.963" stroke="white" stroke-opacity="0.15" stroke-linecap="round" stroke-linejoin="round"/>
<path d="M559.688 266.299L529.467 264.966L498.892 269.134L469.383 278.604L442.329 292.936L418.989 311.46L406.039 326.728L400.458 333.306L400.504 333.65" stroke="white" stroke-opacity="0.15" stroke-linecap="round" stroke-linejoin="round"/>
<path d="M477.16 238.841L452.991 255.752L430.827 276.908L411.712 301.314L396.531 327.836L393.873 334.754" stroke="white" stroke-opacity="0.15" stroke-linecap="round" stroke-linejoin="round"/>
<path d="M117.255 395.546L133.765 418.561L156.311 439.8L184.33 458.744L217.14 474.921L253.927 487.936L293.789 497.467L335.744 503.285L378.757 505.237L421.77 503.285L463.721 497.467L503.583 487.936L540.374 474.921L573.18 458.744L601.199 439.8L623.745 418.561L640.255 395.546L650.328 371.323L653.713 346.493L650.328 321.659L640.255 297.437L628.535 281.098L623.745 274.421L609.504 256.922L598.812 246.848L588.269 236.916L572.278 226.106L569.073 223.94L561.876 219.073L546.803 209.401L537.203 204.668L518.443 195.42L508.599 191.936L486.649 184.17L477.714 182.031L452.193 175.93L444.266 175.815L435.366 182.26L407.411 178.382L378.757 177.084L350.099 178.382L322.148 182.26L313.248 175.815L305.317 175.93L298.048 177.668L279.8 182.031L270.865 184.17L248.911 191.936L239.067 195.42L220.307 204.668L210.711 209.401L195.634 219.073L188.437 223.94L185.232 226.106L169.241 236.916" stroke="white" stroke-opacity="0.15" stroke-linecap="round" stroke-linejoin="round"/>
<path d="M322.148 182.26L295.592 188.609L282.516 183.161L270.865 184.17" stroke="white" stroke-opacity="0.15" stroke-linecap="round" stroke-linejoin="round"/>
<path d="M122.966 348.189L132.459 371.002L148.01 392.681L169.241 412.686L195.634 430.525L226.534 445.763L261.185 458.022L298.728 467.003L338.242 472.477L378.757 474.318L419.268 472.477L458.782 467.003L496.325 458.022L530.976 445.763L561.876 430.525L588.269 412.686L609.504 392.681L625.055 371.002L634.54 348.189L637.73 324.799L634.54 301.409L625.055 278.596L604.775 264.023L590.503 244.128L567.641 236.649L541.978 234.831L514.715 238.754L487.13 248.239L460.513 262.843L436.107 281.878L415.051 304.462L398.334 329.532L396.18 334.433" stroke="white" stroke-opacity="0.15" stroke-linecap="round" stroke-linejoin="round"/>
<path d="M402.761 333.108L404.503 331.236L412.212 322.958L419.489 315.138L418.989 311.46L417.495 307.873L415.05 304.462L411.712 301.314L407.559 298.51L402.7 296.111L397.249 294.182L391.343 292.772L385.128 291.909L378.757 291.623L372.381 291.909L366.166 292.772L360.26 294.182L354.813 296.111L349.95 298.51L345.801 301.314L342.459 304.462L340.014 307.873L338.521 311.46L338.02 315.138L338.521 318.817L340.014 322.408L342.459 325.815L345.801 328.963" stroke="white" stroke-opacity="0.15" stroke-linecap="round" stroke-linejoin="round"/>
<path d="M354.752 333.108L353.01 331.236L345.301 322.958L338.02 315.138L330.365 309.829L314.39 298.751L286.997 286.893L257.124 280.12L226.163 278.749L195.569 282.844L166.766 292.215L141.103 306.421" stroke="white" stroke-opacity="0.15" stroke-linecap="round" stroke-linejoin="round"/>
<path d="M508.079 567.35L509.6 543.91L508.079 517.018L503.583 487.936L496.325 458.022L486.649 428.676L474.998 401.268L461.922 377.08L448.029 357.246L433.975 342.692L420.414 334.097L407.976 331.862" stroke="white" stroke-opacity="0.15" stroke-linecap="round" stroke-linejoin="round"/>
<path d="M141.103 306.421L144.029 327.885L152.735 348.823L167.006 368.714L186.492 387.069L210.711 403.441L239.067 417.426L270.865 428.676L305.317 436.912L341.58 441.939L378.757 443.631L415.933 441.939L452.192 436.912L486.649 428.676L518.443 417.426L546.802 403.441L571.021 387.069L590.503 368.714L604.775 348.823L613.48 327.885" stroke="white" stroke-opacity="0.15" stroke-linecap="round" stroke-linejoin="round"/>
<path d="M588.269 236.916L571.021 225.773L562.571 220.062L546.802 209.401L528.654 205.672L508.289 208.06L486.653 216.456L464.764 230.464L443.64 249.434L424.268 272.473L407.56 298.51L394.293 326.323L391.439 335.09" stroke="white" stroke-opacity="0.15" stroke-linecap="round" stroke-linejoin="round"/>
<path d="M289.063 207.476L270.857 216.456L255.306 226.965L242.795 238.754L233.631 251.528L228.043 264.967L226.163 278.749L228.043 292.532L233.631 305.974L242.795 318.744L255.306 330.533L270.857 341.046L289.063 350.023L309.481 357.246L331.603 362.537L354.886 365.765L378.757 366.85L402.624 365.765L425.907 362.537L448.029 357.246L468.447 350.023L486.653 341.046L502.204 330.533L514.714 318.744L523.879 305.974L529.467 292.532L531.347 278.749L529.467 264.967L523.879 251.528L514.714 238.754L502.204 226.965L486.653 216.456L468.447 207.476L448.029 200.252L425.907 194.961L402.624 191.737L378.757 190.652L354.886 191.737L331.603 194.961L309.481 200.252L289.063 207.476ZM289.063 207.476L271.083 197.28L249.225 208.06L230.552 220.677L207.254 220.276L189.873 236.649L167.007 244.128L152.735 264.023L132.459 278.596L122.966 301.409L107.182 321.659L97.4062 344.755L93.8957 370.483L97.4062 396.21L107.842 421.304L124.948 445.144L148.3 467.151L177.332 486.775L211.322 503.533L249.435 517.018L290.729 526.892L334.193 532.92L378.757 534.945L423.317 532.92L466.781 526.892L508.079 517.018L546.191 503.533L580.182 486.775L609.21 467.151L632.565 445.144L649.671 421.304L660.104 396.21L663.614 370.483L660.104 344.755L650.515 321.896L650.244 321.036L649.671 319.661L640.255 297.437L625.055 278.596L609.504 256.922L590.503 244.128L571.021 225.773L550.26 220.276L528.654 205.672L503.361 193.196L474.998 183.161L444.266 175.815L411.918 171.331L378.757 169.822L345.592 171.331L313.248 175.815L282.516 183.161L254.152 193.196L228.856 205.672L207.254 220.276L186.492 225.773L169.241 236.916L158.698 246.848L148.01 256.922L132.459 278.596L117.255 297.437L107.842 319.661L107.266 321.036L106.994 321.896L103.797 346.493L93.8957 370.483L90.5455 395.649L93.8957 420.815L93.9797 421.396L94.079 421.823L104.653 447.066L121.961 471.189L145.588 493.452L174.96 513.309L209.351 530.266L247.91 543.911L289.694 553.9L333.669 559.997L378.757 562.044L423.841 559.997L467.816 553.9L509.6 543.911L548.162 530.266L582.55 513.309L611.922 493.452L635.553 471.189L632.565 445.144L623.745 418.561L609.504 392.681L590.503 368.714L567.641 347.78L541.978 330.862L514.714 318.744L487.13 312.002L460.513 310.944L436.107 315.62L430.827 320.593L424.268 325.028L415.097 328.726L409.561 330.434L407.766 331.817L406.662 331.687L405.237 332.516L402.762 333.108L400.592 333.627L400.504 333.65L400.244 333.711L400.084 333.749L398.644 334.093L398.296 334.143L396.18 334.433L393.873 334.754L391.439 335.09L388.918 335.484L388.826 335.453L386.424 335.564L383.883 335.679L381.32 335.797L378.757 335.912L376.19 335.797L373.627 335.679L371.086 335.564L368.687 335.453L368.603 335.526L364.401 339.216L350.401 337.275L341.168 346.909L331.603 362.537L322.148 383.432L313.248 408.618L305.317 436.912L298.728 467.003L293.789 497.467L290.729 526.892L289.694 553.9L290.729 577.229L293.789 595.782L298.728 608.694L305.317 615.368L341.581 620.391L378.757 622.083L415.933 620.391L419.268 614.172L458.782 608.694L496.325 599.717L503.583 586.248L508.079 567.35L546.191 553.865L580.182 537.107L609.21 517.484L632.565 495.477L635.553 471.189L652.857 447.066L663.416 421.678L660.104 396.21L650.328 371.323L634.54 348.189L613.481 327.886L616.407 306.421L613.481 284.957L588.135 273.069L559.687 266.3L552.976 250.164L541.978 234.831L526.958 220.677L502.204 226.965L477.16 238.842L464.764 230.464L450.248 223.306L433.975 217.549L416.342 213.332L397.784 210.761L378.757 209.897L359.729 210.761L341.168 213.332L323.535 217.549L307.262 223.306L292.75 230.464L280.354 238.842L255.306 226.965L230.552 220.677L215.536 234.831L189.873 236.649L177.141 254.393L152.735 264.023L144.029 284.957L122.966 301.409L119.784 324.799L103.797 346.493L107.182 371.323L97.4062 396.21L94.0905 421.678L97.4062 446.543L103.045 460.092L107.842 471.636L124.948 495.477L148.3 517.484L177.332 537.107L211.322 553.865L249.435 567.35L290.729 577.229L334.193 583.253L378.757 585.277L423.317 583.253L466.781 577.229L508.079 567.35" stroke="white" stroke-opacity="0.15" stroke-linecap="round" stroke-linejoin="round"/>
<path d="M169.375 273.069L166.766 292.214L169.375 311.36L177.141 330.036L189.873 347.78L207.254 364.156L228.856 378.76L254.152 391.233L282.516 401.268L313.248 408.618L345.592 413.102L378.757 414.607L411.918 413.102L444.266 408.618L474.998 401.268L503.362 391.233L528.654 378.76L550.26 364.156L567.641 347.78L580.369 330.036L588.135 311.36L590.744 292.214L588.135 273.069L580.369 254.393L567.641 236.649L550.26 220.276L526.958 220.677L508.289 208.06L486.431 197.28L461.922 188.608L448.029 200.252L433.975 217.549L420.414 239.689L407.976 265.639L397.25 294.182L388.731 323.989L386.424 335.564" stroke="white" stroke-opacity="0.15" stroke-linecap="round" stroke-linejoin="round"/>
<path d="M215.536 234.831L204.534 250.164L197.822 266.3L195.569 282.844L197.822 299.389L204.534 315.528L215.536 330.862L230.552 345.011L249.224 357.632L271.082 368.408L295.591 377.08L322.148 383.432L350.099 387.306L378.757 388.608L407.41 387.306L435.365 383.432L461.922 377.08L486.431 368.408L508.289 357.632L526.957 345.011L541.978 330.862L552.975 315.528L559.687 299.389L561.941 282.844L559.687 266.3" stroke="white" stroke-opacity="0.15" stroke-linecap="round" stroke-linejoin="round"/>
<path d="M435.365 182.26L425.907 194.961L416.342 213.332L407.109 236.508L398.644 263.408L391.344 292.772L385.545 323.229L383.883 335.679" stroke="white" stroke-opacity="0.15" stroke-linecap="round" stroke-linejoin="round"/>
<path d="M518.443 195.42L503.362 193.196L486.431 197.28L468.447 207.475L450.248 223.306L432.688 244.033L416.59 268.687L402.701 296.111L391.672 325.028L388.93 335.442" stroke="white" stroke-opacity="0.15" stroke-linecap="round" stroke-linejoin="round"/>
<path d="M518.443 595.878L530.976 587.459L540.374 573.233L546.191 553.865L548.163 530.265L546.191 503.533L540.374 474.921L530.976 445.763L518.443 417.426L503.362 391.233L486.431 368.408L468.447 350.023L450.248 336.931L432.688 329.75L416.59 328.814" stroke="white" stroke-opacity="0.15" stroke-linecap="round" stroke-linejoin="round"/>
<path d="M378.757 335.912V322.606V291.622V261.59V233.918V209.897V190.652V177.084V169.822V169.214" stroke="white" stroke-opacity="0.15" stroke-linecap="round" stroke-linejoin="round"/>
<path d="M376.19 335.797L375.319 322.763L372.381 291.909L368.687 262.048L364.401 234.567L359.73 210.761L354.886 191.737L350.099 178.382L345.592 171.331L341.581 170.903L323.031 173.474L312.106 174.986L305.317 175.93" stroke="white" stroke-opacity="0.15" stroke-linecap="round" stroke-linejoin="round"/>
<path d="M419.268 614.172L421.77 601.596L423.317 583.253L423.84 559.997L423.317 532.92L421.77 503.285L419.268 472.477L415.933 441.939L411.918 413.102L407.411 387.306L402.624 365.765L397.784 349.48L393.108 339.216L388.918 335.484L388.826 335.453" stroke="white" stroke-opacity="0.15" stroke-linecap="round" stroke-linejoin="round"/>
<path d="M349.534 331.862L337.1 334.097L324.822 329.75L307.262 336.932L289.063 350.023L271.082 368.408L254.152 391.233L239.067 417.427L226.534 445.763L217.14 474.921L211.322 503.533L209.351 530.266L211.322 553.866L217.14 573.233L226.534 587.459L239.067 595.878" stroke="white" stroke-opacity="0.15" stroke-linecap="round" stroke-linejoin="round"/>
<path d="M373.626 335.679L371.965 323.229L366.166 292.772L358.866 263.408L350.401 236.508L341.168 213.332L331.603 194.961L322.148 182.26" stroke="white" stroke-opacity="0.15" stroke-linecap="round" stroke-linejoin="round"/>
<path d="M371.086 335.564L368.779 323.989L360.261 294.182L349.534 265.639L337.1 239.689L323.535 217.549L309.481 200.252L295.592 188.608L271.083 197.28L254.152 193.196L239.067 195.419" stroke="white" stroke-opacity="0.15" stroke-linecap="round" stroke-linejoin="round"/>
<path d="M486.649 184.17L474.998 183.161L461.922 188.609L435.365 182.26" stroke="white" stroke-opacity="0.15" stroke-linecap="round" stroke-linejoin="round"/>
<path d="M364.401 339.216L359.729 349.48L354.886 365.765L350.099 387.306L345.592 413.102L341.581 441.939L338.242 472.477L335.744 503.285L334.193 532.92L333.669 559.997L334.193 583.253L335.744 601.596L338.242 614.172L341.581 620.391" stroke="white" stroke-opacity="0.15" stroke-linecap="round" stroke-linejoin="round"/>
<path d="M368.584 335.442L365.841 325.028L354.813 296.111L340.923 268.687L324.822 244.033L307.262 223.306L289.063 207.476" stroke="white" stroke-opacity="0.15" stroke-linecap="round" stroke-linejoin="round"/>
<path d="M368.688 335.453L368.584 335.442L366.075 335.09L363.641 334.754L361.334 334.433L359.214 334.143L358.866 334.093L350.401 337.275L337.1 334.097L323.535 342.692L309.481 357.246L295.592 377.08L282.516 401.268L270.865 428.676L261.185 458.022L253.927 487.936L249.435 517.018L247.911 543.911L249.435 567.35L253.927 586.248L261.185 599.717L270.865 607.128L300.875 614.306L305.318 615.367" stroke="white" stroke-opacity="0.15" stroke-linecap="round" stroke-linejoin="round"/>
<path d="M358.866 334.093L357.43 333.749L357.269 333.711L357.006 333.65L356.922 333.627L354.752 333.107L352.277 332.515L350.848 331.686L349.744 331.816L348.193 331.217L340.924 328.814L324.822 329.75L313.874 324.352L304.523 318.03L296.998 310.944L270.38 312.002L242.796 318.744L215.536 330.861L189.873 347.78L167.007 368.714L148.01 392.68L133.765 418.561L124.949 445.144L121.961 471.189L124.949 495.477L133.765 516.872L148.01 534.376L158.809 544.552L169.241 554.381" stroke="white" stroke-opacity="0.15" stroke-linecap="round" stroke-linejoin="round"/>
<path d="M366.074 335.09L363.217 326.323L349.95 298.51L333.241 272.473L313.874 249.434L292.749 230.464L270.857 216.456L249.224 208.06L228.856 205.672L210.711 209.401L194.942 220.062L186.492 225.773L167.006 244.128L148.009 256.922L133.765 274.421L128.978 281.098L117.255 297.436L106.994 321.896L97.406 344.755" stroke="white" stroke-opacity="0.15" stroke-linecap="round" stroke-linejoin="round"/>
<path d="M340.923 328.814L333.241 325.028L313.874 324.352L292.749 329.776L270.857 341.045L249.224 357.632L228.856 378.76L210.711 403.441L195.633 430.525L184.33 458.743L177.332 486.775L174.96 513.308L177.332 537.107L184.33 557.055L195.633 572.22L210.711 581.893L228.73 590.778L239.067 595.878L263.836 604.641L270.865 607.128" stroke="white" stroke-opacity="0.15" stroke-linecap="round" stroke-linejoin="round"/>
<path d="M363.641 334.754L360.979 327.836L345.802 301.314L326.683 276.908L304.523 255.752L280.354 238.841" stroke="white" stroke-opacity="0.15" stroke-linecap="round" stroke-linejoin="round"/>
<path d="M378.757 622.083V616.013V603.552V585.277V562.044V534.945V505.237V474.318V443.632V414.607V388.609V366.85V350.344V339.869V335.912" stroke="white" stroke-opacity="0.15" stroke-linecap="round" stroke-linejoin="round"/>
<path d="M361.334 334.433L359.179 329.532L342.459 304.462L321.407 281.878L296.998 262.843L270.38 248.239L242.796 238.754L215.536 234.831" stroke="white" stroke-opacity="0.15" stroke-linecap="round" stroke-linejoin="round"/>
<path d="M411.273 329.257L411.601 329.009L415.452 327.324L420.391 325.162L430.827 320.593L452.991 318.03L477.16 321.395L487.13 312.002L494.434 301.822L498.892 291.107L500.39 280.12L498.892 269.134L494.434 258.419L487.13 248.239L477.16 238.841" stroke="white" stroke-opacity="0.15" stroke-linecap="round" stroke-linejoin="round"/>
<path d="M346.237 329.257L346.02 329.058L342.459 325.815L341.172 325.192L333.238 321.349L321.407 315.619L317.541 310.233L315.181 304.564L314.39 298.75L315.181 292.936L317.541 287.267L321.407 281.877L326.683 276.908L333.242 272.473L340.924 268.687L349.534 265.639L358.866 263.408L368.687 262.048L378.757 261.589L388.826 262.048L398.644 263.408L407.976 265.639L416.59 268.687L424.268 272.473L430.827 276.908L436.107 281.877L439.972 287.267L442.329 292.936L443.12 298.75L442.329 304.564L439.972 310.233L436.107 315.619L424.272 321.349L416.338 325.192L416.09 325.311L415.051 325.815L411.601 329.009L411.273 329.257L407.56 331.77L406.803 332.141L405.237 332.515" stroke="white" stroke-opacity="0.15" stroke-linecap="round" stroke-linejoin="round"/>
<path d="M349.95 331.77L346.237 329.257L345.802 328.963L344.224 328.271L337.119 325.162L326.683 320.593L304.523 318.03L280.354 321.395L270.38 312.002L263.076 301.822L258.622 291.107L257.124 280.12L258.622 269.134L263.076 258.419L270.38 248.239L280.354 238.841" stroke="white" stroke-opacity="0.15" stroke-linecap="round" stroke-linejoin="round"/>
<path d="M359.214 334.143L359.141 333.99L357.858 331.373L340.014 307.873L317.541 287.268L291.489 270.521L263.076 258.419L233.631 251.528L204.534 250.164L177.141 254.393L169.375 273.069L144.029 284.957L141.103 306.421L119.784 324.799L122.966 348.189L107.181 371.323L117.255 395.546L107.842 421.304L104.653 447.066L107.842 471.636L117.255 493.861L126.297 506.459L133.765 516.873L156.31 538.112L184.33 557.055L217.14 573.233L253.927 586.248L293.788 595.782L335.744 601.596L378.757 603.552L421.77 601.596L463.721 595.782L503.583 586.248L540.373 573.233L573.179 557.055L601.199 538.112L609.21 517.484L611.922 493.452L609.21 467.152L601.199 439.8L588.268 412.686L571.021 387.069L550.259 364.157L526.957 345.011L502.204 330.533L477.16 321.396L464.764 329.777L450.248 336.932L433.975 342.692L416.342 346.909L397.784 349.48L378.757 350.344L359.729 349.48L341.168 346.909L323.535 342.692L307.262 336.932L292.749 329.777L280.354 321.396L255.306 330.533L230.552 345.011L207.254 364.157L186.492 387.069L169.241 412.686L156.31 439.8L148.3 467.152L145.588 493.452L148.3 517.484L156.31 538.112L169.241 554.381L187.795 566.918L195.634 572.221L220.525 584.494L226.534 587.459L261.185 599.717L298.728 608.694L338.242 614.172L378.757 616.013L419.268 614.172" stroke="white" stroke-opacity="0.15" stroke-linecap="round" stroke-linejoin="round"/>
<path d="M400.244 333.711L400.458 333.306L399.652 331.373L398.334 329.532L396.531 327.836L394.293 326.323L391.672 325.028L388.731 323.989L385.545 323.229L382.191 322.763L378.757 322.606L375.319 322.763L371.965 323.229L368.779 323.989L365.841 325.028L363.217 326.323L360.978 327.836L359.179 329.532L357.857 331.373L357.055 333.306L357.005 333.65" stroke="white" stroke-opacity="0.15" stroke-linecap="round" stroke-linejoin="round"/>
<path d="M357.27 333.711L357.056 333.306L354.997 330.88L351.475 326.728L338.521 311.46L315.181 292.936L288.128 278.604L258.622 269.134L228.043 264.966L197.823 266.299L169.375 273.069" stroke="white" stroke-opacity="0.15" stroke-linecap="round" stroke-linejoin="round"/>
<path d="M415.933 170.903L385.461 169.516L378.757 169.214L372.049 169.516L341.581 170.903" stroke="white" stroke-opacity="0.15" stroke-linecap="round" stroke-linejoin="round"/>
<path d="M452.193 615.367L456.639 614.305L486.649 607.128L496.325 599.717L530.976 587.458L536.989 584.494L561.876 572.22L569.719 566.918L588.269 554.381L601.199 538.112L623.745 516.873L632.565 495.477L649.671 471.636L654.469 460.092L660.104 446.542L663.435 421.823L663.534 421.395L663.614 420.815L666.964 395.649L663.614 370.482L653.713 346.493L637.73 324.799L616.407 306.421L590.744 292.215L561.941 282.844L531.347 278.749L500.389 280.12L470.513 286.893L443.12 298.751L427.145 309.829L419.489 315.138L418.989 318.817L412.869 324.914L406.524 331.232" stroke="white" stroke-opacity="0.15" stroke-linecap="round" stroke-linejoin="round"/>
<path d="M486.649 607.128L493.674 604.641L518.443 595.878L528.783 590.778L546.802 581.893L561.876 572.22L573.179 557.055L580.181 537.107L582.55 513.308L580.181 486.775L573.179 458.743L561.876 430.525L546.802 403.441L528.653 378.76L508.289 357.632L486.653 341.045L464.764 329.776L443.639 324.352L424.268 325.028L416.59 328.814L409.156 331.282L407.559 331.77" stroke="white" stroke-opacity="0.15" stroke-linecap="round" stroke-linejoin="round"/>
<path d="M588.268 554.381L598.701 544.552L609.504 534.376L623.745 516.872L631.213 506.459L640.255 493.861L649.671 471.636L652.857 447.066L649.671 421.304L640.255 395.545L625.055 371.002L604.775 348.823L580.369 330.036L552.975 315.528L523.878 305.974L494.434 301.822L466.025 303.262L441.615 309.794L439.972 310.233L426.694 317.426L418.58 321.819L417.495 322.408L412.632 326.988L409.561 330.434L409.156 331.282L407.976 331.862" stroke="white" stroke-opacity="0.15" stroke-linecap="round" stroke-linejoin="round"/>
<path d="M660.104 344.755L650.515 321.896L634.54 301.409L613.48 284.957L604.775 264.023L580.369 254.393L552.975 250.164L523.879 251.528L494.434 258.419L466.025 270.521L439.972 287.268L417.495 307.873L399.652 331.373L398.372 333.99L398.296 334.143" stroke="white" stroke-opacity="0.15" stroke-linecap="round" stroke-linejoin="round"/>
<path d="M350.985 331.232L344.64 324.914L338.521 318.817L336.084 317.327L329.868 313.53L315.18 304.565L313.668 304.038L288.127 295.179L258.622 291.107L228.042 292.532L197.822 299.389L169.375 311.361L144.029 327.886L122.966 348.189" stroke="white" stroke-opacity="0.15" stroke-linecap="round" stroke-linejoin="round"/>
<path d="M347.998 329.926L344.877 326.988L340.014 322.408L339.376 322.06L338.929 321.819L330.816 317.426L317.541 310.233L315.895 309.794L291.489 303.262L263.076 301.822L233.631 305.974L204.534 315.528L177.141 330.036L152.735 348.823L132.458 371.002L117.255 395.545" stroke="white" stroke-opacity="0.15" stroke-linecap="round" stroke-linejoin="round"/>
<path d="M352.277 332.516L350.706 332.141L349.954 331.771L347.948 330.434L342.413 328.726L333.241 325.028L326.683 320.593L321.407 315.62L296.997 310.944L291.489 303.262L288.127 295.179L286.997 286.893L288.127 278.604L291.489 270.521L296.997 262.843L304.523 255.753L313.874 249.434L324.822 244.033L337.1 239.69L350.401 236.507L364.401 234.567L378.757 233.917L393.109 234.567L407.109 236.507L420.414 239.69L432.688 244.033L443.639 249.434L452.991 255.753L460.512 262.843L466.025 270.521L469.382 278.604L470.513 286.893L469.382 295.179L466.025 303.262L460.512 310.944L452.991 318.03L443.639 324.352L432.688 329.75L420.414 334.097L407.109 337.275L393.109 339.216L378.757 339.869L364.401 339.216" stroke="white" stroke-opacity="0.15" stroke-linecap="round" stroke-linejoin="round"/>
<path d="M452.192 175.93L445.404 174.986L434.483 173.474L415.933 170.903L411.918 171.331L407.411 178.382L402.624 191.737L397.784 210.761L393.108 234.567L388.826 262.048L385.128 291.909L382.191 322.763L381.32 335.797" stroke="white" stroke-opacity="0.15" stroke-linecap="round" stroke-linejoin="round"/>
</g>
<defs>
<clipPath id="clip0_180_14499">
<rect width="764" height="764" fill="white" transform="matrix(-1 0 0 1 764 0)"/>
</clipPath>
</defs>
</svg>
