<svg width="764" height="764" viewBox="0 0 764 764" fill="none" xmlns="http://www.w3.org/2000/svg">
<g clip-path="url(#clip0_180_14504)">
<path d="M648.369 613.427H115.631" stroke="white" stroke-opacity="0.15" stroke-miterlimit="10" stroke-linecap="round"/>
<path d="M115.631 613.263L382 561.999L648.369 613.263" stroke="white" stroke-opacity="0.15" stroke-miterlimit="10" stroke-linecap="round"/>
<path d="M115.631 613.095L382 510.57L648.369 613.095" stroke="white" stroke-opacity="0.15" stroke-miterlimit="10" stroke-linecap="round"/>
<path d="M115.631 612.931L382 459.141L648.369 612.931" stroke="white" stroke-opacity="0.15" stroke-miterlimit="10" stroke-linecap="round"/>
<path d="M115.631 612.762L382 407.712L648.369 612.762" stroke="white" stroke-opacity="0.15" stroke-miterlimit="10" stroke-linecap="round"/>
<path d="M115.631 612.598L382 356.288L648.369 612.598" stroke="white" stroke-opacity="0.15" stroke-miterlimit="10" stroke-linecap="round"/>
<path d="M115.631 612.434L382 304.859L648.369 612.434" stroke="white" stroke-opacity="0.15" stroke-miterlimit="10" stroke-linecap="round"/>
<path d="M115.631 612.266L382 253.43L648.369 612.266" stroke="white" stroke-opacity="0.15" stroke-miterlimit="10" stroke-linecap="round"/>
<path d="M115.631 612.102L382 202.002L648.369 612.102" stroke="white" stroke-opacity="0.15" stroke-miterlimit="10" stroke-linecap="round"/>
<path d="M115.631 611.933L382 150.573L648.369 611.933" stroke="white" stroke-opacity="0.15" stroke-miterlimit="10" stroke-linecap="round"/>
</g>
<defs>
<clipPath id="clip0_180_14504">
<rect width="764" height="764" fill="white" transform="matrix(-1 0 0 1 764 0)"/>
</clipPath>
</defs>
</svg>
