<svg width="764" height="764" viewBox="0 0 764 764" fill="none" xmlns="http://www.w3.org/2000/svg">
<g clip-path="url(#clip0_180_14501)">
<path d="M601.925 406.059L580.816 375.281L592.86 401.78L615.604 435.908L601.925 406.059Z" stroke="white" stroke-opacity="0.15"/>
<path d="M615.604 435.908L592.86 401.78L599.003 429.903L622.801 467.702L615.604 435.908Z" stroke="white" stroke-opacity="0.15"/>
<path d="M149.832 436.267L173.088 401.406L186.072 374.417L164.619 405.757L149.832 436.267Z" stroke="white" stroke-opacity="0.15"/>
<path d="M622.801 467.702L599.003 429.903L598.797 458.9L622.985 500.603L622.801 467.702Z" stroke="white" stroke-opacity="0.15"/>
<path d="M580.816 375.281L558.282 342.425L568.657 365.459L592.86 401.78L580.816 375.281Z" stroke="white" stroke-opacity="0.15"/>
<path d="M141.761 468.817L166.197 430.109L173.088 401.406L149.832 436.267L141.761 468.817Z" stroke="white" stroke-opacity="0.15"/>
<path d="M592.86 401.78L568.657 365.459L573.76 389.816L599.003 429.903L592.86 401.78Z" stroke="white" stroke-opacity="0.15"/>
<path d="M622.985 500.603L598.797 458.9L591.947 487.913L615.777 533.654L622.985 500.603Z" stroke="white" stroke-opacity="0.15"/>
<path d="M173.088 401.406L197.724 364.47L208.878 341.104L186.073 374.418L173.088 401.406Z" stroke="white" stroke-opacity="0.15"/>
<path d="M141.015 502.495L165.91 459.718L166.197 430.109L141.76 468.817L141.015 502.495Z" stroke="white" stroke-opacity="0.15"/>
<path d="M599.003 429.903L573.76 389.816L573.229 414.825L598.797 458.901L599.003 429.903Z" stroke="white" stroke-opacity="0.15"/>
<path d="M615.776 533.654L591.947 487.914L578.359 516.013L601.02 565.788L615.776 533.654Z" stroke="white" stroke-opacity="0.15"/>
<path d="M166.197 430.109L191.997 389.251L197.723 364.47L173.088 401.406L166.197 430.109Z" stroke="white" stroke-opacity="0.15"/>
<path d="M558.282 342.425L534.17 307.27L542.845 326.725L568.657 365.46L558.282 342.425Z" stroke="white" stroke-opacity="0.15"/>
<path d="M148.006 536.244L172.546 489.3L165.911 459.718L141.016 502.495L148.006 536.244Z" stroke="white" stroke-opacity="0.15"/>
<path d="M598.796 458.901L573.229 414.826L566.85 439.747L591.947 487.914L598.796 458.901Z" stroke="white" stroke-opacity="0.15"/>
<path d="M601.02 565.788L578.36 516.014L558.186 542.2L578.837 595.863L601.02 565.788Z" stroke="white" stroke-opacity="0.15"/>
<path d="M568.657 365.459L542.845 326.725L546.936 347.215L573.76 389.816L568.657 365.459Z" stroke="white" stroke-opacity="0.15"/>
<path d="M165.911 459.718L192.097 414.726L191.997 389.25L166.197 430.109L165.911 459.718Z" stroke="white" stroke-opacity="0.15"/>
<path d="M197.723 364.47L223.867 325.277L233.169 305.619L208.878 341.103L197.723 364.47Z" stroke="white" stroke-opacity="0.15"/>
<path d="M162.881 568.901L186.187 517.843L172.546 489.3L148.006 536.244L162.881 568.901Z" stroke="white" stroke-opacity="0.15"/>
<path d="M591.947 487.913L566.85 439.747L554.58 463.779L578.36 516.013L591.947 487.913Z" stroke="white" stroke-opacity="0.15"/>
<path d="M573.76 389.816L546.936 347.215L546.165 368.164L573.229 414.826L573.76 389.816Z" stroke="white" stroke-opacity="0.15"/>
<path d="M578.837 595.863L558.186 542.2L531.851 565.479L549.652 622.706L578.837 595.863Z" stroke="white" stroke-opacity="0.15"/>
<path d="M172.546 489.3L198.266 440.098L192.096 414.726L165.91 459.718L172.546 489.3Z" stroke="white" stroke-opacity="0.15"/>
<path d="M191.997 389.25L219.268 346.054L223.868 325.277L197.724 364.47L191.997 389.25Z" stroke="white" stroke-opacity="0.15"/>
<path d="M185.473 599.228L206.647 544.289L186.187 517.843L162.881 568.901L185.473 599.228Z" stroke="white" stroke-opacity="0.15"/>
<path d="M578.359 516.013L554.58 463.779L536.591 486.08L558.186 542.2L578.359 516.013Z" stroke="white" stroke-opacity="0.15"/>
<path d="M534.17 307.269L508.312 269.566L515.261 285.331L542.845 326.725L534.17 307.269Z" stroke="white" stroke-opacity="0.15"/>
<path d="M573.229 414.825L546.165 368.164L540.381 388.949L566.85 439.747L573.229 414.825Z" stroke="white" stroke-opacity="0.15"/>
<path d="M549.652 622.706L531.851 565.479L500.065 584.892L514.237 645.179L549.652 622.706Z" stroke="white" stroke-opacity="0.15"/>
<path d="M186.187 517.843L210.536 464.508L198.266 440.099L172.546 489.3L186.187 517.843Z" stroke="white" stroke-opacity="0.15"/>
<path d="M215.257 625.999L233.425 567.587L206.647 544.289L185.473 599.228L215.257 625.999Z" stroke="white" stroke-opacity="0.15"/>
<path d="M192.096 414.726L219.673 367.339L219.268 346.054L191.997 389.251L192.096 414.726Z" stroke="white" stroke-opacity="0.15"/>
<path d="M542.845 326.725L515.261 285.331L518.378 301.864L546.937 347.215L542.845 326.725Z" stroke="white" stroke-opacity="0.15"/>
<path d="M514.237 645.179L500.065 584.892L463.836 599.58L473.722 662.262L514.237 645.179Z" stroke="white" stroke-opacity="0.15"/>
<path d="M558.186 542.2L536.592 486.08L513.293 505.822L531.851 565.479L558.186 542.2Z" stroke="white" stroke-opacity="0.15"/>
<path d="M566.85 439.747L540.381 388.949L529.597 408.901L554.58 463.779L566.85 439.747Z" stroke="white" stroke-opacity="0.15"/>
<path d="M251.337 648.052L265.708 586.764L233.425 567.587L215.257 625.999L251.337 648.052Z" stroke="white" stroke-opacity="0.15"/>
<path d="M223.868 325.277L251.666 283.609L259.092 267.744L233.169 305.619L223.868 325.277Z" stroke="white" stroke-opacity="0.15"/>
<path d="M206.647 544.289L228.7 487.069L210.536 464.508L186.187 517.843L206.647 544.289Z" stroke="white" stroke-opacity="0.15"/>
<path d="M198.266 440.098L225.254 388.471L219.673 367.339L192.096 414.726L198.266 440.098Z" stroke="white" stroke-opacity="0.15"/>
<path d="M473.722 662.262L463.836 599.58L424.433 608.858L429.54 673.126L473.722 662.262Z" stroke="white" stroke-opacity="0.15"/>
<path d="M292.456 664.39L302.392 600.982L265.708 586.764L251.337 648.052L292.456 664.39Z" stroke="white" stroke-opacity="0.15"/>
<path d="M546.937 347.215L518.378 301.864L517.465 318.688L546.165 368.164L546.937 347.215Z" stroke="white" stroke-opacity="0.15"/>
<path d="M429.54 673.126L424.433 608.858L383.326 612.266L383.372 677.206L429.54 673.126Z" stroke="white" stroke-opacity="0.15"/>
<path d="M337.054 674.26L342.108 609.611L302.391 600.981L292.456 664.39L337.054 674.26Z" stroke="white" stroke-opacity="0.15"/>
<path d="M383.372 677.206L383.326 612.266L342.108 609.611L337.054 674.261L383.372 677.206Z" stroke="white" stroke-opacity="0.15"/>
<path d="M531.851 565.479L513.294 505.822L485.327 522.21L500.065 584.892L531.851 565.479Z" stroke="white" stroke-opacity="0.15"/>
<path d="M219.268 346.054L248.147 300.313L251.666 283.608L223.867 325.277L219.268 346.054Z" stroke="white" stroke-opacity="0.15"/>
<path d="M554.58 463.779L529.597 408.901L513.989 427.329L536.592 486.08L554.58 463.779Z" stroke="white" stroke-opacity="0.15"/>
<path d="M233.425 567.587L252.296 506.907L228.7 487.069L206.647 544.289L233.425 567.587Z" stroke="white" stroke-opacity="0.15"/>
<path d="M210.536 464.508L235.992 408.74L225.254 388.471L198.266 440.098L210.536 464.508Z" stroke="white" stroke-opacity="0.15"/>
<path d="M500.065 584.892L485.327 522.209L453.579 534.548L463.836 599.58L500.065 584.892Z" stroke="white" stroke-opacity="0.15"/>
<path d="M546.165 368.164L517.465 318.688L512.43 335.301L540.381 388.949L546.165 368.164Z" stroke="white" stroke-opacity="0.15"/>
<path d="M265.708 586.764L280.61 523.222L252.296 506.907L233.425 567.587L265.708 586.764Z" stroke="white" stroke-opacity="0.15"/>
<path d="M219.673 367.339L248.762 317.366L248.147 300.313L219.268 346.054L219.673 367.339Z" stroke="white" stroke-opacity="0.15"/>
<path d="M536.592 486.08L513.989 427.328L493.93 443.567L513.294 505.821L536.592 486.08Z" stroke="white" stroke-opacity="0.15"/>
<path d="M463.836 599.58L453.579 534.548L419.142 542.287L424.433 608.858L463.836 599.58Z" stroke="white" stroke-opacity="0.15"/>
<path d="M508.312 269.566L480.506 229.028L485.713 240.993L515.261 285.331L508.312 269.566Z" stroke="white" stroke-opacity="0.15"/>
<path d="M302.391 600.982L312.679 535.327L280.61 523.222L265.708 586.764L302.391 600.982Z" stroke="white" stroke-opacity="0.15"/>
<path d="M228.7 487.069L251.685 427.424L235.992 408.74L210.536 464.508L228.7 487.069Z" stroke="white" stroke-opacity="0.15"/>
<path d="M424.433 608.859L419.142 542.288L383.28 545.061L383.326 612.266L424.433 608.859Z" stroke="white" stroke-opacity="0.15"/>
<path d="M342.108 609.611L347.333 542.711L312.678 535.327L302.391 600.981L342.108 609.611Z" stroke="white" stroke-opacity="0.15"/>
<path d="M383.326 612.266L383.28 545.061L347.334 542.711L342.108 609.611L383.326 612.266Z" stroke="white" stroke-opacity="0.15"/>
<path d="M540.381 388.949L512.43 335.301L503.316 351.169L529.597 408.901L540.381 388.949Z" stroke="white" stroke-opacity="0.15"/>
<path d="M513.293 505.822L493.93 443.567L469.99 456.987L485.327 522.21L513.293 505.822Z" stroke="white" stroke-opacity="0.15"/>
<path d="M225.254 388.471L253.606 334.235L248.762 317.366L219.673 367.339L225.254 388.471Z" stroke="white" stroke-opacity="0.15"/>
<path d="M515.261 285.331L485.713 240.993L487.913 253.48L518.378 301.864L515.261 285.331Z" stroke="white" stroke-opacity="0.15"/>
<path d="M252.296 506.907L271.916 443.823L251.685 427.424L228.7 487.069L252.296 506.907Z" stroke="white" stroke-opacity="0.15"/>
<path d="M251.666 283.608L281.275 239.216L286.821 227.233L259.092 267.744L251.666 283.608Z" stroke="white" stroke-opacity="0.15"/>
<path d="M529.597 408.901L503.316 351.169L490.297 365.761L513.989 427.328L529.597 408.901Z" stroke="white" stroke-opacity="0.15"/>
<path d="M485.327 522.209L469.99 456.987L442.929 467.037L453.579 534.548L485.327 522.209Z" stroke="white" stroke-opacity="0.15"/>
<path d="M280.61 523.222L296.069 457.3L271.915 443.823L252.296 506.907L280.61 523.222Z" stroke="white" stroke-opacity="0.15"/>
<path d="M235.992 408.74L262.641 350.367L253.606 334.235L225.254 388.471L235.992 408.74Z" stroke="white" stroke-opacity="0.15"/>
<path d="M518.378 301.864L487.913 253.48L486.978 266.128L517.465 318.687L518.378 301.864Z" stroke="white" stroke-opacity="0.15"/>
<path d="M453.579 534.548L442.929 467.037L413.664 473.29L419.142 542.287L453.579 534.548Z" stroke="white" stroke-opacity="0.15"/>
<path d="M248.147 300.313L278.784 251.792L281.274 239.216L251.666 283.609L248.147 300.313Z" stroke="white" stroke-opacity="0.15"/>
<path d="M312.679 535.327L323.333 467.308L296.069 457.3L280.61 523.222L312.679 535.327Z" stroke="white" stroke-opacity="0.15"/>
<path d="M513.989 427.328L490.297 365.761L473.707 378.554L493.93 443.567L513.989 427.328Z" stroke="white" stroke-opacity="0.15"/>
<path d="M419.142 542.287L413.664 473.291L383.23 475.464L383.28 545.061L419.142 542.287Z" stroke="white" stroke-opacity="0.15"/>
<path d="M347.334 542.712L352.747 473.447L323.333 467.309L312.679 535.328L347.334 542.712Z" stroke="white" stroke-opacity="0.15"/>
<path d="M383.28 545.061L383.23 475.464L352.747 473.447L347.334 542.711L383.28 545.061Z" stroke="white" stroke-opacity="0.15"/>
<path d="M517.465 318.687L486.977 266.128L482.867 278.554L512.43 335.3L517.465 318.687Z" stroke="white" stroke-opacity="0.15"/>
<path d="M251.685 427.424L275.667 365.196L262.64 350.367L235.992 408.74L251.685 427.424Z" stroke="white" stroke-opacity="0.15"/>
<path d="M248.762 317.366L279.483 264.581L278.784 251.792L248.147 300.313L248.762 317.366Z" stroke="white" stroke-opacity="0.15"/>
<path d="M493.93 443.567L473.707 378.555L454.023 389.071L469.99 456.987L493.93 443.567Z" stroke="white" stroke-opacity="0.15"/>
<path d="M271.915 443.823L292.33 378.188L275.667 365.196L251.685 427.424L271.915 443.823Z" stroke="white" stroke-opacity="0.15"/>
<path d="M512.43 335.301L482.867 278.555L475.632 290.362L503.316 351.169L512.43 335.301Z" stroke="white" stroke-opacity="0.15"/>
<path d="M253.606 334.235L283.429 277.187L279.483 264.581L248.762 317.366L253.606 334.235Z" stroke="white" stroke-opacity="0.15"/>
<path d="M469.99 456.987L454.023 389.071L431.867 396.902L442.929 467.037L469.99 456.987Z" stroke="white" stroke-opacity="0.15"/>
<path d="M296.069 457.3L312.121 388.857L292.33 378.188L271.916 443.823L296.069 457.3Z" stroke="white" stroke-opacity="0.15"/>
<path d="M442.929 467.037L431.866 396.902L407.976 401.734L413.664 473.29L442.929 467.037Z" stroke="white" stroke-opacity="0.15"/>
<path d="M503.316 351.169L475.632 290.362L465.441 301.165L490.297 365.761L503.316 351.169Z" stroke="white" stroke-opacity="0.15"/>
<path d="M480.507 229.028L450.531 185.32L453.988 193.384L485.713 240.993L480.507 229.028Z" stroke="white" stroke-opacity="0.15"/>
<path d="M323.333 467.308L334.384 396.795L312.121 388.857L296.069 457.3L323.333 467.308Z" stroke="white" stroke-opacity="0.15"/>
<path d="M413.664 473.291L407.976 401.734L383.177 403.354L383.23 475.464L413.664 473.291Z" stroke="white" stroke-opacity="0.15"/>
<path d="M352.747 473.447L358.351 401.688L334.384 396.795L323.333 467.308L352.747 473.447Z" stroke="white" stroke-opacity="0.15"/>
<path d="M383.23 475.464L383.177 403.354L358.35 401.688L352.746 473.447L383.23 475.464Z" stroke="white" stroke-opacity="0.15"/>
<path d="M262.641 350.367L290.561 289.201L283.429 277.187L253.606 334.235L262.641 350.367Z" stroke="white" stroke-opacity="0.15"/>
<path d="M485.713 240.992L453.988 193.384L455.344 201.757L487.914 253.48L485.713 240.992Z" stroke="white" stroke-opacity="0.15"/>
<path d="M490.297 365.761L465.441 301.165L452.563 310.585L473.707 378.554L490.297 365.761Z" stroke="white" stroke-opacity="0.15"/>
<path d="M281.275 239.216L312.885 191.837L316.552 183.799L286.821 227.233L281.275 239.216Z" stroke="white" stroke-opacity="0.15"/>
<path d="M275.666 365.196L300.707 300.214L290.561 289.201L262.64 350.367L275.666 365.196Z" stroke="white" stroke-opacity="0.15"/>
<path d="M487.914 253.48L455.344 201.757L454.534 210.192L486.978 266.128L487.914 253.48Z" stroke="white" stroke-opacity="0.15"/>
<path d="M473.707 378.555L452.563 310.585L437.383 318.287L454.023 389.071L473.707 378.555Z" stroke="white" stroke-opacity="0.15"/>
<path d="M278.784 251.792L311.334 200.237L312.885 191.837L281.274 239.216L278.784 251.792Z" stroke="white" stroke-opacity="0.15"/>
<path d="M292.33 378.188L313.584 309.844L300.707 300.214L275.667 365.196L292.33 378.188Z" stroke="white" stroke-opacity="0.15"/>
<path d="M454.022 389.071L437.383 318.287L420.364 323.986L431.866 396.902L454.022 389.071Z" stroke="white" stroke-opacity="0.15"/>
<path d="M486.978 266.128L454.534 210.192L451.543 218.435L482.867 278.555L486.978 266.128Z" stroke="white" stroke-opacity="0.15"/>
<path d="M312.121 388.857L328.795 317.752L313.584 309.844L292.33 378.188L312.121 388.857Z" stroke="white" stroke-opacity="0.15"/>
<path d="M279.483 264.581L311.979 208.744L311.334 200.237L278.784 251.792L279.483 264.581Z" stroke="white" stroke-opacity="0.15"/>
<path d="M431.866 396.902L420.364 323.986L402.074 327.466L407.976 401.734L431.866 396.902Z" stroke="white" stroke-opacity="0.15"/>
<path d="M334.384 396.795L345.844 323.638L328.795 317.751L312.121 388.857L334.384 396.795Z" stroke="white" stroke-opacity="0.15"/>
<path d="M407.976 401.734L402.074 327.466L383.123 328.585L383.177 403.354L407.976 401.734Z" stroke="white" stroke-opacity="0.15"/>
<path d="M358.35 401.688L364.165 327.298L345.844 323.638L334.384 396.795L358.35 401.688Z" stroke="white" stroke-opacity="0.15"/>
<path d="M383.177 403.354L383.123 328.585L364.165 327.298L358.351 401.689L383.177 403.354Z" stroke="white" stroke-opacity="0.15"/>
<path d="M482.867 278.555L451.543 218.436L446.432 226.225L475.632 290.362L482.867 278.555Z" stroke="white" stroke-opacity="0.15"/>
<path d="M283.429 277.187L314.837 217.098L311.98 208.744L279.483 264.581L283.429 277.187Z" stroke="white" stroke-opacity="0.15"/>
<path d="M475.632 290.362L446.432 226.225L439.331 233.307L465.441 301.165L475.632 290.362Z" stroke="white" stroke-opacity="0.15"/>
<path d="M290.561 289.201L319.849 225.037L314.837 217.099L283.429 277.187L290.561 289.201Z" stroke="white" stroke-opacity="0.15"/>
<path d="M465.44 301.165L439.331 233.307L430.438 239.453L452.563 310.585L465.44 301.165Z" stroke="white" stroke-opacity="0.15"/>
<path d="M300.707 300.214L326.881 232.295L319.849 225.037L290.561 289.201L300.707 300.214Z" stroke="white" stroke-opacity="0.15"/>
<path d="M452.563 310.585L430.438 239.453L420.02 244.45L437.382 318.286L452.563 310.585Z" stroke="white" stroke-opacity="0.15"/>
<path d="M313.584 309.844L335.732 238.628L326.881 232.294L300.707 300.214L313.584 309.844Z" stroke="white" stroke-opacity="0.15"/>
<path d="M437.382 318.287L420.02 244.45L408.4 248.121L420.364 323.986L437.382 318.287Z" stroke="white" stroke-opacity="0.15"/>
<path d="M328.795 317.752L346.13 243.823L335.732 238.628L313.584 309.844L328.795 317.752Z" stroke="white" stroke-opacity="0.15"/>
<path d="M420.364 323.986L408.4 248.121L395.947 250.336L402.074 327.466L420.364 323.986Z" stroke="white" stroke-opacity="0.15"/>
<path d="M450.531 185.32L418.115 138.059L419.83 142.131L453.988 193.384L450.531 185.32Z" stroke="white" stroke-opacity="0.15"/>
<path d="M345.844 323.638L357.743 247.701L346.13 243.823L328.795 317.752L345.844 323.638Z" stroke="white" stroke-opacity="0.15"/>
<path d="M402.074 327.466L395.947 250.336L383.07 251.013L383.123 328.585L402.074 327.466Z" stroke="white" stroke-opacity="0.15"/>
<path d="M364.164 327.298L370.192 250.123L357.743 247.701L345.844 323.638L364.164 327.298Z" stroke="white" stroke-opacity="0.15"/>
<path d="M383.123 328.585L383.07 251.013L370.192 250.123L364.164 327.298L383.123 328.585Z" stroke="white" stroke-opacity="0.15"/>
<path d="M453.988 193.384L419.83 142.131L420.445 146.333L455.344 201.757L453.988 193.384Z" stroke="white" stroke-opacity="0.15"/>
<path d="M312.885 191.837L346.696 141.149L348.51 137.111L316.552 183.799L312.885 191.837Z" stroke="white" stroke-opacity="0.15"/>
<path d="M455.344 201.757L420.445 146.333L419.933 150.543L454.534 210.192L455.344 201.757Z" stroke="white" stroke-opacity="0.15"/>
<path d="M311.334 200.237L345.985 145.348L346.696 141.149L312.885 191.837L311.334 200.237Z" stroke="white" stroke-opacity="0.15"/>
<path d="M454.534 210.192L419.933 150.542L418.298 154.63L451.543 218.435L454.534 210.192Z" stroke="white" stroke-opacity="0.15"/>
<path d="M311.98 208.744L346.409 149.584L345.985 145.347L311.334 200.237L311.98 208.744Z" stroke="white" stroke-opacity="0.15"/>
<path d="M451.543 218.435L418.298 154.63L415.586 158.473L446.432 226.224L451.543 218.435Z" stroke="white" stroke-opacity="0.15"/>
<path d="M314.837 217.099L347.964 153.729L346.409 149.584L311.979 208.744L314.837 217.099Z" stroke="white" stroke-opacity="0.15"/>
<path d="M446.432 226.225L415.586 158.473L411.873 161.946L439.331 233.307L446.432 226.225Z" stroke="white" stroke-opacity="0.15"/>
<path d="M319.849 225.036L350.611 157.652L347.964 153.729L314.837 217.098L319.849 225.036Z" stroke="white" stroke-opacity="0.15"/>
<path d="M439.331 233.307L411.872 161.945L407.262 164.94L430.438 239.453L439.331 233.307Z" stroke="white" stroke-opacity="0.15"/>
<path d="M326.882 232.294L354.271 161.227L350.611 157.651L319.849 225.036L326.882 232.294Z" stroke="white" stroke-opacity="0.15"/>
<path d="M430.438 239.453L407.262 164.94L401.894 167.358L420.02 244.449L430.438 239.453Z" stroke="white" stroke-opacity="0.15"/>
<path d="M335.732 238.628L358.835 164.344L354.271 161.227L326.881 232.294L335.732 238.628Z" stroke="white" stroke-opacity="0.15"/>
<path d="M420.021 244.45L401.895 167.358L395.939 169.123L408.4 248.121L420.021 244.45Z" stroke="white" stroke-opacity="0.15"/>
<path d="M346.131 243.823L364.172 166.9L358.836 164.344L335.732 238.628L346.131 243.823Z" stroke="white" stroke-opacity="0.15"/>
<path d="M408.4 248.121L395.94 169.123L389.579 170.174L395.947 250.336L408.4 248.121Z" stroke="white" stroke-opacity="0.15"/>
<path d="M357.743 247.701L370.104 168.81L364.172 166.9L346.13 243.823L357.743 247.701Z" stroke="white" stroke-opacity="0.15"/>
<path d="M395.947 250.336L389.579 170.173L383.012 170.471L383.07 251.012L395.947 250.336Z" stroke="white" stroke-opacity="0.15"/>
<path d="M370.193 250.123L376.454 170.013L370.105 168.81L357.743 247.701L370.193 250.123Z" stroke="white" stroke-opacity="0.15"/>
<path d="M383.07 251.012L383.013 170.472L376.454 170.013L370.193 250.122L383.07 251.012Z" stroke="white" stroke-opacity="0.15"/>
<path d="M389.579 170.174L382.955 86.7944L383.013 170.472L389.579 170.174Z" stroke="white" stroke-opacity="0.15"/>
<path d="M395.939 169.123L382.955 86.7944L389.579 170.174L395.939 169.123Z" stroke="white" stroke-opacity="0.15"/>
<path d="M401.895 167.358L382.955 86.7944L395.939 169.123L401.895 167.358Z" stroke="white" stroke-opacity="0.15"/>
<path d="M407.262 164.94L382.955 86.7944L401.895 167.358L407.262 164.94Z" stroke="white" stroke-opacity="0.15"/>
<path d="M411.873 161.945L382.955 86.7944L407.262 164.94L411.873 161.945Z" stroke="white" stroke-opacity="0.15"/>
<path d="M415.585 158.473L382.955 86.7944L411.872 161.945L415.585 158.473Z" stroke="white" stroke-opacity="0.15"/>
<path d="M418.298 154.63L382.955 86.7944L415.586 158.473L418.298 154.63Z" stroke="white" stroke-opacity="0.15"/>
<path d="M419.933 150.543L382.955 86.7944L418.298 154.63L419.933 150.543Z" stroke="white" stroke-opacity="0.15"/>
<path d="M420.445 146.333L382.955 86.7944L419.933 150.543L420.445 146.333Z" stroke="white" stroke-opacity="0.15"/>
<path d="M419.83 142.131L382.955 86.7944L420.445 146.333L419.83 142.131Z" stroke="white" stroke-opacity="0.15"/>
<path d="M418.114 138.059L382.955 86.7944L419.83 142.131L418.114 138.059Z" stroke="white" stroke-opacity="0.15"/>
<path d="M346.696 141.149L382.955 86.7944L348.51 137.111L346.696 141.149Z" stroke="white" stroke-opacity="0.15"/>
<path d="M345.985 145.347L382.955 86.7944L346.696 141.149L345.985 145.347Z" stroke="white" stroke-opacity="0.15"/>
<path d="M346.409 149.584L382.955 86.7944L345.985 145.347L346.409 149.584Z" stroke="white" stroke-opacity="0.15"/>
<path d="M347.964 153.728L382.955 86.7944L346.409 149.584L347.964 153.728Z" stroke="white" stroke-opacity="0.15"/>
<path d="M350.611 157.652L382.955 86.7944L347.964 153.728L350.611 157.652Z" stroke="white" stroke-opacity="0.15"/>
<path d="M354.271 161.227L382.955 86.7944L350.611 157.652L354.271 161.227Z" stroke="white" stroke-opacity="0.15"/>
<path d="M358.836 164.344L382.955 86.7944L354.271 161.227L358.836 164.344Z" stroke="white" stroke-opacity="0.15"/>
<path d="M364.172 166.9L382.955 86.7944L358.836 164.344L364.172 166.9Z" stroke="white" stroke-opacity="0.15"/>
<path d="M370.105 168.81L382.955 86.7944L364.172 166.9L370.105 168.81Z" stroke="white" stroke-opacity="0.15"/>
<path d="M376.453 170.013L382.955 86.7944L370.105 168.81L376.453 170.013Z" stroke="white" stroke-opacity="0.15"/>
<path d="M383.013 170.472L382.955 86.7944L376.454 170.013L383.013 170.472Z" stroke="white" stroke-opacity="0.15"/>
<path d="M382.955 86.7944L376.453 170.013L370.192 250.122L364.165 327.298L358.35 401.688L352.747 473.447L347.334 542.711L342.108 609.611L337.054 674.261" stroke="white" stroke-opacity="0.15" stroke-linecap="round" stroke-linejoin="round"/>
<path d="M382.955 86.7944L370.105 168.81L357.743 247.7L345.844 323.638L334.384 396.795L323.333 467.308L312.679 535.327L302.391 600.982L292.455 664.39" stroke="white" stroke-opacity="0.15" stroke-linecap="round" stroke-linejoin="round"/>
<path d="M382.955 86.7944L364.172 166.9L346.13 243.823L328.795 317.752L312.121 388.857L296.069 457.3L280.61 523.222L265.708 586.764L251.337 648.052" stroke="white" stroke-opacity="0.15" stroke-linecap="round" stroke-linejoin="round"/>
<path d="M382.955 86.7944L358.836 164.344L335.732 238.628L313.584 309.844L292.329 378.188L271.915 443.823L252.296 506.907L233.425 567.587L215.257 625.999" stroke="white" stroke-opacity="0.15" stroke-linecap="round" stroke-linejoin="round"/>
<path d="M382.955 86.7944L354.271 161.227L326.881 232.294L300.707 300.214L275.667 365.196L251.685 427.424L228.7 487.069L206.647 544.289L185.473 599.228" stroke="white" stroke-opacity="0.15" stroke-linecap="round" stroke-linejoin="round"/>
<path d="M382.955 86.7944L350.611 157.652L319.849 225.036" stroke="white" stroke-opacity="0.15" stroke-linecap="round" stroke-linejoin="round"/>
<path d="M382.955 86.7944L346.409 149.584L311.98 208.744L279.483 264.581L248.763 317.366L219.673 367.339L225.254 388.471L235.992 408.74L251.685 427.424L271.916 443.823L296.069 457.3L323.333 467.308L352.747 473.447L383.23 475.464L413.664 473.291L442.929 467.037L469.99 456.987L493.93 443.567L513.989 427.328L529.597 408.901L540.381 388.949L512.43 335.301L482.867 278.555L451.543 218.435L418.298 154.63L382.955 86.7944Z" stroke="white" stroke-opacity="0.15" stroke-linecap="round" stroke-linejoin="round"/>
<path d="M382.955 86.7944L345.985 145.347L346.409 149.584L347.964 153.728L314.837 217.098L283.429 277.187L253.606 334.235L225.254 388.471L198.266 440.099L172.546 489.3L148.006 536.244L162.881 568.901L185.473 599.228L215.257 625.999L251.337 648.052L292.456 664.39L337.054 674.261L383.372 677.206L429.54 673.126L473.722 662.262L514.237 645.179L549.652 622.706L578.837 595.863L601.02 565.788L615.777 533.654L622.985 500.604L622.801 467.702L615.605 435.908L599.14 411.197L592.86 401.78L568.657 365.46L542.845 326.725L518.974 290.905L515.261 285.331L485.713 240.993L455.879 196.222L453.988 193.384L420.781 143.56L419.83 142.131L382.955 86.7944Z" stroke="white" stroke-opacity="0.15" stroke-linecap="round" stroke-linejoin="round"/>
<path d="M382.955 86.7944L346.696 141.149L345.985 145.347L311.334 200.237L311.979 208.744L314.837 217.098L319.849 225.036L290.561 289.201L262.64 350.367L235.992 408.74L210.536 464.508L186.187 517.843L162.881 568.901" stroke="white" stroke-opacity="0.15" stroke-linecap="round" stroke-linejoin="round"/>
<path d="M383.372 677.206L383.326 612.266L383.28 545.061L383.23 475.464L383.177 403.354L383.123 328.585L383.07 251.012L383.013 170.472L382.955 86.7944" stroke="white" stroke-opacity="0.15" stroke-linecap="round" stroke-linejoin="round"/>
<path d="M429.54 673.126L424.433 608.859L419.142 542.287L413.664 473.291L407.976 401.734L402.074 327.466L395.947 250.336L389.579 170.174L382.955 86.7944" stroke="white" stroke-opacity="0.15" stroke-linecap="round" stroke-linejoin="round"/>
<path d="M473.722 662.262L463.836 599.58L453.579 534.548L442.929 467.037L431.866 396.902L420.364 323.986L408.4 248.121L395.939 169.123L382.955 86.7944" stroke="white" stroke-opacity="0.15" stroke-linecap="round" stroke-linejoin="round"/>
<path d="M514.237 645.179L500.065 584.892L485.328 522.209L469.99 456.987L454.023 389.071L437.383 318.286L420.021 244.45L401.895 167.358L382.955 86.7944" stroke="white" stroke-opacity="0.15" stroke-linecap="round" stroke-linejoin="round"/>
<path d="M382.955 86.7944L348.51 137.111L347.009 139.308L346.142 141.264L344.488 144.457L312.885 191.837L308.461 198.464L281.274 239.216L278.784 251.792L279.483 264.581L283.429 277.187L290.561 289.201L300.707 300.214L313.584 309.844L328.795 317.752L345.844 323.638L364.165 327.298L383.123 328.585L402.074 327.466L420.365 323.986L437.383 318.286L452.563 310.585L465.441 301.165L475.632 290.362L482.867 278.555L486.978 266.128L487.914 253.48L485.713 240.993L480.507 229.028L453.343 189.423L450.531 185.32L422.416 144.327L419.539 140.133L418.115 138.059L382.955 86.7944Z" stroke="white" stroke-opacity="0.15" stroke-linecap="round" stroke-linejoin="round"/>
<path d="M549.652 622.706L531.851 565.479L513.294 505.822L493.93 443.567L473.707 378.555L452.563 310.585L430.438 239.453L407.262 164.94L382.955 86.7944" stroke="white" stroke-opacity="0.15" stroke-linecap="round" stroke-linejoin="round"/>
<path d="M578.837 595.863L558.186 542.2L536.592 486.08L513.989 427.328L490.297 365.761L465.44 301.165L439.331 233.307L411.872 161.945L382.955 86.7944" stroke="white" stroke-opacity="0.15" stroke-linecap="round" stroke-linejoin="round"/>
<path d="M601.02 565.788L578.36 516.013L554.58 463.779L529.597 408.901L503.316 351.169L475.632 290.362L446.432 226.224L415.586 158.473L382.955 86.7944" stroke="white" stroke-opacity="0.15" stroke-linecap="round" stroke-linejoin="round"/>
<path d="M615.776 533.654L591.947 487.913L566.85 439.747L540.381 388.949L546.165 368.164L546.936 347.215L542.845 326.725L534.17 307.269L513.794 277.561L508.312 269.566" stroke="white" stroke-opacity="0.15" stroke-linecap="round" stroke-linejoin="round"/>
<path d="M622.985 500.604L598.797 458.901L573.229 414.825L573.76 389.816L568.657 365.46L558.282 342.425L540.927 317.121L534.17 307.27" stroke="white" stroke-opacity="0.15" stroke-linecap="round" stroke-linejoin="round"/>
<path d="M259.092 267.744L253.19 276.366L233.169 305.619L225.858 316.296L208.878 341.103L197.723 364.47L191.997 389.251L192.097 414.726L198.266 440.099L210.536 464.508L228.7 487.069L252.296 506.907L280.61 523.222L312.679 535.327L347.334 542.711L383.28 545.061L419.142 542.287L453.579 534.548L485.327 522.21L513.294 505.822L536.592 486.08L554.58 463.779L566.85 439.747L573.229 414.825L546.165 368.164L517.465 318.688L486.978 266.128L454.534 210.192L419.933 150.543L382.955 86.7944" stroke="white" stroke-opacity="0.15" stroke-linecap="round" stroke-linejoin="round"/>
<path d="M622.801 467.702L599.003 429.903L592.86 401.78L580.816 375.281L566.269 354.072L558.281 342.425" stroke="white" stroke-opacity="0.15" stroke-linecap="round" stroke-linejoin="round"/>
<path d="M208.878 341.104L200.195 353.79L186.072 374.418L176.049 389.064L164.619 405.757L149.832 436.267L141.76 468.818" stroke="white" stroke-opacity="0.15" stroke-linecap="round" stroke-linejoin="round"/>
<path d="M615.604 435.908L601.925 406.059L589.995 388.666L580.816 375.281" stroke="white" stroke-opacity="0.15" stroke-linecap="round" stroke-linejoin="round"/>
<path d="M186.072 374.417L173.088 401.406L166.38 411.46L149.832 436.267" stroke="white" stroke-opacity="0.15" stroke-linecap="round" stroke-linejoin="round"/>
<path d="M233.169 305.619L223.867 325.277L219.268 346.054L219.673 367.339L192.096 414.726L165.91 459.718L141.015 502.494" stroke="white" stroke-opacity="0.15" stroke-linecap="round" stroke-linejoin="round"/>
<path d="M286.821 227.233L281.275 239.216L278.333 243.628L251.666 283.608L248.148 300.313L219.268 346.054L191.997 389.251L166.197 430.109L141.761 468.817L141.016 502.494L148.006 536.244" stroke="white" stroke-opacity="0.15" stroke-linecap="round" stroke-linejoin="round"/>
<path d="M319.849 225.036L326.881 232.294L335.732 238.628L346.13 243.823L357.743 247.7L370.193 250.122L383.07 251.012L395.947 250.336L408.4 248.121L420.021 244.45L430.438 239.453L439.331 233.307L446.432 226.224L451.543 218.435L454.534 210.192L455.344 201.757L453.988 193.384L450.531 185.32" stroke="white" stroke-opacity="0.15" stroke-linecap="round" stroke-linejoin="round"/>
<path d="M316.552 183.799L312.885 191.837L311.334 200.237L278.784 251.792L248.147 300.313L248.762 317.366L253.606 334.235L262.64 350.367L275.667 365.196L292.329 378.188L312.121 388.857L334.384 396.795L358.35 401.688L383.177 403.354L407.976 401.734L431.866 396.902L454.022 389.071L473.707 378.554L490.297 365.761L503.316 351.169L512.43 335.301L517.465 318.687L518.378 301.864L515.261 285.331L508.312 269.566L484.674 235.106L480.506 229.028" stroke="white" stroke-opacity="0.15" stroke-linecap="round" stroke-linejoin="round"/>
<path d="M347.964 153.728L350.611 157.651L354.271 161.227L358.836 164.344L364.172 166.9L370.105 168.81L376.454 170.013L383.013 170.471L389.579 170.173L395.94 169.123L401.895 167.358L407.262 164.94L411.873 161.945L415.586 158.473L418.298 154.63L419.933 150.542L420.445 146.333L419.83 142.131L418.115 138.059" stroke="white" stroke-opacity="0.15" stroke-linecap="round" stroke-linejoin="round"/>
<path d="M348.51 137.111L346.142 141.264L342.593 145.76L316.552 183.8L313.561 188.17L307.812 196.57L286.821 227.233L282.363 233.75L278.131 239.931L259.092 267.744L251.666 283.608L247.762 289.465L223.867 325.277L197.723 364.47L191.932 373.153L173.088 401.406L166.197 430.109L165.91 459.718L172.546 489.3L186.187 517.843L206.647 544.289L233.425 567.587L265.708 586.764L302.391 600.982L342.108 609.611L383.326 612.266L424.433 608.859L463.836 599.58L500.065 584.892L531.851 565.479L558.186 542.2L578.36 516.013L591.947 487.914L598.797 458.901L599.003 429.903L573.76 389.816L546.936 347.215L518.378 301.864L487.914 253.48L455.344 201.757L420.445 146.333L382.955 86.7944" stroke="white" stroke-opacity="0.15" stroke-linecap="round" stroke-linejoin="round"/>
</g>
<defs>
<clipPath id="clip0_180_14501">
<rect width="764" height="764" fill="white" transform="matrix(-1 0 0 1 764 0)"/>
</clipPath>
</defs>
</svg>
