<svg width="764" height="764" viewBox="0 0 764 764" fill="none" xmlns="http://www.w3.org/2000/svg">
<g clip-path="url(#clip0_180_14497)">
<path d="M323.317 132.149L336.932 135.159L323.714 130.365L319.734 149.205L323.317 132.149Z" stroke="white" stroke-opacity="0.15"/>
<path d="M342.543 150.298L344.495 124.49L336.932 135.159L323.317 132.149L342.543 150.298Z" stroke="white" stroke-opacity="0.15"/>
<path d="M352.613 145.569L362.037 139.319L344.495 124.49L342.543 150.298L352.613 145.569Z" stroke="white" stroke-opacity="0.15"/>
<path d="M317.519 176.542L315.483 144.098L298.369 132.123L296.539 156.571L317.519 176.542Z" stroke="white" stroke-opacity="0.15"/>
<path d="M301.436 172.798L317.519 176.541L296.539 156.57L292.906 176.793L301.436 172.798Z" stroke="white" stroke-opacity="0.15"/>
<path d="M328.856 147.869L342.543 150.298L323.317 132.149L315.483 144.098L328.856 147.869Z" stroke="white" stroke-opacity="0.15"/>
<path d="M347.735 164.455L352.613 145.569L342.543 150.298L328.856 147.868L347.735 164.455Z" stroke="white" stroke-opacity="0.15"/>
<path d="M363.488 140.908L369.566 124.032L362.037 139.319L352.613 145.569L363.488 140.908Z" stroke="white" stroke-opacity="0.15"/>
<path d="M319.368 156.987L328.856 147.868L315.483 144.098L317.519 176.541L319.368 156.987Z" stroke="white" stroke-opacity="0.15"/>
<path d="M337.215 170.155L347.735 164.455L328.856 147.869L319.368 156.987L337.215 170.155Z" stroke="white" stroke-opacity="0.15"/>
<path d="M378.753 147.483L391.691 154.026L369.566 124.032L363.488 140.908L378.753 147.483Z" stroke="white" stroke-opacity="0.15"/>
<path d="M290.045 179.979L301.436 172.798L292.906 176.793L272.622 168.703L290.045 179.979Z" stroke="white" stroke-opacity="0.15"/>
<path d="M279.677 190.167L290.045 179.979L272.622 168.703L272.824 195.821L279.677 190.167Z" stroke="white" stroke-opacity="0.15"/>
<path d="M305.493 187.822L308.354 164.172L301.436 172.798L290.045 179.98L305.493 187.822Z" stroke="white" stroke-opacity="0.15"/>
<path d="M323.642 171.014L337.214 170.154L319.367 156.987L308.354 164.172L323.642 171.014Z" stroke="white" stroke-opacity="0.15"/>
<path d="M320.269 194.205L323.642 171.014L308.354 164.172L305.493 187.822L320.269 194.205Z" stroke="white" stroke-opacity="0.15"/>
<path d="M379.613 181.653L384.644 160.295L376.419 175.434L363.889 174.521L379.613 181.653Z" stroke="white" stroke-opacity="0.15"/>
<path d="M337.558 174.391L345.997 161.708L337.214 170.155L323.642 171.014L337.558 174.391Z" stroke="white" stroke-opacity="0.15"/>
<path d="M334.468 199.01L337.558 174.391L323.642 171.014L320.269 194.205L334.468 199.01Z" stroke="white" stroke-opacity="0.15"/>
<path d="M376.419 175.433L378.753 147.483L363.488 140.908L348.64 134.533L376.419 175.433Z" stroke="white" stroke-opacity="0.15"/>
<path d="M363.889 174.52L376.419 175.433L348.64 134.533L345.996 161.708L363.889 174.52Z" stroke="white" stroke-opacity="0.15"/>
<path d="M422.626 153.552L429.96 140.48L412.9 129.968L406.15 146.149L422.626 153.552Z" stroke="white" stroke-opacity="0.15"/>
<path d="M406.15 146.149L412.9 129.968L401.406 141.179L388.368 133.62L406.15 146.149Z" stroke="white" stroke-opacity="0.15"/>
<path d="M384.644 160.295L388.368 133.62L378.753 147.483L376.419 175.434L384.644 160.295Z" stroke="white" stroke-opacity="0.15"/>
<path d="M288.211 185.931L305.493 187.822L290.045 179.979L279.678 190.167L288.211 185.931Z" stroke="white" stroke-opacity="0.15"/>
<path d="M310.933 205.803L320.269 194.205L305.493 187.822L288.212 185.931L310.933 205.803Z" stroke="white" stroke-opacity="0.15"/>
<path d="M282.279 204.863L288.211 185.931L279.678 190.168L261.647 189.77L282.279 204.863Z" stroke="white" stroke-opacity="0.15"/>
<path d="M260.012 214.997L261.647 189.77L254.259 194.343L254.603 220.991L260.012 214.997Z" stroke="white" stroke-opacity="0.15"/>
<path d="M397.07 154.309L406.15 146.15L388.368 133.62L384.643 160.295L397.07 154.309Z" stroke="white" stroke-opacity="0.15"/>
<path d="M390.32 171.95L397.07 154.309L384.643 160.295L379.612 181.653L390.32 171.95Z" stroke="white" stroke-opacity="0.15"/>
<path d="M348.308 169.085L363.89 174.521L345.997 161.708L337.558 174.391L348.308 169.085Z" stroke="white" stroke-opacity="0.15"/>
<path d="M369.444 188.727L379.613 181.653L363.89 174.521L348.308 169.085L369.444 188.727Z" stroke="white" stroke-opacity="0.15"/>
<path d="M268.718 212.522L282.279 204.863L261.647 189.77L260.012 214.997L268.718 212.522Z" stroke="white" stroke-opacity="0.15"/>
<path d="M280.64 242.517L292.658 232.256L268.718 212.522L264.569 234.525L280.64 242.517Z" stroke="white" stroke-opacity="0.15"/>
<path d="M413.275 159.332L422.626 153.553L406.15 146.149L397.07 154.309L413.275 159.332Z" stroke="white" stroke-opacity="0.15"/>
<path d="M291.542 201.57L310.933 205.803L288.211 185.931L282.279 204.863L291.542 201.57Z" stroke="white" stroke-opacity="0.15"/>
<path d="M292.658 232.256L291.542 201.57L282.279 204.863L268.718 212.522L292.658 232.256Z" stroke="white" stroke-opacity="0.15"/>
<path d="M406.051 175.606L413.274 159.332L397.07 154.309L390.32 171.95L406.051 175.606Z" stroke="white" stroke-opacity="0.15"/>
<path d="M339.697 183.085L348.308 169.085L337.558 174.391L334.468 199.011L339.697 183.085Z" stroke="white" stroke-opacity="0.15"/>
<path d="M357.843 194.194L369.444 188.727L348.308 169.085L339.698 183.085L357.843 194.194Z" stroke="white" stroke-opacity="0.15"/>
<path d="M381.045 182.332L390.32 171.95L379.612 181.653L369.444 188.727L381.045 182.332Z" stroke="white" stroke-opacity="0.15"/>
<path d="M264.569 234.525L268.718 212.522L260.012 214.997L241.027 216.674L264.569 234.525Z" stroke="white" stroke-opacity="0.15"/>
<path d="M231.209 258.53L231.137 231.786L226.328 236.909L221.518 257.029L231.209 258.53Z" stroke="white" stroke-opacity="0.15"/>
<path d="M247.968 240.534L264.569 234.525L241.027 216.674L231.137 231.786L247.968 240.534Z" stroke="white" stroke-opacity="0.15"/>
<path d="M242.062 260.814L247.968 240.534L231.137 231.786L231.209 258.53L242.062 260.814Z" stroke="white" stroke-opacity="0.15"/>
<path d="M471.102 155.887L477.958 137.321L459.813 127.313L453.526 150.126L471.102 155.887Z" stroke="white" stroke-opacity="0.15"/>
<path d="M295.951 219.681L305.417 204.909L291.542 201.57L292.658 232.256L295.951 219.681Z" stroke="white" stroke-opacity="0.15"/>
<path d="M354.129 219.386L357.842 194.194L339.697 183.085L327.473 190.465L354.129 219.386Z" stroke="white" stroke-opacity="0.15"/>
<path d="M332.359 231.882L327.474 190.465L315.437 192.028L305.417 204.909L332.359 231.882Z" stroke="white" stroke-opacity="0.15"/>
<path d="M453.526 150.126L459.813 127.313L446.371 147.288L434.113 132.145L453.526 150.126Z" stroke="white" stroke-opacity="0.15"/>
<path d="M428.783 159.141L434.112 132.146L422.626 153.553L413.274 159.332L428.783 159.141Z" stroke="white" stroke-opacity="0.15"/>
<path d="M446.944 170.17L453.526 150.126L434.113 132.146L428.784 159.141L446.944 170.17Z" stroke="white" stroke-opacity="0.15"/>
<path d="M337.512 217.473L354.129 219.387L327.473 190.465L332.359 231.882L337.512 217.473Z" stroke="white" stroke-opacity="0.15"/>
<path d="M394.522 178.092L406.051 175.605L390.32 171.95L381.045 182.332L394.522 178.092Z" stroke="white" stroke-opacity="0.15"/>
<path d="M311.575 225.556L332.359 231.882L305.417 204.909L295.951 219.681L311.575 225.556Z" stroke="white" stroke-opacity="0.15"/>
<path d="M392.52 212.354L394.522 178.092L381.045 182.332L367.58 183.096L392.52 212.354Z" stroke="white" stroke-opacity="0.15"/>
<path d="M362.002 206.372L367.58 183.097L357.842 194.194L354.129 219.387L362.002 206.372Z" stroke="white" stroke-opacity="0.15"/>
<path d="M204.779 257.151L231.209 258.53L221.518 257.029L189.453 249.927L204.779 257.151Z" stroke="white" stroke-opacity="0.15"/>
<path d="M204.951 283.906L204.779 257.151L189.453 249.927L203.48 288.83L204.951 283.906Z" stroke="white" stroke-opacity="0.15"/>
<path d="M302.961 242.593L311.575 225.556L295.951 219.681L281.939 228.482L302.961 242.593Z" stroke="white" stroke-opacity="0.15"/>
<path d="M222.867 267.071L242.062 260.814L231.209 258.53L204.779 257.151L222.867 267.071Z" stroke="white" stroke-opacity="0.15"/>
<path d="M462.617 161.364L471.102 155.887L453.526 150.126L446.944 170.17L462.617 161.364Z" stroke="white" stroke-opacity="0.15"/>
<path d="M215.433 286.825L222.867 267.071L204.779 257.151L204.951 283.906L215.433 286.825Z" stroke="white" stroke-opacity="0.15"/>
<path d="M253.193 234.159L280.64 242.517L264.569 234.525L247.968 240.534L253.193 234.159Z" stroke="white" stroke-opacity="0.15"/>
<path d="M437.256 173.642L446.944 170.17L428.784 159.141L416.51 154.301L437.256 173.642Z" stroke="white" stroke-opacity="0.15"/>
<path d="M412.984 188.555L416.51 154.301L406.051 175.605L394.522 178.092L412.984 188.555Z" stroke="white" stroke-opacity="0.15"/>
<path d="M488.127 145.252L495.943 142.505L477.958 137.321L471.101 155.886L488.127 145.252Z" stroke="white" stroke-opacity="0.15"/>
<path d="M244.209 252.265L253.193 234.159L247.968 240.534L242.062 260.815L244.209 252.265Z" stroke="white" stroke-opacity="0.15"/>
<path d="M238.414 274.207L244.209 252.265L242.062 260.814L222.867 267.071L238.414 274.207Z" stroke="white" stroke-opacity="0.15"/>
<path d="M184.972 318.363L182.569 290.412L176.763 290.66L166.499 307.934L184.972 318.363Z" stroke="white" stroke-opacity="0.15"/>
<path d="M454.343 172.997L462.617 161.365L446.944 170.17L437.256 173.642L454.343 172.997Z" stroke="white" stroke-opacity="0.15"/>
<path d="M292.723 257.816L302.96 242.593L281.939 228.482L268.886 240.442L292.723 257.816Z" stroke="white" stroke-opacity="0.15"/>
<path d="M262.14 261.613L268.886 240.443L253.194 234.159L244.209 252.266L262.14 261.613Z" stroke="white" stroke-opacity="0.15"/>
<path d="M201.184 300.772L215.433 286.825L204.951 283.906L182.569 290.412L201.184 300.772Z" stroke="white" stroke-opacity="0.15"/>
<path d="M253.453 280.522L262.14 261.613L244.209 252.265L238.414 274.207L253.453 280.522Z" stroke="white" stroke-opacity="0.15"/>
<path d="M480.633 161.097L488.127 145.252L471.102 155.887L462.617 161.365L480.633 161.097Z" stroke="white" stroke-opacity="0.15"/>
<path d="M374.188 199.973L392.521 212.354L367.58 183.097L362.003 206.372L374.188 199.973Z" stroke="white" stroke-opacity="0.15"/>
<path d="M367.224 221.315L374.188 199.973L362.002 206.372L348.334 211.361L367.224 221.315Z" stroke="white" stroke-opacity="0.15"/>
<path d="M223.627 287.092L238.414 274.208L222.867 267.072L215.433 286.825L223.627 287.092Z" stroke="white" stroke-opacity="0.15"/>
<path d="M507.178 146.184L514.462 129.227L495.943 142.505L488.127 145.252L507.178 146.184Z" stroke="white" stroke-opacity="0.15"/>
<path d="M500.252 179.506L507.178 146.184L488.127 145.252L480.633 161.097L500.252 179.506Z" stroke="white" stroke-opacity="0.15"/>
<path d="M399.167 184.701L412.984 188.555L394.522 178.092L392.52 212.354L399.167 184.701Z" stroke="white" stroke-opacity="0.15"/>
<path d="M394.277 213.076L399.167 184.701L392.52 212.354L374.188 199.974L394.277 213.076Z" stroke="white" stroke-opacity="0.15"/>
<path d="M160.963 326.629L184.972 318.363L166.499 307.934L152.598 323.206L160.963 326.629Z" stroke="white" stroke-opacity="0.15"/>
<path d="M337.956 225.701L348.334 211.361L337.512 217.473L317.881 213.798L337.956 225.701Z" stroke="white" stroke-opacity="0.15"/>
<path d="M384.017 225.418L394.277 213.076L374.188 199.973L367.224 221.315L384.017 225.418Z" stroke="white" stroke-opacity="0.15"/>
<path d="M526.912 154.363L532.775 162.889L514.462 129.227L507.178 146.184L526.912 154.363Z" stroke="white" stroke-opacity="0.15"/>
<path d="M546.314 169.906L553.675 148.174L532.776 162.889L526.912 154.363L546.314 169.906Z" stroke="white" stroke-opacity="0.15"/>
<path d="M519.39 184.285L526.912 154.363L507.178 146.184L500.252 179.506L519.39 184.285Z" stroke="white" stroke-opacity="0.15"/>
<path d="M309.684 233.429L317.881 213.798L311.575 225.556L302.96 242.593L309.684 233.429Z" stroke="white" stroke-opacity="0.15"/>
<path d="M425.323 170.964L437.256 173.642L416.51 154.301L412.984 188.555L425.323 170.964Z" stroke="white" stroke-opacity="0.15"/>
<path d="M446.596 190.332L454.343 172.997L437.256 173.642L425.323 170.964L446.596 190.332Z" stroke="white" stroke-opacity="0.15"/>
<path d="M419.299 197.685L425.323 170.964L412.984 188.555L399.167 184.701L419.299 197.685Z" stroke="white" stroke-opacity="0.15"/>
<path d="M437.696 202.972L446.596 190.332L425.323 170.964L419.298 197.685L437.696 202.972Z" stroke="white" stroke-opacity="0.15"/>
<path d="M472.389 171.614L480.632 161.097L462.617 161.365L454.343 172.996L472.389 171.614Z" stroke="white" stroke-opacity="0.15"/>
<path d="M184.441 313.992L201.184 300.771L182.569 290.412L184.972 318.363L184.441 313.992Z" stroke="white" stroke-opacity="0.15"/>
<path d="M174.712 333.654L184.441 313.993L184.972 318.363L160.963 326.629L174.712 333.654Z" stroke="white" stroke-opacity="0.15"/>
<path d="M271.636 259.989L292.723 257.816L268.886 240.442L262.14 261.613L271.636 259.989Z" stroke="white" stroke-opacity="0.15"/>
<path d="M267.824 285.706L271.636 259.989L262.14 261.613L253.453 280.522L267.824 285.706Z" stroke="white" stroke-opacity="0.15"/>
<path d="M464.481 188.895L472.389 171.614L454.343 172.997L446.596 190.332L464.481 188.895Z" stroke="white" stroke-opacity="0.15"/>
<path d="M409.164 208.664L419.298 197.685L399.167 184.701L394.277 213.076L409.164 208.664Z" stroke="white" stroke-opacity="0.15"/>
<path d="M401.788 230.553L409.164 208.664L394.278 213.076L384.017 225.419L401.788 230.553Z" stroke="white" stroke-opacity="0.15"/>
<path d="M326.255 238.941L337.956 225.701L317.881 213.798L309.684 233.429L326.255 238.941Z" stroke="white" stroke-opacity="0.15"/>
<path d="M539.938 178.012L546.313 169.906L526.912 154.362L519.39 184.284L539.938 178.012Z" stroke="white" stroke-opacity="0.15"/>
<path d="M205.937 298.873L223.627 287.092L215.433 286.825L201.184 300.772L205.937 298.873Z" stroke="white" stroke-opacity="0.15"/>
<path d="M352.269 225.357L367.224 221.316L348.334 211.361L337.955 225.701L352.269 225.357Z" stroke="white" stroke-opacity="0.15"/>
<path d="M491.844 174.261L500.252 179.506L480.632 161.097L472.389 171.614L491.844 174.261Z" stroke="white" stroke-opacity="0.15"/>
<path d="M568.053 165.196L573.993 154.428L553.675 148.174L546.313 169.906L568.053 165.196Z" stroke="white" stroke-opacity="0.15"/>
<path d="M297.337 278.96L295.752 244.751L292.723 257.816L271.636 259.989L297.337 278.96Z" stroke="white" stroke-opacity="0.15"/>
<path d="M315.261 254.889L326.255 238.941L309.684 233.429L295.752 244.751L315.261 254.889Z" stroke="white" stroke-opacity="0.15"/>
<path d="M427.645 213.125L437.696 202.972L419.299 197.685L409.164 208.664L427.645 213.125Z" stroke="white" stroke-opacity="0.15"/>
<path d="M229.88 284.766L253.453 280.522L238.414 274.208L223.627 287.092L229.88 284.766Z" stroke="white" stroke-opacity="0.15"/>
<path d="M455.657 201.727L464.481 188.896L446.596 190.332L437.696 202.972L455.657 201.727Z" stroke="white" stroke-opacity="0.15"/>
<path d="M449.003 229.177L455.657 201.727L437.696 202.972L427.645 213.125L449.003 229.177Z" stroke="white" stroke-opacity="0.15"/>
<path d="M277.217 284.334L297.337 278.959L271.636 259.989L267.824 285.706L277.217 284.334Z" stroke="white" stroke-opacity="0.15"/>
<path d="M341.707 241.363L352.269 225.357L337.955 225.701L326.255 238.941L341.707 241.363Z" stroke="white" stroke-opacity="0.15"/>
<path d="M218.775 303.64L229.88 284.766L223.627 287.092L205.936 298.873L218.775 303.64Z" stroke="white" stroke-opacity="0.15"/>
<path d="M369.073 228.482L384.017 225.418L367.224 221.315L352.269 225.357L369.073 228.482Z" stroke="white" stroke-opacity="0.15"/>
<path d="M393.3 249.362L401.788 230.553L384.017 225.418L369.073 228.482L393.3 249.362Z" stroke="white" stroke-opacity="0.15"/>
<path d="M364.226 256.93L369.073 228.482L352.269 225.357L341.707 241.363L364.226 256.93Z" stroke="white" stroke-opacity="0.15"/>
<path d="M382.955 264.459L393.3 249.362L369.073 228.482L364.226 256.929L382.955 264.459Z" stroke="white" stroke-opacity="0.15"/>
<path d="M246.146 291.948L267.824 285.706L253.453 280.522L229.88 284.766L246.146 291.948Z" stroke="white" stroke-opacity="0.15"/>
<path d="M302.914 270.074L315.261 254.89L295.752 244.751L297.337 278.96L302.914 270.074Z" stroke="white" stroke-opacity="0.15"/>
<path d="M330.846 258.091L341.707 241.363L326.255 238.941L315.261 254.889L330.846 258.091Z" stroke="white" stroke-opacity="0.15"/>
<path d="M211.632 326.385L218.775 303.64L205.936 298.873L186.107 310.841L211.632 326.385Z" stroke="white" stroke-opacity="0.15"/>
<path d="M197.406 346.891L186.107 310.841L184.441 313.993L174.712 333.654L197.406 346.891Z" stroke="white" stroke-opacity="0.15"/>
<path d="M532.531 197.376L539.938 178.012L519.39 184.285L512.186 171.423L532.531 197.376Z" stroke="white" stroke-opacity="0.15"/>
<path d="M483.2 181.764L491.844 174.261L472.389 171.614L464.482 188.895L483.2 181.764Z" stroke="white" stroke-opacity="0.15"/>
<path d="M476.507 215.883L483.2 181.763L464.482 188.895L455.658 201.727L476.507 215.883Z" stroke="white" stroke-opacity="0.15"/>
<path d="M562.339 172.191L568.053 165.196L546.314 169.906L539.938 178.012L562.339 172.191Z" stroke="white" stroke-opacity="0.15"/>
<path d="M553.266 205.432L562.338 172.19L539.938 178.012L532.531 197.376L553.266 205.432Z" stroke="white" stroke-opacity="0.15"/>
<path d="M197.907 344.308L211.632 326.385L186.107 310.841L197.406 346.891L197.907 344.308Z" stroke="white" stroke-opacity="0.15"/>
<path d="M417.003 224.215L427.645 213.126L409.164 208.664L401.787 230.553L417.003 224.215Z" stroke="white" stroke-opacity="0.15"/>
<path d="M439.044 240.011L449.003 229.177L427.645 213.125L417.003 224.215L439.044 240.011Z" stroke="white" stroke-opacity="0.15"/>
<path d="M160.948 351.169L174.711 333.654L160.963 326.629L122.37 328.375L160.948 351.169Z" stroke="white" stroke-opacity="0.15"/>
<path d="M129.257 359.39L122.37 328.375L128.337 333.062L107.648 347.154L129.257 359.39Z" stroke="white" stroke-opacity="0.15"/>
<path d="M408.045 243.563L417.003 224.215L401.788 230.552L393.3 249.362L408.045 243.563Z" stroke="white" stroke-opacity="0.15"/>
<path d="M289.938 285.908L302.915 270.074L297.337 278.96L277.217 284.334L289.938 285.908Z" stroke="white" stroke-opacity="0.15"/>
<path d="M229.838 306.375L246.146 291.947L229.88 284.766L218.775 303.64L229.838 306.375Z" stroke="white" stroke-opacity="0.15"/>
<path d="M504.137 185.022L512.186 171.423L491.844 174.261L483.199 181.764L504.137 185.022Z" stroke="white" stroke-opacity="0.15"/>
<path d="M525.441 205.799L532.531 197.376L512.185 171.423L504.137 185.022L525.441 205.799Z" stroke="white" stroke-opacity="0.15"/>
<path d="M496.432 215.723L504.137 185.022L483.199 181.763L476.507 215.883L496.432 215.723Z" stroke="white" stroke-opacity="0.15"/>
<path d="M219.829 327.787L229.838 306.376L218.775 303.641L211.632 326.385L219.829 327.787Z" stroke="white" stroke-opacity="0.15"/>
<path d="M213.462 352.239L219.83 327.787L211.632 326.385L197.907 344.308L213.462 352.239Z" stroke="white" stroke-opacity="0.15"/>
<path d="M590.358 166.678L601.78 126.309L573.993 154.428L568.053 165.196L590.358 166.678Z" stroke="white" stroke-opacity="0.15"/>
<path d="M614.298 166.422L619.872 152.846L601.78 126.309L590.358 166.678L614.298 166.422Z" stroke="white" stroke-opacity="0.15"/>
<path d="M315.903 269.795L330.847 258.091L315.261 254.89L302.915 270.074L315.903 269.795Z" stroke="white" stroke-opacity="0.15"/>
<path d="M585.999 170.537L590.358 166.678L568.053 165.196L562.338 172.191L585.999 170.537Z" stroke="white" stroke-opacity="0.15"/>
<path d="M607.196 185.755L614.298 166.422L590.358 166.678L585.999 170.536L607.196 185.755Z" stroke="white" stroke-opacity="0.15"/>
<path d="M307.254 292.475L315.902 269.795L302.914 270.074L289.938 285.908L307.254 292.475Z" stroke="white" stroke-opacity="0.15"/>
<path d="M303.816 321.511L307.254 292.475L289.938 285.908L278.573 305.054L303.816 321.511Z" stroke="white" stroke-opacity="0.15"/>
<path d="M396.757 257.529L408.045 243.563L393.3 249.362L382.955 264.459L396.757 257.529Z" stroke="white" stroke-opacity="0.15"/>
<path d="M427.003 246.386L439.044 240.011L417.003 224.215L408.045 243.563L427.003 246.386Z" stroke="white" stroke-opacity="0.15"/>
<path d="M237.012 336.267L255.298 322.343L229.838 306.375L219.83 327.787L237.012 336.267Z" stroke="white" stroke-opacity="0.15"/>
<path d="M327.825 302.961L342.314 289.675L315.902 269.795L307.254 292.475L327.825 302.961Z" stroke="white" stroke-opacity="0.15"/>
<path d="M112.785 377.187L129.257 359.39L107.648 347.154L71.5104 355.444L112.785 377.187Z" stroke="white" stroke-opacity="0.15"/>
<path d="M95.8898 395.947L112.786 377.187L71.5105 355.443L75.3611 384.162L95.8898 395.947Z" stroke="white" stroke-opacity="0.15"/>
<path d="M123.13 356.467L160.948 351.169L122.37 328.375L129.258 359.39L123.13 356.467Z" stroke="white" stroke-opacity="0.15"/>
<path d="M125.006 384.93L123.13 356.467L129.257 359.39L112.785 377.187L125.006 384.93Z" stroke="white" stroke-opacity="0.15"/>
<path d="M639.419 167.255L644.568 153.312L619.872 152.846L614.298 166.422L639.419 167.255Z" stroke="white" stroke-opacity="0.15"/>
<path d="M517.843 211.647L525.441 205.799L504.137 185.022L496.432 215.723L517.843 211.647Z" stroke="white" stroke-opacity="0.15"/>
<path d="M343.017 253.442L364.226 256.93L341.707 241.363L330.846 258.091L343.017 253.442Z" stroke="white" stroke-opacity="0.15"/>
<path d="M372.626 281.24L382.955 264.459L364.226 256.93L343.017 253.442L372.626 281.24Z" stroke="white" stroke-opacity="0.15"/>
<path d="M342.314 289.675L343.017 253.442L330.847 258.091L315.903 269.795L342.314 289.675Z" stroke="white" stroke-opacity="0.15"/>
<path d="M278.573 305.054L289.938 285.908L277.217 284.334L251.272 286.729L278.573 305.054Z" stroke="white" stroke-opacity="0.15"/>
<path d="M255.298 322.343L251.272 286.729L246.146 291.948L229.838 306.376L255.298 322.343Z" stroke="white" stroke-opacity="0.15"/>
<path d="M150.393 343.43L197.406 346.891L174.712 333.654L160.948 351.169L150.393 343.43Z" stroke="white" stroke-opacity="0.15"/>
<path d="M185.866 364.34L197.907 344.308L197.406 346.891L150.394 343.43L185.866 364.34Z" stroke="white" stroke-opacity="0.15"/>
<path d="M162.629 378.486L150.393 343.43L160.948 351.169L123.13 356.467L162.629 378.486Z" stroke="white" stroke-opacity="0.15"/>
<path d="M417.652 266.323L427.003 246.386L408.045 243.563L396.757 257.529L417.652 266.323Z" stroke="white" stroke-opacity="0.15"/>
<path d="M386.962 277.412L396.757 257.529L382.955 264.459L372.626 281.24L386.962 277.412Z" stroke="white" stroke-opacity="0.15"/>
<path d="M356.166 288.361L372.626 281.24L343.017 253.442L342.314 289.675L356.166 288.361Z" stroke="white" stroke-opacity="0.15"/>
<path d="M408.973 289.197L417.652 266.323L396.757 257.529L386.962 277.412L408.973 289.197Z" stroke="white" stroke-opacity="0.15"/>
<path d="M162.644 378.986L185.866 364.34L150.394 343.43L162.629 378.486L162.644 378.986Z" stroke="white" stroke-opacity="0.15"/>
<path d="M579.773 182.94L586 170.537L562.338 172.191L553.266 205.432L579.773 182.94Z" stroke="white" stroke-opacity="0.15"/>
<path d="M464.447 203.801L476.507 215.883L455.657 201.727L449.003 229.177L464.447 203.801Z" stroke="white" stroke-opacity="0.15"/>
<path d="M488.551 238.269L496.432 215.723L476.507 215.883L464.447 203.801L488.551 238.269Z" stroke="white" stroke-opacity="0.15"/>
<path d="M456.933 233.253L464.447 203.801L449.003 229.177L439.044 240.011L456.933 233.253Z" stroke="white" stroke-opacity="0.15"/>
<path d="M479.444 248.919L488.551 238.269L464.447 203.801L456.933 233.253L479.444 248.919Z" stroke="white" stroke-opacity="0.15"/>
<path d="M664.329 172.618L671.682 151.238L644.568 153.312L639.418 167.255L664.329 172.618Z" stroke="white" stroke-opacity="0.15"/>
<path d="M602.46 195.088L607.197 185.755L586 170.537L579.773 182.94L602.46 195.088Z" stroke="white" stroke-opacity="0.15"/>
<path d="M260.727 318.646L278.574 305.054L251.272 286.729L255.298 322.343L260.727 318.646Z" stroke="white" stroke-opacity="0.15"/>
<path d="M286.485 334.712L303.816 321.51L278.573 305.054L260.726 318.645L286.485 334.712Z" stroke="white" stroke-opacity="0.15"/>
<path d="M257.865 347.723L260.727 318.646L255.298 322.343L237.012 336.267L257.865 347.723Z" stroke="white" stroke-opacity="0.15"/>
<path d="M376.625 297.242L386.962 277.413L372.626 281.24L356.166 288.361L376.625 297.242Z" stroke="white" stroke-opacity="0.15"/>
<path d="M540.416 218.962L549.24 190.328L525.441 205.799L517.843 211.647L540.416 218.962Z" stroke="white" stroke-opacity="0.15"/>
<path d="M219.138 352.735L237.012 336.267L219.829 327.787L213.461 352.238L219.138 352.735Z" stroke="white" stroke-opacity="0.15"/>
<path d="M187.379 363.912L213.462 352.238L197.907 344.308L185.866 364.34L187.379 363.912Z" stroke="white" stroke-opacity="0.15"/>
<path d="M311.643 316.541L327.825 302.961L307.254 292.475L303.816 321.51L311.643 316.541Z" stroke="white" stroke-opacity="0.15"/>
<path d="M238.334 362.946L257.865 347.723L237.012 336.267L219.138 352.735L238.334 362.946Z" stroke="white" stroke-opacity="0.15"/>
<path d="M636.893 172.744L639.418 167.255L614.298 166.422L607.197 185.755L636.893 172.744Z" stroke="white" stroke-opacity="0.15"/>
<path d="M628.394 197.104L636.894 172.744L607.197 185.755L602.46 195.087L628.394 197.104Z" stroke="white" stroke-opacity="0.15"/>
<path d="M596.218 209.974L602.46 195.088L579.773 182.94L573.367 194.889L596.218 209.974Z" stroke="white" stroke-opacity="0.15"/>
<path d="M562.927 231.587L573.367 194.889L549.24 190.328L540.415 218.962L562.927 231.587Z" stroke="white" stroke-opacity="0.15"/>
<path d="M114.745 382.195L162.629 378.486L123.13 356.467L125.006 384.93L114.745 382.195Z" stroke="white" stroke-opacity="0.15"/>
<path d="M266.804 348.399L286.485 334.712L260.727 318.646L257.865 347.723L266.804 348.399Z" stroke="white" stroke-opacity="0.15"/>
<path d="M339.231 298.812L356.166 288.36L342.314 289.674L327.825 302.96L339.231 298.812Z" stroke="white" stroke-opacity="0.15"/>
<path d="M365.158 316.277L376.625 297.242L356.166 288.36L339.232 298.812L365.158 316.277Z" stroke="white" stroke-opacity="0.15"/>
<path d="M79.9337 392.876L125.006 384.93L112.786 377.187L95.8898 395.947L79.9337 392.876Z" stroke="white" stroke-opacity="0.15"/>
<path d="M107.881 407.991L114.745 382.195L125.006 384.93L79.9337 392.876L107.881 407.991Z" stroke="white" stroke-opacity="0.15"/>
<path d="M509.416 213.294L517.843 211.647L496.432 215.723L488.552 238.269L509.416 213.294Z" stroke="white" stroke-opacity="0.15"/>
<path d="M532.875 229.319L540.416 218.963L517.843 211.647L509.416 213.294L532.875 229.319Z" stroke="white" stroke-opacity="0.15"/>
<path d="M166.3 381.527L187.379 363.913L185.866 364.34L162.644 378.986L166.3 381.527Z" stroke="white" stroke-opacity="0.15"/>
<path d="M557.021 237.34L562.927 231.587L540.416 218.962L532.875 229.318L557.021 237.34Z" stroke="white" stroke-opacity="0.15"/>
<path d="M436.214 263.866L443.812 233.127L427.004 246.386L417.652 266.323L436.214 263.866Z" stroke="white" stroke-opacity="0.15"/>
<path d="M392.902 295.424L408.973 289.197L386.962 277.413L376.625 297.242L392.902 295.424Z" stroke="white" stroke-opacity="0.15"/>
<path d="M384.25 321.56L392.902 295.424L376.625 297.242L365.158 316.277L384.25 321.56Z" stroke="white" stroke-opacity="0.15"/>
<path d="M195.359 367.404L219.138 352.735L213.462 352.239L187.379 363.913L195.359 367.404Z" stroke="white" stroke-opacity="0.15"/>
<path d="M189.377 394.629L195.359 367.404L187.379 363.913L166.3 381.527L189.377 394.629Z" stroke="white" stroke-opacity="0.15"/>
<path d="M467.476 245.042L479.444 248.919L456.933 233.253L443.811 233.127L467.476 245.042Z" stroke="white" stroke-opacity="0.15"/>
<path d="M460.746 282.97L467.477 245.042L443.812 233.127L436.214 263.866L460.746 282.97Z" stroke="white" stroke-opacity="0.15"/>
<path d="M500.359 230.976L509.416 213.293L488.551 238.269L479.444 248.919L500.359 230.976Z" stroke="white" stroke-opacity="0.15"/>
<path d="M524.429 247.005L532.875 229.318L509.416 213.293L500.359 230.976L524.429 247.005Z" stroke="white" stroke-opacity="0.15"/>
<path d="M491.882 264.509L500.359 230.977L479.444 248.919L467.476 245.042L491.882 264.509Z" stroke="white" stroke-opacity="0.15"/>
<path d="M515.375 284.067L524.429 247.005L500.359 230.977L491.882 264.509L515.375 284.067Z" stroke="white" stroke-opacity="0.15"/>
<path d="M407.04 332.6L420.838 319.857L392.902 295.424L384.25 321.56L407.04 332.6Z" stroke="white" stroke-opacity="0.15"/>
<path d="M666.457 169.448L664.329 172.618L639.419 167.255L636.894 172.744L666.457 169.448Z" stroke="white" stroke-opacity="0.15"/>
<path d="M285.087 356.872L291.394 328.371L286.485 334.712L266.804 348.399L285.087 356.872Z" stroke="white" stroke-opacity="0.15"/>
<path d="M658.561 192.459L666.457 169.448L636.894 172.744L628.394 197.105L658.561 192.459Z" stroke="white" stroke-opacity="0.15"/>
<path d="M214.122 377.653L238.333 362.946L219.138 352.735L195.358 367.404L214.122 377.653Z" stroke="white" stroke-opacity="0.15"/>
<path d="M211.124 407.021L214.123 377.653L195.359 367.404L189.377 394.629L211.124 407.021Z" stroke="white" stroke-opacity="0.15"/>
<path d="M481.943 278.497L491.882 264.508L467.476 245.042L460.745 282.97L481.943 278.497Z" stroke="white" stroke-opacity="0.15"/>
<path d="M506.555 297.402L515.375 284.067L491.882 264.508L481.943 278.497L506.555 297.402Z" stroke="white" stroke-opacity="0.15"/>
<path d="M423.806 276.881L436.213 263.867L417.652 266.323L408.973 289.197L423.806 276.881Z" stroke="white" stroke-opacity="0.15"/>
<path d="M449.014 293.835L460.746 282.971L436.214 263.867L423.806 276.881L449.014 293.835Z" stroke="white" stroke-opacity="0.15"/>
<path d="M420.838 319.856L423.806 276.881L408.973 289.197L392.902 295.424L420.838 319.856Z" stroke="white" stroke-opacity="0.15"/>
<path d="M439.839 319.207L449.014 293.835L423.806 276.881L420.838 319.856L439.839 319.207Z" stroke="white" stroke-opacity="0.15"/>
<path d="M322.821 313.645L339.231 298.812L327.825 302.961L311.643 316.541L322.821 313.645Z" stroke="white" stroke-opacity="0.15"/>
<path d="M549.282 253.197L557.021 237.34L532.875 229.318L524.429 247.005L549.282 253.197Z" stroke="white" stroke-opacity="0.15"/>
<path d="M540.045 280.415L549.282 253.198L524.429 247.005L515.375 284.067L540.045 280.415Z" stroke="white" stroke-opacity="0.15"/>
<path d="M245.764 363.977L266.804 348.399L257.865 347.723L238.334 362.946L245.764 363.977Z" stroke="white" stroke-opacity="0.15"/>
<path d="M281.24 386.531L285.087 356.872L266.804 348.399L245.764 363.977L281.24 386.531Z" stroke="white" stroke-opacity="0.15"/>
<path d="M627.076 198.258L628.394 197.104L602.46 195.087L596.218 209.974L627.076 198.258Z" stroke="white" stroke-opacity="0.15"/>
<path d="M647.666 223.165L658.561 192.459L628.394 197.105L627.076 198.258L647.666 223.165Z" stroke="white" stroke-opacity="0.15"/>
<path d="M163.164 412.228L189.376 394.629L166.3 381.526L151.05 403.942L163.164 412.228Z" stroke="white" stroke-opacity="0.15"/>
<path d="M112.724 383.67L162.644 378.986L162.629 378.486L114.745 382.195L112.724 383.67Z" stroke="white" stroke-opacity="0.15"/>
<path d="M151.05 403.942L166.3 381.527L162.644 378.986L112.724 383.67L151.05 403.942Z" stroke="white" stroke-opacity="0.15"/>
<path d="M140.412 424.792L112.724 383.669L114.745 382.195L107.881 407.991L140.412 424.792Z" stroke="white" stroke-opacity="0.15"/>
<path d="M471.927 298.709L481.943 278.497L460.746 282.97L449.014 293.834L471.927 298.709Z" stroke="white" stroke-opacity="0.15"/>
<path d="M497.024 313.546L506.555 297.402L481.943 278.497L471.927 298.709L497.024 313.546Z" stroke="white" stroke-opacity="0.15"/>
<path d="M308.656 334.044L322.821 313.645L311.643 316.541L291.394 328.371L308.656 334.044Z" stroke="white" stroke-opacity="0.15"/>
<path d="M305.616 367.094L308.656 334.044L291.394 328.371L285.087 356.872L305.616 367.094Z" stroke="white" stroke-opacity="0.15"/>
<path d="M594.041 206.116L596.218 209.974L573.367 194.889L562.927 231.587L594.041 206.116Z" stroke="white" stroke-opacity="0.15"/>
<path d="M581.159 249.339L594.041 206.116L562.927 231.587L557.021 237.34L581.159 249.339Z" stroke="white" stroke-opacity="0.15"/>
<path d="M392.769 348.701L407.04 332.6L384.25 321.56L377.951 351.333L392.769 348.701Z" stroke="white" stroke-opacity="0.15"/>
<path d="M123.505 422.767L151.051 403.942L112.725 383.669L140.412 424.792L123.505 422.767Z" stroke="white" stroke-opacity="0.15"/>
<path d="M163.771 442.563L163.164 412.228L151.05 403.942L123.504 422.767L163.771 442.563Z" stroke="white" stroke-opacity="0.15"/>
<path d="M620.773 215.211L627.076 198.258L596.218 209.974L594.041 206.116L620.773 215.211Z" stroke="white" stroke-opacity="0.15"/>
<path d="M640.412 244.58L647.666 223.165L627.076 198.258L620.773 215.211L640.412 244.58Z" stroke="white" stroke-opacity="0.15"/>
<path d="M609.844 247.204L620.773 215.211L594.041 206.116L581.16 249.339L609.844 247.204Z" stroke="white" stroke-opacity="0.15"/>
<path d="M326.694 377.504L330.69 344.457L308.656 334.044L305.615 367.095L326.694 377.504Z" stroke="white" stroke-opacity="0.15"/>
<path d="M225.147 382.814L245.764 363.977L238.334 362.946L214.123 377.653L225.147 382.814Z" stroke="white" stroke-opacity="0.15"/>
<path d="M257.151 401.536L281.24 386.531L245.763 363.978L225.147 382.814L257.151 401.536Z" stroke="white" stroke-opacity="0.15"/>
<path d="M232.71 419.337L225.147 382.814L214.122 377.653L211.124 407.021L232.71 419.337Z" stroke="white" stroke-opacity="0.15"/>
<path d="M531.824 294.033L540.045 280.415L515.375 284.067L506.555 297.403L531.824 294.033Z" stroke="white" stroke-opacity="0.15"/>
<path d="M576.931 251.959L581.16 249.339L557.021 237.34L549.282 253.197L576.931 251.959Z" stroke="white" stroke-opacity="0.15"/>
<path d="M425.705 331.179L439.839 319.207L420.838 319.856L407.04 332.6L425.705 331.179Z" stroke="white" stroke-opacity="0.15"/>
<path d="M604.163 261.765L609.844 247.204L581.159 249.339L576.931 251.96L604.163 261.765Z" stroke="white" stroke-opacity="0.15"/>
<path d="M172.301 419.421L211.124 407.021L189.377 394.629L163.164 412.228L172.301 419.421Z" stroke="white" stroke-opacity="0.15"/>
<path d="M174.059 451.471L172.301 419.421L163.164 412.228L163.771 442.563L174.059 451.471Z" stroke="white" stroke-opacity="0.15"/>
<path d="M640.389 247.945L640.412 244.58L620.773 215.211L609.844 247.204L640.389 247.945Z" stroke="white" stroke-opacity="0.15"/>
<path d="M568.332 274.269L576.931 251.96L549.281 253.198L540.045 280.415L568.332 274.269Z" stroke="white" stroke-opacity="0.15"/>
<path d="M233.581 420.628L257.151 401.536L225.147 382.814L232.71 419.337L233.581 420.628Z" stroke="white" stroke-opacity="0.15"/>
<path d="M413.798 353.743L425.705 331.179L407.04 332.6L392.769 348.701L413.798 353.743Z" stroke="white" stroke-opacity="0.15"/>
<path d="M331.041 408.156L350.455 390.396L326.694 377.504L309.306 397.158L331.041 408.156Z" stroke="white" stroke-opacity="0.15"/>
<path d="M334.048 308.083L365.158 316.277L339.231 298.812L322.821 313.645L334.048 308.083Z" stroke="white" stroke-opacity="0.15"/>
<path d="M377.951 351.333L384.25 321.56L365.158 316.277L334.048 308.083L377.951 351.333Z" stroke="white" stroke-opacity="0.15"/>
<path d="M330.69 344.457L334.048 308.083L322.821 313.645L308.656 334.044L330.69 344.457Z" stroke="white" stroke-opacity="0.15"/>
<path d="M459.569 310.642L471.927 298.709L449.014 293.834L439.839 319.207L459.569 310.642Z" stroke="white" stroke-opacity="0.15"/>
<path d="M486.427 328.238L497.024 313.546L471.927 298.709L459.569 310.643L486.427 328.238Z" stroke="white" stroke-opacity="0.15"/>
<path d="M257.22 434.132L276.477 411.934L257.151 401.536L233.582 420.628L257.22 434.132Z" stroke="white" stroke-opacity="0.15"/>
<path d="M275.41 375.945L305.615 367.094L285.087 356.872L281.24 386.531L275.41 375.945Z" stroke="white" stroke-opacity="0.15"/>
<path d="M309.306 397.158L326.694 377.504L305.616 367.095L275.411 375.946L309.306 397.158Z" stroke="white" stroke-opacity="0.15"/>
<path d="M276.476 411.934L275.41 375.945L281.24 386.531L257.151 401.535L276.476 411.934Z" stroke="white" stroke-opacity="0.15"/>
<path d="M290.763 418.775L309.306 397.158L275.411 375.945L276.477 411.934L290.763 418.775Z" stroke="white" stroke-opacity="0.15"/>
<path d="M559.821 295.038L568.332 274.269L540.045 280.415L531.824 294.033L559.821 295.038Z" stroke="white" stroke-opacity="0.15"/>
<path d="M596.982 281.03L604.164 261.766L576.931 251.96L568.332 274.269L596.982 281.03Z" stroke="white" stroke-opacity="0.15"/>
<path d="M353.499 419.375L367.641 395.175L350.454 390.396L331.041 408.156L353.499 419.375Z" stroke="white" stroke-opacity="0.15"/>
<path d="M186.687 429.208L232.71 419.337L211.124 407.021L172.301 419.421L186.687 429.208Z" stroke="white" stroke-opacity="0.15"/>
<path d="M187.925 462.06L186.687 429.208L172.301 419.421L174.058 451.471L187.925 462.06Z" stroke="white" stroke-opacity="0.15"/>
<path d="M400.21 375.506L413.798 353.744L392.769 348.701L378.253 368.072L400.21 375.506Z" stroke="white" stroke-opacity="0.15"/>
<path d="M447.754 332.008L459.569 310.643L439.839 319.207L425.705 331.179L447.754 332.008Z" stroke="white" stroke-opacity="0.15"/>
<path d="M476.553 355.875L486.427 328.237L459.569 310.643L447.754 332.008L476.553 355.875Z" stroke="white" stroke-opacity="0.15"/>
<path d="M637.325 259.397L640.389 247.945L609.844 247.204L604.164 261.765L637.325 259.397Z" stroke="white" stroke-opacity="0.15"/>
<path d="M343.021 341.118L377.951 351.333L334.047 308.083L330.69 344.457L343.021 341.118Z" stroke="white" stroke-opacity="0.15"/>
<path d="M378.253 368.073L392.769 348.701L377.951 351.333L343.021 341.119L378.253 368.073Z" stroke="white" stroke-opacity="0.15"/>
<path d="M350.455 390.397L343.021 341.119L330.69 344.457L326.694 377.504L350.455 390.397Z" stroke="white" stroke-opacity="0.15"/>
<path d="M367.64 395.175L378.252 368.073L343.021 341.119L350.454 390.397L367.64 395.175Z" stroke="white" stroke-opacity="0.15"/>
<path d="M588.937 302.919L596.982 281.03L568.332 274.269L559.821 295.038L588.937 302.919Z" stroke="white" stroke-opacity="0.15"/>
<path d="M576.251 340.985L588.937 302.919L559.821 295.038L549.121 328.18L576.251 340.985Z" stroke="white" stroke-opacity="0.15"/>
<path d="M436.202 357.541L447.754 332.008L425.705 331.179L413.798 353.743L436.202 357.541Z" stroke="white" stroke-opacity="0.15"/>
<path d="M426.568 388.945L436.202 357.541L413.798 353.744L400.21 375.506L426.568 388.945Z" stroke="white" stroke-opacity="0.15"/>
<path d="M205.638 441.195L233.582 420.628L232.711 419.337L186.687 429.208L205.638 441.195Z" stroke="white" stroke-opacity="0.15"/>
<path d="M235.797 457.938L257.22 434.132L233.582 420.628L205.638 441.195L235.797 457.938Z" stroke="white" stroke-opacity="0.15"/>
<path d="M204.603 474.001L205.638 441.195L186.687 429.208L187.925 462.06L204.603 474.001Z" stroke="white" stroke-opacity="0.15"/>
<path d="M310.073 428.753L331.041 408.155L309.305 397.158L290.763 418.775L310.073 428.753Z" stroke="white" stroke-opacity="0.15"/>
<path d="M628.234 286.038L637.325 259.397L604.164 261.766L596.982 281.03L628.234 286.038Z" stroke="white" stroke-opacity="0.15"/>
<path d="M523.317 295.722L531.824 294.033L506.555 297.402L497.024 313.546L523.317 295.722Z" stroke="white" stroke-opacity="0.15"/>
<path d="M549.121 328.18L559.821 295.038L531.825 294.033L523.317 295.722L549.121 328.18Z" stroke="white" stroke-opacity="0.15"/>
<path d="M512.736 346.482L523.317 295.722L497.024 313.546L486.428 328.238L512.736 346.482Z" stroke="white" stroke-opacity="0.15"/>
<path d="M216.652 485.106L235.797 457.938L205.638 441.195L204.603 474.001L216.652 485.106Z" stroke="white" stroke-opacity="0.15"/>
<path d="M333.268 441.191L353.499 419.375L331.041 408.156L310.073 428.753L333.268 441.191Z" stroke="white" stroke-opacity="0.15"/>
<path d="M264.608 439.136L290.763 418.775L276.476 411.934L257.22 434.132L264.608 439.136Z" stroke="white" stroke-opacity="0.15"/>
<path d="M268.55 475.598L264.608 439.136L257.22 434.132L235.797 457.938L268.55 475.598Z" stroke="white" stroke-opacity="0.15"/>
<path d="M383.238 395.592L400.21 375.506L378.253 368.072L367.641 395.175L383.238 395.592Z" stroke="white" stroke-opacity="0.15"/>
<path d="M242.276 500.573L268.55 475.598L235.797 457.938L216.651 485.106L242.276 500.573Z" stroke="white" stroke-opacity="0.15"/>
<path d="M411.097 410.391L426.568 388.945L400.21 375.506L383.238 395.592L411.097 410.391Z" stroke="white" stroke-opacity="0.15"/>
<path d="M461.75 363.817L476.553 355.875L447.754 332.008L436.202 357.541L461.75 363.817Z" stroke="white" stroke-opacity="0.15"/>
<path d="M288.593 452.972L310.073 428.753L290.763 418.775L264.608 439.136L288.593 452.972Z" stroke="white" stroke-opacity="0.15"/>
<path d="M318.875 470.101L333.269 441.191L310.073 428.753L288.594 452.972L318.875 470.101Z" stroke="white" stroke-opacity="0.15"/>
<path d="M283.165 486.481L288.593 452.972L264.607 439.136L268.55 475.598L283.165 486.481Z" stroke="white" stroke-opacity="0.15"/>
<path d="M313.106 503.186L318.875 470.101L288.593 452.972L283.165 486.481L313.106 503.186Z" stroke="white" stroke-opacity="0.15"/>
<path d="M623.294 302.819L628.233 286.038L596.982 281.03L588.937 302.918L623.294 302.819Z" stroke="white" stroke-opacity="0.15"/>
<path d="M611.284 336.775L623.294 302.819L588.937 302.919L576.251 340.985L611.284 336.775Z" stroke="white" stroke-opacity="0.15"/>
<path d="M501.795 346.913L512.736 346.482L486.428 328.237L476.553 355.875L501.795 346.913Z" stroke="white" stroke-opacity="0.15"/>
<path d="M490.809 378.627L501.795 346.914L476.553 355.875L461.75 363.817L490.809 378.627Z" stroke="white" stroke-opacity="0.15"/>
<path d="M520.467 392.746L530.892 368.596L501.795 346.914L490.809 378.627L520.467 392.746Z" stroke="white" stroke-opacity="0.15"/>
<path d="M367.033 420.865L383.238 395.592L367.641 395.175L353.499 419.375L367.033 420.865Z" stroke="white" stroke-opacity="0.15"/>
<path d="M401.78 443.292L411.097 410.39L383.238 395.592L367.033 420.865L401.78 443.292Z" stroke="white" stroke-opacity="0.15"/>
<path d="M360.36 456.257L367.033 420.865L353.499 419.375L333.268 441.191L360.36 456.257Z" stroke="white" stroke-opacity="0.15"/>
<path d="M542.852 328.131L549.121 328.18L523.317 295.722L512.736 346.482L542.852 328.131Z" stroke="white" stroke-opacity="0.15"/>
<path d="M530.892 368.596L542.853 328.13L512.736 346.482L501.795 346.913L530.892 368.596Z" stroke="white" stroke-opacity="0.15"/>
<path d="M573.928 341.378L576.251 340.985L549.121 328.18L542.853 328.13L573.928 341.378Z" stroke="white" stroke-opacity="0.15"/>
<path d="M604.255 359.226L611.284 336.775L576.251 340.985L573.928 341.378L604.255 359.226Z" stroke="white" stroke-opacity="0.15"/>
<path d="M559.611 385.457L573.928 341.378L542.853 328.13L530.892 368.596L559.611 385.457Z" stroke="white" stroke-opacity="0.15"/>
<path d="M447.349 385.155L461.75 363.817L436.202 357.541L426.568 388.945L447.349 385.155Z" stroke="white" stroke-opacity="0.15"/>
<path d="M480.629 414.195L490.809 378.627L461.75 363.817L447.349 385.155L480.629 414.195Z" stroke="white" stroke-opacity="0.15"/>
<path d="M436.97 420.456L447.349 385.155L426.568 388.945L411.097 410.39L436.97 420.456Z" stroke="white" stroke-opacity="0.15"/>
<path d="M594.281 388.788L604.255 359.225L573.928 341.378L559.611 385.457L594.281 388.788Z" stroke="white" stroke-opacity="0.15"/>
<path d="M336.718 480.965L360.36 456.257L333.268 441.191L318.875 470.101L336.718 480.965Z" stroke="white" stroke-opacity="0.15"/>
<path d="M552.422 401.516L559.611 385.457L530.892 368.596L520.467 392.746L552.422 401.516Z" stroke="white" stroke-opacity="0.15"/>
<path d="M249.079 512.193L283.165 486.481L268.55 475.598L242.276 500.573L249.079 512.193Z" stroke="white" stroke-opacity="0.15"/>
<path d="M509.057 412.793L520.467 392.746L490.809 378.627L480.629 414.195L509.057 412.793Z" stroke="white" stroke-opacity="0.15"/>
<path d="M464.462 429.005L480.628 414.195L447.349 385.155L436.97 420.456L464.462 429.005Z" stroke="white" stroke-opacity="0.15"/>
<path d="M497.097 448.525L509.057 412.793L480.629 414.195L464.462 429.005L497.097 448.525Z" stroke="white" stroke-opacity="0.15"/>
<path d="M272.882 528.795L313.106 503.186L283.165 486.481L249.079 512.193L272.882 528.795Z" stroke="white" stroke-opacity="0.15"/>
<path d="M313.049 511.059L336.718 480.965L318.875 470.101L313.106 503.186L313.049 511.059Z" stroke="white" stroke-opacity="0.15"/>
<path d="M305.291 547.284L313.049 511.059L313.106 503.186L272.882 528.795L305.291 547.284Z" stroke="white" stroke-opacity="0.15"/>
<path d="M370.525 457.9L401.78 443.292L367.034 420.865L360.36 456.257L370.525 457.9Z" stroke="white" stroke-opacity="0.15"/>
<path d="M361.246 495.42L370.525 457.9L360.36 456.257L336.718 480.965L361.246 495.42Z" stroke="white" stroke-opacity="0.15"/>
<path d="M483.807 478.822L497.097 448.526L464.462 429.005L453.801 466.269L483.807 478.822Z" stroke="white" stroke-opacity="0.15"/>
<path d="M517.396 500.122L529.46 465.83L497.097 448.525L483.807 478.822L517.396 500.122Z" stroke="white" stroke-opacity="0.15"/>
<path d="M414.986 438.773L436.97 420.456L411.097 410.39L401.78 443.292L414.986 438.773Z" stroke="white" stroke-opacity="0.15"/>
<path d="M453.801 466.269L464.462 429.005L436.97 420.456L414.986 438.773L453.801 466.269Z" stroke="white" stroke-opacity="0.15"/>
<path d="M402.556 475.609L414.986 438.773L401.78 443.292L370.525 457.9L402.556 475.609Z" stroke="white" stroke-opacity="0.15"/>
<path d="M438.127 496.382L453.801 466.269L414.986 438.773L402.555 475.609L438.127 496.382Z" stroke="white" stroke-opacity="0.15"/>
<path d="M543.399 422.427L552.422 401.516L520.468 392.746L509.057 412.793L543.399 422.427Z" stroke="white" stroke-opacity="0.15"/>
<path d="M529.46 465.83L543.399 422.427L509.057 412.793L497.097 448.525L529.46 465.83Z" stroke="white" stroke-opacity="0.15"/>
<path d="M552.403 515.635L565.498 478.241L529.46 465.83L517.396 500.122L552.403 515.635Z" stroke="white" stroke-opacity="0.15"/>
<path d="M469.898 513.122L483.807 478.822L453.801 466.27L438.127 496.383L469.898 513.122Z" stroke="white" stroke-opacity="0.15"/>
<path d="M592.039 402.506L594.281 388.788L559.611 385.457L552.422 401.516L592.039 402.506Z" stroke="white" stroke-opacity="0.15"/>
<path d="M386.263 510.406L402.556 475.609L370.525 457.9L361.246 495.42L386.263 510.406Z" stroke="white" stroke-opacity="0.15"/>
<path d="M421.064 530.186L438.127 496.383L402.556 475.609L386.263 510.406L421.064 530.186Z" stroke="white" stroke-opacity="0.15"/>
<path d="M579.777 438.464L592.039 402.506L552.422 401.517L543.399 422.427L579.777 438.464Z" stroke="white" stroke-opacity="0.15"/>
<path d="M565.498 478.241L579.777 438.464L543.399 422.427L529.46 465.83L565.498 478.241Z" stroke="white" stroke-opacity="0.15"/>
<path d="M334.59 527.214L361.246 495.42L336.718 480.965L313.049 511.059L334.59 527.214Z" stroke="white" stroke-opacity="0.15"/>
<path d="M327.687 565.628L334.59 527.214L313.049 511.059L305.29 547.284L327.687 565.628Z" stroke="white" stroke-opacity="0.15"/>
<path d="M365.841 546.829L386.263 510.406L361.246 495.42L334.59 527.214L365.841 546.829Z" stroke="white" stroke-opacity="0.15"/>
<path d="M406.658 567.843L421.063 530.186L386.263 510.406L365.842 546.829L406.658 567.843Z" stroke="white" stroke-opacity="0.15"/>
<path d="M349.087 586.68L365.841 546.83L334.59 527.214L327.687 565.628L349.087 586.68Z" stroke="white" stroke-opacity="0.15"/>
<path d="M392.944 606.115L406.658 567.843L365.841 546.829L349.087 586.679L392.944 606.115Z" stroke="white" stroke-opacity="0.15"/>
<path d="M503.846 528.524L517.396 500.122L483.807 478.822L469.898 513.122L503.846 528.524Z" stroke="white" stroke-opacity="0.15"/>
<path d="M540.756 551.963L552.403 515.635L517.396 500.122L503.847 528.524L540.756 551.963Z" stroke="white" stroke-opacity="0.15"/>
<path d="M527.351 590.954L540.755 551.963L503.847 528.524L490.69 570.204L527.351 590.954Z" stroke="white" stroke-opacity="0.15"/>
<path d="M447.601 547.227L469.898 513.122L438.128 496.382L421.064 530.186L447.601 547.227Z" stroke="white" stroke-opacity="0.15"/>
<path d="M490.691 570.204L503.847 528.524L469.898 513.122L447.601 547.227L490.691 570.204Z" stroke="white" stroke-opacity="0.15"/>
<path d="M433.41 590.496L447.601 547.227L421.064 530.186L406.658 567.843L433.41 590.496Z" stroke="white" stroke-opacity="0.15"/>
<path d="M414.222 636.393L433.41 590.496L406.658 567.843L392.944 606.116L414.222 636.393Z" stroke="white" stroke-opacity="0.15"/>
<path d="M470.597 616.793L490.69 570.204L447.601 547.227L433.41 590.496L470.597 616.793Z" stroke="white" stroke-opacity="0.15"/>
<path d="M513.958 639.843L527.351 590.954L490.691 570.204L470.597 616.793L513.958 639.843Z" stroke="white" stroke-opacity="0.15"/>
<path d="M460.608 653.155L470.597 616.792L433.409 590.496L414.222 636.393L460.608 653.155Z" stroke="white" stroke-opacity="0.15"/>
<path d="M498.101 685.648L513.958 639.842L470.597 616.792L460.608 653.155L498.101 685.648Z" stroke="white" stroke-opacity="0.15"/>
<path d="M377.951 351.333L334.047 308.083" stroke="white" stroke-opacity="0.15" stroke-linecap="round" stroke-linejoin="round"/>
<path d="M343.021 341.119L350.455 390.397L331.041 408.156L310.073 428.753L288.593 452.972L283.165 486.481L249.079 512.194" stroke="white" stroke-opacity="0.15" stroke-linecap="round" stroke-linejoin="round"/>
<path d="M414.222 636.393L433.41 590.496L447.601 547.226L469.898 513.121L483.807 478.822L497.097 448.525L509.057 412.793" stroke="white" stroke-opacity="0.15" stroke-linecap="round" stroke-linejoin="round"/>
<path d="M376.419 175.433L359.844 151.027L348.64 134.533" stroke="white" stroke-opacity="0.15" stroke-linecap="round" stroke-linejoin="round"/>
<path d="M498.101 685.648L513.958 639.842L527.351 590.954L540.755 551.963L552.403 515.635L565.498 478.241L579.777 438.463L592.039 402.506L594.281 388.788L604.255 359.225L611.284 336.775L623.294 302.819L628.233 286.038L637.325 259.397L640.389 247.945L640.412 244.579L620.773 215.211L600.546 208.327L597.36 207.243L594.041 206.116L592.921 207.797L581.16 249.339L576.931 251.96L568.332 274.268L540.045 280.415L515.375 284.067L491.882 264.508L476.564 252.288L467.476 245.042L445.118 233.402L443.811 233.127L436.966 238.525L427.003 246.386L408.045 243.563L396.757 257.529L382.955 264.459L364.226 256.929L343.231 242.417L341.707 241.363L326.255 238.941L309.684 233.429L306.135 236.313L300.47 240.92L295.752 244.751L297.246 276.992L296.275 278.176L295.16 279.54L289.938 285.908L277.217 284.334L267.901 285.194L266.712 285.304L251.272 286.729L246.146 291.947L229.838 306.375L219.83 327.787L213.462 352.238L187.379 363.912L186.16 364.512L166.3 381.526L151.051 403.942L134.151 415.49L123.505 422.767" stroke="white" stroke-opacity="0.15" stroke-linecap="round" stroke-linejoin="round"/>
<path d="M162.476 378.497L124.773 381.416L114.527 382.856L112.724 383.669" stroke="white" stroke-opacity="0.15" stroke-linecap="round" stroke-linejoin="round"/>
<path d="M414.986 438.773L453.801 466.269L483.807 478.822L517.396 500.122L552.403 515.635" stroke="white" stroke-opacity="0.15" stroke-linecap="round" stroke-linejoin="round"/>
<path d="M71.5103 355.443L112.785 377.187L115.761 379.074" stroke="white" stroke-opacity="0.15" stroke-linecap="round" stroke-linejoin="round"/>
<path d="M123.13 356.467L162.434 378.379" stroke="white" stroke-opacity="0.15" stroke-linecap="round" stroke-linejoin="round"/>
<path d="M480.628 414.195L447.349 385.156L426.568 388.945L400.21 375.506L378.252 368.073L343.021 341.119" stroke="white" stroke-opacity="0.15" stroke-linecap="round" stroke-linejoin="round"/>
<path d="M349.087 586.68L365.842 546.829L386.263 510.406L402.556 475.609L414.986 438.773" stroke="white" stroke-opacity="0.15" stroke-linecap="round" stroke-linejoin="round"/>
<path d="M527.351 590.954L490.691 570.204L447.601 547.227L421.064 530.186L386.263 510.406L361.246 495.42L336.718 480.965L318.875 470.101L288.594 452.972L264.608 439.136L257.22 434.132L233.582 420.628L232.711 419.337L225.147 382.814L245.764 363.978L266.804 348.4L286.485 334.712L291.394 328.371L303.495 321.3L303.866 321.087L311.643 316.541L327.825 302.961L339.232 298.812L365.158 316.277L384.25 321.56L407.04 332.6L425.705 331.179L439.839 319.207L449.015 293.835L460.746 282.971L481.943 278.497L506.555 297.403L522.916 295.221L523.375 295.435L531.824 294.033L540.045 280.415L549.282 253.197L557.021 237.341L562.927 231.588L573.367 194.889L579.773 182.94L586 170.536L590.358 166.678L614.298 166.422L639.419 167.255L655.359 170.685L666.457 169.448" stroke="white" stroke-opacity="0.15" stroke-linecap="round" stroke-linejoin="round"/>
<path d="M488.551 238.269L475.716 219.914L464.447 203.801" stroke="white" stroke-opacity="0.15" stroke-linecap="round" stroke-linejoin="round"/>
<path d="M549.121 328.18L544.541 322.42L523.317 295.722" stroke="white" stroke-opacity="0.15" stroke-linecap="round" stroke-linejoin="round"/>
<path d="M392.944 606.116L406.658 567.843L421.063 530.186L438.127 496.383L453.801 466.269L464.462 429.005" stroke="white" stroke-opacity="0.15" stroke-linecap="round" stroke-linejoin="round"/>
<path d="M112.724 383.669L113.721 386.038L134.151 415.49" stroke="white" stroke-opacity="0.15" stroke-linecap="round" stroke-linejoin="round"/>
<path d="M576.251 340.985L588.937 302.918L596.982 281.03L604.164 261.765L609.844 247.204L620.773 215.211L627.076 198.258L628.394 197.104L636.894 172.744" stroke="white" stroke-opacity="0.15" stroke-linecap="round" stroke-linejoin="round"/>
<path d="M275.411 375.945L309.306 397.158L331.041 408.156L353.499 419.375L367.033 420.865L401.78 443.292L414.986 438.773L436.97 420.456L447.349 385.155L461.75 363.817L476.553 355.875L486.427 328.237L497.024 313.546L506.555 297.402L515.375 284.067L524.429 247.005L532.875 229.318L540.416 218.962L549.24 190.328" stroke="white" stroke-opacity="0.15" stroke-linecap="round" stroke-linejoin="round"/>
<path d="M579.777 438.463L543.399 422.427L509.057 412.793" stroke="white" stroke-opacity="0.15" stroke-linecap="round" stroke-linejoin="round"/>
<path d="M592.039 402.506L552.422 401.516L520.468 392.746L490.809 378.627L461.75 363.817L436.202 357.541L413.798 353.744L392.769 348.701" stroke="white" stroke-opacity="0.15" stroke-linecap="round" stroke-linejoin="round"/>
<path d="M601.78 126.309L573.993 154.428L568.053 165.196L546.313 169.906L535.316 161.097L529.085 156.105L526.912 154.363L507.177 146.184L488.127 145.252L471.101 155.887L462.617 161.365L454.343 172.997L446.596 190.332L437.695 202.972L427.645 213.126L417.003 224.215L401.787 230.553L384.017 225.418L367.224 221.316L347.807 211.659L327.473 190.465L320.685 191.348L315.436 192.028L315.383 192.097L307.235 202.571L305.623 204.645L305.417 204.909L295.951 219.681L292.283 221.984L285.426 226.293L281.939 228.482L271.556 237.998L270.12 239.316L268.886 240.443L262.14 261.613L253.453 280.522L229.88 284.766L228.421 287.245L218.775 303.641L211.632 326.385L197.906 344.308L197.043 345.745L196.631 346.436L196.401 346.814L186.882 363.695L186.16 364.512L161.762 350.13L150.393 343.43" stroke="white" stroke-opacity="0.15" stroke-linecap="round" stroke-linejoin="round"/>
<path d="M112.724 383.669L114.023 384.911L151.05 403.942L163.164 412.228L172.301 419.421L186.687 429.208L205.638 441.195L235.797 457.938L268.55 475.598" stroke="white" stroke-opacity="0.15" stroke-linecap="round" stroke-linejoin="round"/>
<path d="M464.462 429.005L497.097 448.526L529.46 465.83L565.498 478.241" stroke="white" stroke-opacity="0.15" stroke-linecap="round" stroke-linejoin="round"/>
<path d="M460.608 653.155L470.597 616.793L490.69 570.204L503.846 528.524L517.396 500.122L529.46 465.83L543.399 422.427L552.422 401.517L559.611 385.457L573.928 341.378" stroke="white" stroke-opacity="0.15" stroke-linecap="round" stroke-linejoin="round"/>
<path d="M150.393 343.43L151.054 345.321L153.442 352.219L162.434 378.379L162.552 378.493L162.644 378.986" stroke="white" stroke-opacity="0.15" stroke-linecap="round" stroke-linejoin="round"/>
<path d="M189.453 249.927L202.013 284.762" stroke="white" stroke-opacity="0.15" stroke-linecap="round" stroke-linejoin="round"/>
<path d="M480.629 414.195L490.809 378.627L501.795 346.914" stroke="white" stroke-opacity="0.15" stroke-linecap="round" stroke-linejoin="round"/>
<path d="M334.048 308.083L330.69 344.457L326.694 377.504L309.306 397.158L290.763 418.775L264.608 439.136L268.55 475.598L283.165 486.481L313.107 503.186" stroke="white" stroke-opacity="0.15" stroke-linecap="round" stroke-linejoin="round"/>
<path d="M343.017 253.442L342.314 289.675L335.263 296.142L327.825 302.961" stroke="white" stroke-opacity="0.15" stroke-linecap="round" stroke-linejoin="round"/>
<path d="M611.284 336.775L576.251 340.985L549.121 328.18L542.853 328.13L512.736 346.482L501.795 346.913L476.553 355.875L447.754 332.008L425.705 331.179" stroke="white" stroke-opacity="0.15" stroke-linecap="round" stroke-linejoin="round"/>
<path d="M604.255 359.225L573.928 341.378L552.277 332.149L548.376 330.484L542.853 328.13" stroke="white" stroke-opacity="0.15" stroke-linecap="round" stroke-linejoin="round"/>
<path d="M594.281 388.788L559.611 385.457L530.892 368.596L501.795 346.914" stroke="white" stroke-opacity="0.15" stroke-linecap="round" stroke-linejoin="round"/>
<path d="M549.121 328.18L559.821 295.038L568.332 274.269" stroke="white" stroke-opacity="0.15" stroke-linecap="round" stroke-linejoin="round"/>
<path d="M476.507 215.883L483.2 181.763" stroke="white" stroke-opacity="0.15" stroke-linecap="round" stroke-linejoin="round"/>
<path d="M623.294 302.819L588.937 302.919L559.821 295.038L531.824 294.033L523.374 295.435L513.251 302.548L497.024 313.546" stroke="white" stroke-opacity="0.15" stroke-linecap="round" stroke-linejoin="round"/>
<path d="M113.477 386.962L102.189 388.953" stroke="white" stroke-opacity="0.15" stroke-linecap="round" stroke-linejoin="round"/>
<path d="M392.543 211.945L394.522 178.092" stroke="white" stroke-opacity="0.15" stroke-linecap="round" stroke-linejoin="round"/>
<path d="M637.325 259.397L604.164 261.766L576.931 251.96L549.282 253.197L524.429 247.005L500.359 230.977" stroke="white" stroke-opacity="0.15" stroke-linecap="round" stroke-linejoin="round"/>
<path d="M305.615 367.095L308.656 334.044L322.821 313.645L331.618 305.692L339.231 298.812L342.173 296.998L347.597 293.647L356.165 288.361L372.626 281.24L382.955 264.459L393.3 249.362L401.788 230.553L409.164 208.664L419.299 197.685L425.323 170.964" stroke="white" stroke-opacity="0.15" stroke-linecap="round" stroke-linejoin="round"/>
<path d="M647.666 223.165L627.076 198.258" stroke="white" stroke-opacity="0.15" stroke-linecap="round" stroke-linejoin="round"/>
<path d="M365.158 316.277L334.048 308.083L322.821 313.645L311.643 316.54" stroke="white" stroke-opacity="0.15" stroke-linecap="round" stroke-linejoin="round"/>
<path d="M512.736 346.482L486.428 328.237L459.569 310.643" stroke="white" stroke-opacity="0.15" stroke-linecap="round" stroke-linejoin="round"/>
<path d="M393.3 249.362L369.073 228.482" stroke="white" stroke-opacity="0.15" stroke-linecap="round" stroke-linejoin="round"/>
<path d="M79.9335 392.875L107.881 407.991L121.346 414.944L123.504 422.767L163.771 442.562" stroke="white" stroke-opacity="0.15" stroke-linecap="round" stroke-linejoin="round"/>
<path d="M305.615 367.095L282.898 373.749L275.41 375.946" stroke="white" stroke-opacity="0.15" stroke-linecap="round" stroke-linejoin="round"/>
<path d="M460.746 282.971L436.214 263.867L417.652 266.323L396.757 257.529" stroke="white" stroke-opacity="0.15" stroke-linecap="round" stroke-linejoin="round"/>
<path d="M296.275 278.176L271.636 259.989L262.14 261.613L244.209 252.265" stroke="white" stroke-opacity="0.15" stroke-linecap="round" stroke-linejoin="round"/>
<path d="M529.085 156.105L527.298 152.823L514.463 129.227" stroke="white" stroke-opacity="0.15" stroke-linecap="round" stroke-linejoin="round"/>
<path d="M153.423 352.223L128.444 355.723L123.906 356.36L123.123 356.189L107.648 347.154L71.5106 355.444" stroke="white" stroke-opacity="0.15" stroke-linecap="round" stroke-linejoin="round"/>
<path d="M640.389 247.945L609.844 247.204L581.16 249.339L557.021 237.341L532.875 229.319L509.428 213.271L509.366 213.259L496.432 215.723L476.507 215.884L464.447 203.801L455.657 201.727L437.696 202.972L419.299 197.685L410.543 192.039L399.167 184.701" stroke="white" stroke-opacity="0.15" stroke-linecap="round" stroke-linejoin="round"/>
<path d="M658.561 192.459L628.394 197.104L602.46 195.088L579.773 182.94" stroke="white" stroke-opacity="0.15" stroke-linecap="round" stroke-linejoin="round"/>
<path d="M255.298 322.343L229.838 306.376L218.775 303.64L205.936 298.873L201.601 301.001L186.107 310.841" stroke="white" stroke-opacity="0.15" stroke-linecap="round" stroke-linejoin="round"/>
<path d="M186.106 310.841L211.632 326.385L219.829 327.787L237.012 336.267L257.865 347.723" stroke="white" stroke-opacity="0.15" stroke-linecap="round" stroke-linejoin="round"/>
<path d="M525.441 205.799L504.137 185.022L483.199 181.763" stroke="white" stroke-opacity="0.15" stroke-linecap="round" stroke-linejoin="round"/>
<path d="M464.447 203.801L462.77 206.555L449.003 229.177" stroke="white" stroke-opacity="0.15" stroke-linecap="round" stroke-linejoin="round"/>
<path d="M264.569 234.525L257.369 229.063L241.027 216.674" stroke="white" stroke-opacity="0.15" stroke-linecap="round" stroke-linejoin="round"/>
<path d="M292.723 257.816L268.886 240.443L263.836 238.422L259.072 236.516L253.193 234.159" stroke="white" stroke-opacity="0.15" stroke-linecap="round" stroke-linejoin="round"/>
<path d="M291.394 328.371L289.564 336.634L285.087 356.872L275.411 375.945L275.617 382.955L275.823 389.904L257.151 401.536L233.582 420.628L205.638 441.195L204.603 474.001" stroke="white" stroke-opacity="0.15" stroke-linecap="round" stroke-linejoin="round"/>
<path d="M497.024 313.546L471.927 298.709L449.014 293.835L423.806 276.881" stroke="white" stroke-opacity="0.15" stroke-linecap="round" stroke-linejoin="round"/>
<path d="M399.167 184.701L394.277 213.076" stroke="white" stroke-opacity="0.15" stroke-linecap="round" stroke-linejoin="round"/>
<path d="M122.37 328.375L122.603 336.966L107.648 347.154" stroke="white" stroke-opacity="0.15" stroke-linecap="round" stroke-linejoin="round"/>
<path d="M399.167 184.701L392.608 211.987" stroke="white" stroke-opacity="0.15" stroke-linecap="round" stroke-linejoin="round"/>
<path d="M122.37 328.375L124.058 335.977L128.444 355.722" stroke="white" stroke-opacity="0.15" stroke-linecap="round" stroke-linejoin="round"/>
<path d="M500.359 230.977L489.793 240.041L479.444 248.919L467.476 245.042" stroke="white" stroke-opacity="0.15" stroke-linecap="round" stroke-linejoin="round"/>
<path d="M479.444 248.919L468.179 241.08L456.933 233.253L445.118 233.402L443.811 233.127" stroke="white" stroke-opacity="0.15" stroke-linecap="round" stroke-linejoin="round"/>
<path d="M348.64 134.533L347.322 148.052L342.543 150.298L328.856 147.868L319.367 156.987L316.415 158.912L308.354 164.172L306.697 166.239L301.436 172.798L294.247 177.328L290.045 179.979L284.411 185.514L279.678 190.167L272.783 190.014L261.647 189.77L254.259 194.342L254.531 215.479" stroke="white" stroke-opacity="0.15" stroke-linecap="round" stroke-linejoin="round"/>
<path d="M671.682 151.238L644.568 153.312L619.871 152.846L601.78 126.309" stroke="white" stroke-opacity="0.15" stroke-linecap="round" stroke-linejoin="round"/>
<path d="M388.368 133.62L384.644 160.295L376.419 175.434" stroke="white" stroke-opacity="0.15" stroke-linecap="round" stroke-linejoin="round"/>
<path d="M204.779 257.151L204.951 283.906" stroke="white" stroke-opacity="0.15" stroke-linecap="round" stroke-linejoin="round"/>
<path d="M231.137 231.786L231.209 258.53" stroke="white" stroke-opacity="0.15" stroke-linecap="round" stroke-linejoin="round"/>
<path d="M449.003 229.177L427.645 213.126L409.164 208.664L394.278 213.076L384.017 225.419L369.073 228.482L352.269 225.357L337.955 225.701L326.255 238.941L315.261 254.89L302.915 270.074" stroke="white" stroke-opacity="0.15" stroke-linecap="round" stroke-linejoin="round"/>
<path d="M231.209 258.53L204.779 257.151" stroke="white" stroke-opacity="0.15" stroke-linecap="round" stroke-linejoin="round"/>
<path d="M342.543 150.298L334.365 142.578L323.333 132.165L323.317 132.149" stroke="white" stroke-opacity="0.15" stroke-linecap="round" stroke-linejoin="round"/>
<path d="M344.495 124.49L342.543 150.298" stroke="white" stroke-opacity="0.15" stroke-linecap="round" stroke-linejoin="round"/>
<path d="M562.927 231.588L540.416 218.963L517.843 211.647L509.458 213.244L509.428 213.271L502.838 221.167L496.688 228.532L488.551 238.269" stroke="white" stroke-opacity="0.15" stroke-linecap="round" stroke-linejoin="round"/>
<path d="M282.279 204.863L272.84 197.956L261.647 189.77" stroke="white" stroke-opacity="0.15" stroke-linecap="round" stroke-linejoin="round"/>
<path d="M425.705 331.179L413.798 353.743L400.21 375.506L383.238 395.592L367.033 420.865L360.36 456.257L336.718 480.965L325.388 495.37L317.369 505.566L313.049 511.059L305.291 547.284" stroke="white" stroke-opacity="0.15" stroke-linecap="round" stroke-linejoin="round"/>
<path d="M261.647 189.77L260.012 214.997" stroke="white" stroke-opacity="0.15" stroke-linecap="round" stroke-linejoin="round"/>
<path d="M307.235 202.571L304.045 199.782L288.211 185.931" stroke="white" stroke-opacity="0.15" stroke-linecap="round" stroke-linejoin="round"/>
<path d="M123.13 356.467L124.773 381.416" stroke="white" stroke-opacity="0.15" stroke-linecap="round" stroke-linejoin="round"/>
<path d="M408.973 289.197L386.962 277.412L372.626 281.24L361.815 271.086L343.017 253.442" stroke="white" stroke-opacity="0.15" stroke-linecap="round" stroke-linejoin="round"/>
<path d="M232.71 419.337L211.124 407.021L172.301 419.421" stroke="white" stroke-opacity="0.15" stroke-linecap="round" stroke-linejoin="round"/>
<path d="M298.369 132.123L296.539 156.571L292.906 176.794" stroke="white" stroke-opacity="0.15" stroke-linecap="round" stroke-linejoin="round"/>
<path d="M459.569 310.643L447.754 332.008L436.202 357.541L426.568 388.945L411.097 410.39L401.78 443.292L370.525 457.9L361.246 495.42L334.59 527.214L327.687 565.628" stroke="white" stroke-opacity="0.15" stroke-linecap="round" stroke-linejoin="round"/>
<path d="M434.112 132.146L429.719 140.332L422.626 153.553L419.505 155.482" stroke="white" stroke-opacity="0.15" stroke-linecap="round" stroke-linejoin="round"/>
<path d="M392.769 348.701L378.253 368.072L367.641 395.175L353.499 419.375L333.268 441.191L318.874 470.101L313.106 503.186L313.049 511.059L334.59 527.214L365.841 546.829L406.658 567.843L433.409 590.496L470.597 616.793L513.958 639.842" stroke="white" stroke-opacity="0.15" stroke-linecap="round" stroke-linejoin="round"/>
<path d="M394.277 213.076L392.608 211.987L392.543 211.945L391.71 211.403L376.342 193.372L367.579 183.097" stroke="white" stroke-opacity="0.15" stroke-linecap="round" stroke-linejoin="round"/>
<path d="M367.58 183.097L366.816 186.283L362.002 206.372L355.707 208.668L348.334 211.361L347.28 211.957L337.512 217.473L330.506 216.163L317.881 213.798" stroke="white" stroke-opacity="0.15" stroke-linecap="round" stroke-linejoin="round"/>
<path d="M308.354 164.172L307.957 167.438L305.493 187.822" stroke="white" stroke-opacity="0.15" stroke-linecap="round" stroke-linejoin="round"/>
<path d="M365.696 185.244L353.323 173.749L348.308 169.085" stroke="white" stroke-opacity="0.15" stroke-linecap="round" stroke-linejoin="round"/>
<path d="M416.51 154.301L414.046 159.325L413.607 159.435L406.051 175.605" stroke="white" stroke-opacity="0.15" stroke-linecap="round" stroke-linejoin="round"/>
<path d="M182.569 290.412L184.441 313.992" stroke="white" stroke-opacity="0.15" stroke-linecap="round" stroke-linejoin="round"/>
<path d="M594.041 206.116L573.367 194.889L567.09 193.701L556.99 191.791L549.24 190.328L536.206 198.801L532.531 197.376L521.713 183.574L520.089 181.504L512.186 171.423L501.623 172.897L494.297 173.917L491.844 174.261L483.199 181.764L464.481 188.896L455.657 201.727L449.003 229.177L445.358 233.139" stroke="white" stroke-opacity="0.15" stroke-linecap="round" stroke-linejoin="round"/>
<path d="M182.569 290.412L184.575 313.74" stroke="white" stroke-opacity="0.15" stroke-linecap="round" stroke-linejoin="round"/>
<path d="M337.956 225.701L331.156 221.671L317.881 213.798" stroke="white" stroke-opacity="0.15" stroke-linecap="round" stroke-linejoin="round"/>
<path d="M327.825 302.961L307.254 292.475L289.938 285.908" stroke="white" stroke-opacity="0.15" stroke-linecap="round" stroke-linejoin="round"/>
<path d="M514.462 129.227L495.943 142.505L488.127 145.252L480.632 161.097L472.389 171.614L454.343 172.997L437.256 173.642L427.683 164.719L418.985 155.803L416.51 154.302" stroke="white" stroke-opacity="0.15" stroke-linecap="round" stroke-linejoin="round"/>
<path d="M640.412 244.579L647.666 223.165L658.56 192.459L665.952 169.406L671.682 151.238" stroke="white" stroke-opacity="0.15" stroke-linecap="round" stroke-linejoin="round"/>
<path d="M374.188 199.973L367.224 221.315L352.269 225.357L341.707 241.363L330.846 258.091L315.902 269.795L307.254 292.474L303.866 321.086" stroke="white" stroke-opacity="0.15" stroke-linecap="round" stroke-linejoin="round"/>
<path d="M268.718 212.522L264.569 234.525L259.92 236.21L253.193 234.158" stroke="white" stroke-opacity="0.15" stroke-linecap="round" stroke-linejoin="round"/>
<path d="M289.938 285.908L278.574 305.054L260.727 318.646L255.299 322.343L237.012 336.267L219.138 352.735L195.359 367.404L189.377 394.629L163.164 412.228L163.771 442.563L174.059 451.471L187.925 462.06L204.603 474.001L216.652 485.106L242.276 500.573L249.08 512.194L272.882 528.795L305.291 547.284L327.688 565.628L349.087 586.68L392.945 606.116L414.222 636.393L460.608 653.155L498.102 685.648" stroke="white" stroke-opacity="0.15" stroke-linecap="round" stroke-linejoin="round"/>
<path d="M337.214 170.154L319.367 156.987" stroke="white" stroke-opacity="0.15" stroke-linecap="round" stroke-linejoin="round"/>
<path d="M396.757 257.529L386.962 277.412L376.625 297.242L365.158 316.277" stroke="white" stroke-opacity="0.15" stroke-linecap="round" stroke-linejoin="round"/>
<path d="M382.684 141.814L369.566 124.032" stroke="white" stroke-opacity="0.15" stroke-linecap="round" stroke-linejoin="round"/>
<path d="M113.553 386.676L113.477 386.962L107.881 407.991" stroke="white" stroke-opacity="0.15" stroke-linecap="round" stroke-linejoin="round"/>
<path d="M427.003 246.386L417.652 266.323L408.973 289.197" stroke="white" stroke-opacity="0.15" stroke-linecap="round" stroke-linejoin="round"/>
<path d="M364.226 256.93L343.017 253.442L330.846 258.091L315.261 254.89L295.752 244.751" stroke="white" stroke-opacity="0.15" stroke-linecap="round" stroke-linejoin="round"/>
<path d="M272.622 168.703L272.782 190.014" stroke="white" stroke-opacity="0.15" stroke-linecap="round" stroke-linejoin="round"/>
<path d="M317.881 213.798L316.728 216.231L311.575 225.556L307.892 232.837L306.135 236.313" stroke="white" stroke-opacity="0.15" stroke-linecap="round" stroke-linejoin="round"/>
<path d="M357.842 194.194L339.697 183.085" stroke="white" stroke-opacity="0.15" stroke-linecap="round" stroke-linejoin="round"/>
<path d="M459.813 127.313L447.941 144.954" stroke="white" stroke-opacity="0.15" stroke-linecap="round" stroke-linejoin="round"/>
<path d="M446.944 170.17L428.784 159.141L418.985 155.803L416.51 154.301" stroke="white" stroke-opacity="0.15" stroke-linecap="round" stroke-linejoin="round"/>
<path d="M412.984 188.555L399.79 181.08L394.522 178.092" stroke="white" stroke-opacity="0.15" stroke-linecap="round" stroke-linejoin="round"/>
<path d="M292.723 257.816L271.636 259.989" stroke="white" stroke-opacity="0.15" stroke-linecap="round" stroke-linejoin="round"/>
<path d="M446.944 170.17L453.526 150.126L459.813 127.313" stroke="white" stroke-opacity="0.15" stroke-linecap="round" stroke-linejoin="round"/>
<path d="M297.246 276.992L302.915 270.074L315.903 269.795L342.314 289.674L356.165 288.36L376.625 297.242L392.902 295.423L408.973 289.197L423.806 276.881L436.214 263.866L441.649 241.879L443.812 233.127" stroke="white" stroke-opacity="0.15" stroke-linecap="round" stroke-linejoin="round"/>
<path d="M556.99 191.791L562.338 172.191L568.053 165.196L590.358 166.678" stroke="white" stroke-opacity="0.15" stroke-linecap="round" stroke-linejoin="round"/>
<path d="M241.94 260.856L222.867 267.072L215.433 286.825L203.897 298.117L201.601 301.001L198.598 303.3L195.97 304.886L186.107 310.841L184.575 313.741L184.441 313.993L182.867 317.175L181.725 319.478L160.964 326.629L152.598 323.206L122.37 328.375" stroke="white" stroke-opacity="0.15" stroke-linecap="round" stroke-linejoin="round"/>
<path d="M288.211 185.931L282.279 204.863" stroke="white" stroke-opacity="0.15" stroke-linecap="round" stroke-linejoin="round"/>
<path d="M429.72 140.331L412.9 129.968" stroke="white" stroke-opacity="0.15" stroke-linecap="round" stroke-linejoin="round"/>
<path d="M521.713 183.574L539.938 178.012L546.314 169.906L553.675 148.174" stroke="white" stroke-opacity="0.15" stroke-linecap="round" stroke-linejoin="round"/>
<path d="M397.07 154.309L390.32 171.95L379.612 181.653" stroke="white" stroke-opacity="0.15" stroke-linecap="round" stroke-linejoin="round"/>
<path d="M494.296 173.917L480.632 161.097L462.617 161.365L446.944 170.17L437.256 173.642L425.322 170.964" stroke="white" stroke-opacity="0.15" stroke-linecap="round" stroke-linejoin="round"/>
<path d="M495.943 142.505L477.958 137.321L459.813 127.313" stroke="white" stroke-opacity="0.15" stroke-linecap="round" stroke-linejoin="round"/>
<path d="M471.102 155.887L453.526 150.126L447.941 144.954L434.112 132.146" stroke="white" stroke-opacity="0.15" stroke-linecap="round" stroke-linejoin="round"/>
<path d="M422.626 153.553L406.15 146.15L400.921 141.654L388.368 133.62" stroke="white" stroke-opacity="0.15" stroke-linecap="round" stroke-linejoin="round"/>
<path d="M464.481 188.895L446.596 190.332L430.804 175.953L425.323 170.964" stroke="white" stroke-opacity="0.15" stroke-linecap="round" stroke-linejoin="round"/>
<path d="M369.566 124.032L363.488 140.908" stroke="white" stroke-opacity="0.15" stroke-linecap="round" stroke-linejoin="round"/>
<path d="M246.146 291.947L229.88 284.766L223.627 287.092L215.433 286.825L204.951 283.906L202.013 284.762L183.234 290.217L182.562 290.335L182.332 290.278L176.763 290.66" stroke="white" stroke-opacity="0.15" stroke-linecap="round" stroke-linejoin="round"/>
<path d="M348.334 211.361L347.632 212.335L337.956 225.701" stroke="white" stroke-opacity="0.15" stroke-linecap="round" stroke-linejoin="round"/>
<path d="M270.12 239.316L264.016 237.455L259.921 236.21" stroke="white" stroke-opacity="0.15" stroke-linecap="round" stroke-linejoin="round"/>
<path d="M412.9 129.968L406.15 146.149L397.07 154.309L384.643 160.295L379.612 181.652L378.421 182.481L367.579 183.096L365.696 185.243L357.842 194.193L355.707 208.667" stroke="white" stroke-opacity="0.15" stroke-linecap="round" stroke-linejoin="round"/>
<path d="M197.906 344.308L213.461 352.238L219.138 352.735L238.334 362.946L245.763 363.977L272.771 381.144L275.617 382.955" stroke="white" stroke-opacity="0.15" stroke-linecap="round" stroke-linejoin="round"/>
<path d="M305.493 187.822L290.045 179.979L272.622 168.703" stroke="white" stroke-opacity="0.15" stroke-linecap="round" stroke-linejoin="round"/>
<path d="M379.613 181.653L363.89 174.521L348.308 169.085L337.558 174.391L323.642 171.014L308.354 164.172" stroke="white" stroke-opacity="0.15" stroke-linecap="round" stroke-linejoin="round"/>
<path d="M369.566 124.032L362.037 139.319L361.154 139.904L348.64 134.533" stroke="white" stroke-opacity="0.15" stroke-linecap="round" stroke-linejoin="round"/>
<path d="M388.368 133.62L382.684 141.814L378.753 147.483L376.419 175.434" stroke="white" stroke-opacity="0.15" stroke-linecap="round" stroke-linejoin="round"/>
<path d="M378.753 147.483L363.488 140.909L361.842 139.721L349.228 128.49L344.495 124.49" stroke="white" stroke-opacity="0.15" stroke-linecap="round" stroke-linejoin="round"/>
<path d="M348.308 169.085L339.697 183.085L336.202 185.198L327.473 190.466" stroke="white" stroke-opacity="0.15" stroke-linecap="round" stroke-linejoin="round"/>
<path d="M406.051 175.605L390.32 171.95" stroke="white" stroke-opacity="0.15" stroke-linecap="round" stroke-linejoin="round"/>
<path d="M412.9 129.968L401.406 141.179" stroke="white" stroke-opacity="0.15" stroke-linecap="round" stroke-linejoin="round"/>
<path d="M316.628 216.136L305.52 204.775L291.542 201.57L282.279 204.863L268.718 212.522L260.012 214.998L254.531 215.479L241.027 216.675L231.137 231.787L226.327 236.909L221.518 257.029" stroke="white" stroke-opacity="0.15" stroke-linecap="round" stroke-linejoin="round"/>
<path d="M112.786 377.187L108.813 381.599L106.418 384.258L102.189 388.953L88.0511 391.443L79.9336 392.876" stroke="white" stroke-opacity="0.15" stroke-linecap="round" stroke-linejoin="round"/>
<path d="M174.711 333.654L160.963 326.629L142.07 327.485" stroke="white" stroke-opacity="0.15" stroke-linecap="round" stroke-linejoin="round"/>
<path d="M644.568 153.312L639.419 167.255L636.893 172.744L607.197 185.755L586 170.536L562.339 172.19L539.938 178.012L532.531 197.376L525.441 205.799L517.843 211.647L509.416 213.294L500.359 230.976L491.882 264.508L481.943 278.497L471.927 298.709L459.569 310.643L439.839 319.207L420.838 319.856L407.04 332.6L392.769 348.701L377.951 351.333L343.021 341.118L330.69 344.457L308.656 334.044L291.394 328.371" stroke="white" stroke-opacity="0.15" stroke-linecap="round" stroke-linejoin="round"/>
<path d="M266.712 285.304L253.453 280.522L238.414 274.207L222.866 267.071L204.779 257.151L189.453 249.927" stroke="white" stroke-opacity="0.15" stroke-linecap="round" stroke-linejoin="round"/>
<path d="M336.932 135.159L323.714 130.365" stroke="white" stroke-opacity="0.15" stroke-linecap="round" stroke-linejoin="round"/>
<path d="M479.444 248.919L488.551 238.269L496.432 215.723L504.137 185.022L512.186 171.423" stroke="white" stroke-opacity="0.15" stroke-linecap="round" stroke-linejoin="round"/>
<path d="M336.932 135.16L323.317 132.149" stroke="white" stroke-opacity="0.15" stroke-linecap="round" stroke-linejoin="round"/>
<path d="M390.32 171.95L381.045 182.332" stroke="white" stroke-opacity="0.15" stroke-linecap="round" stroke-linejoin="round"/>
<path d="M317.881 213.798L316.728 216.231L312.782 226.01L309.684 233.429" stroke="white" stroke-opacity="0.15" stroke-linecap="round" stroke-linejoin="round"/>
<path d="M597.36 207.243L602.46 195.088L607.197 185.755L614.298 166.422L619.872 152.846" stroke="white" stroke-opacity="0.15" stroke-linecap="round" stroke-linejoin="round"/>
<path d="M344.495 124.49L336.932 135.159" stroke="white" stroke-opacity="0.15" stroke-linecap="round" stroke-linejoin="round"/>
<path d="M376.419 175.434L363.889 174.521L350.749 165.112L345.664 162.029L341.863 159.294L328.856 147.869L315.482 144.098L298.369 132.123" stroke="white" stroke-opacity="0.15" stroke-linecap="round" stroke-linejoin="round"/>
<path d="M345.997 161.708L345.336 162.346L337.214 170.155L323.642 171.014" stroke="white" stroke-opacity="0.15" stroke-linecap="round" stroke-linejoin="round"/>
<path d="M214.122 377.653L225.147 382.814L257.151 401.535L276.476 411.934L290.763 418.775L310.073 428.753L333.268 441.191L360.36 456.257L370.525 457.9L402.555 475.609L438.127 496.382L469.898 513.121L503.847 528.524L540.755 551.963" stroke="white" stroke-opacity="0.15" stroke-linecap="round" stroke-linejoin="round"/>
<path d="M241.955 260.795L231.209 258.53L221.518 257.029L189.453 249.927" stroke="white" stroke-opacity="0.15" stroke-linecap="round" stroke-linejoin="round"/>
<path d="M315.383 192.097L305.493 187.822L288.212 185.931L279.678 190.168" stroke="white" stroke-opacity="0.15" stroke-linecap="round" stroke-linejoin="round"/>
<path d="M301.436 172.798L292.906 176.793L272.622 168.703" stroke="white" stroke-opacity="0.15" stroke-linecap="round" stroke-linejoin="round"/>
<path d="M271.556 237.998L264.569 234.525L253.193 234.159L247.968 240.534L245.042 250.589L244.209 252.266L241.955 260.796L241.94 260.857L238.414 274.208L233.65 278.36L227.5 283.716L225.357 285.58L223.627 287.092L205.936 298.873L201.184 300.772L182.569 290.412L176.763 290.66L166.499 307.934L152.598 323.207L142.07 327.485L122.37 328.375" stroke="white" stroke-opacity="0.15" stroke-linecap="round" stroke-linejoin="round"/>
<path d="M416.51 154.301L413.607 159.435L406.051 175.605L394.522 178.092L381.045 182.332L378.421 182.481" stroke="white" stroke-opacity="0.15" stroke-linecap="round" stroke-linejoin="round"/>
<path d="M112.724 383.669L114.527 382.856L124.849 382.531L162.644 378.986L162.774 378.902L185.866 364.34L186.882 363.695L195.359 367.404L214.122 377.653L238.334 362.946L257.865 347.723L266.804 348.399L285.087 356.872L305.615 367.094L326.694 377.504L350.454 390.396L367.641 395.175L383.238 395.592L411.097 410.39L436.97 420.456L464.462 429.005L480.629 414.195L509.057 412.793L520.467 392.746L530.892 368.596L542.853 328.13" stroke="white" stroke-opacity="0.15" stroke-linecap="round" stroke-linejoin="round"/>
<path d="M323.714 130.365L323.344 132.111L323.325 132.153L315.482 144.098L316.414 158.912" stroke="white" stroke-opacity="0.15" stroke-linecap="round" stroke-linejoin="round"/>
<path d="M414.046 159.325L413.274 159.332L397.07 154.309" stroke="white" stroke-opacity="0.15" stroke-linecap="round" stroke-linejoin="round"/>
<path d="M272.882 528.795L307.396 506.823L313.106 503.186" stroke="white" stroke-opacity="0.15" stroke-linecap="round" stroke-linejoin="round"/>
<path d="M113.553 386.676L121.346 414.944" stroke="white" stroke-opacity="0.15" stroke-linecap="round" stroke-linejoin="round"/>
<path d="M391.71 211.403L374.188 199.973" stroke="white" stroke-opacity="0.15" stroke-linecap="round" stroke-linejoin="round"/>
<path d="M412.984 188.555L415.906 160.15L416.51 154.301" stroke="white" stroke-opacity="0.15" stroke-linecap="round" stroke-linejoin="round"/>
<path d="M122.37 328.375L148.881 344.037L151.043 345.313L153.442 352.219L162.553 378.493L162.644 378.986L166.3 381.526L189.377 394.629L211.124 407.021" stroke="white" stroke-opacity="0.15" stroke-linecap="round" stroke-linejoin="round"/>
<path d="M456.933 233.253L463.603 207.12L464.447 203.801" stroke="white" stroke-opacity="0.15" stroke-linecap="round" stroke-linejoin="round"/>
<path d="M536.206 198.801L534.514 199.901L525.441 205.799" stroke="white" stroke-opacity="0.15" stroke-linecap="round" stroke-linejoin="round"/>
<path d="M122.603 336.966L123.115 355.914L123.13 356.467L118.328 371.197L112.785 377.187L106.314 380.277L95.9124 385.243L85.7207 390.11L75.3608 384.162L71.5102 355.444" stroke="white" stroke-opacity="0.15" stroke-linecap="round" stroke-linejoin="round"/>
<path d="M428.783 159.141L432.195 141.856L434.112 132.146" stroke="white" stroke-opacity="0.15" stroke-linecap="round" stroke-linejoin="round"/>
<path d="M347.322 148.052L345.997 161.708L345.485 162.476L337.558 174.391L336.202 185.197" stroke="white" stroke-opacity="0.15" stroke-linecap="round" stroke-linejoin="round"/>
<path d="M118.329 371.197L115.762 379.074L114.745 382.195" stroke="white" stroke-opacity="0.15" stroke-linecap="round" stroke-linejoin="round"/>
<path d="M275.823 389.904L276.477 411.934L257.22 434.132L235.797 457.938L216.652 485.106" stroke="white" stroke-opacity="0.15" stroke-linecap="round" stroke-linejoin="round"/>
<path d="M181.725 319.478L174.712 333.654L166.12 344.587L150.393 343.429" stroke="white" stroke-opacity="0.15" stroke-linecap="round" stroke-linejoin="round"/>
<path d="M400.439 142.123L388.368 133.62" stroke="white" stroke-opacity="0.15" stroke-linecap="round" stroke-linejoin="round"/>
</g>
<defs>
<clipPath id="clip0_180_14497">
<rect width="764" height="764" fill="white" transform="matrix(-1 0 0 1 764 0)"/>
</clipPath>
</defs>
</svg>
